<svg width="51" height="51" viewBox="0 0 51 51" fill="none" xmlns="http://www.w3.org/2000/svg">
<path d="M46.1962 34.786C45.3543 34.2563 44.317 34.1971 43.4226 34.6291L35.3948 38.479C35.3461 37.7826 35.0624 37.1322 34.561 36.6348C34.0128 36.0895 33.2841 35.7899 32.5088 35.7899C32.5088 35.7899 32.508 35.7899 32.5073 35.7899L27.8686 35.7906C27.5043 35.4781 27.12 35.1921 26.7278 34.9192V32.1633C27.0231 32.1917 27.3898 32.2158 27.8042 32.2158C27.8035 32.2158 27.805 32.2158 27.8042 32.2158C29.1707 32.2158 31.0639 31.9525 32.3164 30.6999C34.4449 28.5715 33.7132 24.572 33.6814 24.4033C33.6229 24.0978 33.384 23.8588 33.0784 23.8004C31.0885 23.3984 28.2415 23.6514 26.7278 25.2272V22.1176C27.104 22.1598 27.6234 22.2009 28.2193 22.2009C29.835 22.2009 32.07 21.8924 33.5401 20.4231C36.0436 17.9196 35.1773 13.184 35.1396 12.9842C35.0811 12.6787 34.8422 12.439 34.5366 12.3813C34.4493 12.3635 29.6523 11.4269 27.0985 13.9815C26.9639 14.116 26.8436 14.2598 26.7278 14.4061V13.4178C27.5989 12.7618 30.3914 10.4341 30.3914 7.52212C30.3914 4.15298 26.6324 1.55769 26.4726 1.44894C26.2151 1.27434 25.8778 1.27434 25.6203 1.44894C25.4605 1.55769 21.7007 4.15298 21.7007 7.52212C21.7007 10.2786 24.2059 12.5142 25.2127 13.3014V15.33C23.1193 13.3856 19.3943 14.109 19.3259 14.1221C19.0204 14.1805 18.7814 14.4195 18.723 14.725C18.6926 14.8856 17.9964 18.6919 20.0265 20.7213C21.3103 22.0051 23.3865 22.2809 25.2127 22.1292V24.0629C23.404 21.8032 19.7827 21.4491 17.0221 21.9612C16.7166 22.0196 16.4776 22.2586 16.4192 22.5641C16.3792 22.7743 15.4677 27.7555 18.0978 30.3855C19.6403 31.928 21.99 32.2521 23.6886 32.2521C24.2938 32.2521 24.8205 32.2115 25.2127 32.1687V33.9954C21.8969 32.2514 19.842 32.4643 13.8853 32.4364V31.1113H4.41113V46.5447H13.8853V44.7891C16.5862 46.3283 23.0333 49.8021 26.2048 49.8021C26.2802 49.8021 26.3535 49.8006 26.4245 49.7962C32.0316 49.484 45.2026 40.288 46.1052 39.6532C47.964 38.5783 48.009 35.9254 46.1962 34.786ZM27.8531 26.2366C29.0457 25.0448 31.2644 25.1187 32.2631 25.2179C32.6647 29.2099 31.0234 30.6951 27.8528 30.7007C29.178 29.1237 30.9662 28.2822 30.0829 27.3989C29.787 27.1029 29.3076 27.1029 29.0116 27.3989L26.7832 29.6278C26.7864 28.53 26.9823 27.1074 27.8531 26.2366ZM28.1697 15.0528C29.7034 13.5184 32.562 13.6678 33.7258 13.7958C34.2852 18.7713 32.2124 20.7883 27.9707 20.6834L30.8382 17.961C31.1416 17.6725 31.1541 17.1931 30.8664 16.8897C30.5778 16.5871 30.0992 16.5738 29.7951 16.8616L26.843 19.6643C26.7957 18.2821 26.9627 16.2598 28.1697 15.0528ZM25.1843 29.6922C22.5075 27.4108 21.686 25.5558 20.7811 26.4882C19.8799 27.4215 21.7449 28.1673 24.079 30.7312C19.5239 30.8888 17.2209 28.7704 17.8337 23.375C23.1918 22.7575 25.3619 25.0299 25.1843 29.6922ZM12.3701 45.0295H5.92628V32.6264H12.3701V45.0295ZM23.2159 7.52212C23.2159 5.52683 25.169 3.73129 26.0501 3.02254C27.1103 3.86963 28.8762 5.66961 28.8762 7.52212C28.8762 9.05249 27.7354 10.4615 26.804 11.3581V7.94382C26.804 7.52508 26.4652 7.18625 26.0464 7.18625C25.6277 7.18625 25.2889 7.52508 25.2889 7.94382V11.3582C24.3572 10.4617 23.2159 9.05253 23.2159 7.52212ZM23.2114 17.5393C22.9155 17.2434 22.4361 17.2434 22.1402 17.5393C21.8443 17.8352 21.8443 18.3146 22.1402 18.6105L24.1785 20.6489C23.1665 20.6353 21.8914 20.4426 21.0978 19.65C20.0021 18.5543 20.048 16.5087 20.1419 15.541C21.0948 15.4463 23.1463 15.3931 24.2509 16.4969C24.881 17.127 25.1287 18.0671 25.2127 18.9387V19.5405L23.2114 17.5393ZM45.3298 38.3512C45.3062 38.3637 45.284 38.3785 45.2625 38.3933C45.1264 38.4895 31.5951 47.991 26.3401 48.284C23.6983 48.4116 16.7767 44.7295 13.8853 43.0389V33.9515C15.0237 33.957 17.3217 33.975 19.8734 34.0358C22.2963 34.0928 24.99 35.2432 27.0785 37.1127L27.2945 37.3058L32.508 37.3051C32.8801 37.3051 33.2308 37.4486 33.4935 37.7097C33.7554 37.9694 33.8996 38.3149 33.8996 38.6819C33.8996 39.4409 33.2752 40.0587 32.5073 40.0587H22.9954V41.5738H32.5073C33.4389 41.5738 34.2604 41.1278 34.7929 40.4478L44.0788 35.9948C44.5027 35.7921 44.9917 35.8188 45.3898 36.0688C46.2645 36.6188 46.196 37.8664 45.3298 38.3512Z" fill="url(#paint0_linear_449_54)"/>
<path d="M8.39089 39.6408V40.965H9.90604V39.6409C10.5956 39.3447 11.0801 38.6577 11.0801 37.8585C11.0801 36.7968 10.2138 35.9327 9.14847 35.9327C8.08313 35.9327 7.2168 36.7968 7.2168 37.8585C7.2168 38.6577 7.70133 39.3447 8.39089 39.6408ZM9.14847 37.4479C9.37781 37.4479 9.56499 37.6321 9.56499 37.8585C9.56499 38.0915 9.37781 38.2817 9.14847 38.2817C8.92282 38.2817 8.73195 38.0878 8.73195 37.8585C8.73195 37.6358 8.92282 37.4479 9.14847 37.4479Z" fill="url(#paint1_linear_449_54)"/>
<defs>
<linearGradient id="paint0_linear_449_54" x1="4.41113" y1="25.56" x2="47.528" y2="25.56" gradientUnits="userSpaceOnUse">
<stop stop-color="#10733E"/>
<stop offset="1" stop-color="#47A070"/>
</linearGradient>
<linearGradient id="paint1_linear_449_54" x1="7.2168" y1="38.4489" x2="11.0801" y2="38.4489" gradientUnits="userSpaceOnUse">
<stop stop-color="#10733E"/>
<stop offset="1" stop-color="#47A070"/>
</linearGradient>
</defs>
</svg>
