<svg width="79" height="80" viewBox="0 0 79 80" fill="none" xmlns="http://www.w3.org/2000/svg">
<mask id="path-1-inside-1_363_175" fill="white">
<path d="M0.959961 7C0.959961 3.13401 4.09397 0 7.95996 0H71.96C75.826 0 78.96 3.13401 78.96 7V73C78.96 76.866 75.826 80 71.96 80H7.95996C4.09397 80 0.959961 76.866 0.959961 73V7Z"/>
</mask>
<path d="M0.959961 7C0.959961 3.13401 4.09397 0 7.95996 0H71.96C75.826 0 78.96 3.13401 78.96 7V73C78.96 76.866 75.826 80 71.96 80H7.95996C4.09397 80 0.959961 76.866 0.959961 73V7Z" fill="#3AB44C"/>
<path d="M0.959961 0H78.96H0.959961ZM78.96 73C78.96 79.0751 74.0351 84 67.96 84H11.96C5.88483 84 0.959961 79.0751 0.959961 73C0.959961 74.6569 4.09397 76 7.95996 76H71.96C75.826 76 78.96 74.6569 78.96 73ZM0.959961 80V0V80ZM78.96 0V80V0Z" fill="#3AB44C" mask="url(#path-1-inside-1_363_175)"/>
<g clip-path="url(#clip0_363_175)">
<path d="M64.1556 56.3477L60.3573 53.002L58.3121 48.1325C59.8498 47.4571 60.957 45.902 61.0032 44.1035C61.1954 36.5794 57.1433 30.6419 56.9665 30.3984C55.7901 28.6941 53.6449 28.0893 51.8149 28.7962C51.8688 28.4977 51.8995 28.1993 51.8995 27.8851C51.8995 25.1912 49.7543 23 47.117 23C44.4797 23 42.3345 25.1912 42.3345 27.8851C42.3345 28.1836 42.3653 28.482 42.4191 28.7648C42.4191 28.7726 42.4191 28.7805 42.4191 28.7883C42.8189 30.9717 44.6489 32.6368 46.871 32.7546L44.0107 40.0587L42.6729 40.8834C41.8655 41.3782 41.558 42.4149 41.9501 43.2788C42.0731 43.5537 42.2577 43.7893 42.4806 43.97L40.8198 48.2032L37.9365 47.0251C37.6443 46.9073 37.306 47.0487 37.183 47.355L35.3069 52.138C34.884 53.214 34.8994 54.4 35.3454 55.4681C35.7913 56.5362 36.6217 57.3609 37.6751 57.7929C38.1902 58.0049 38.7285 58.107 39.2513 58.107C40.9429 58.107 42.5421 57.0703 43.2111 55.3738L45.0872 50.5908C45.2025 50.2924 45.0641 49.9468 44.7642 49.8211L41.8809 48.643L43.5494 44.3862C43.5725 44.3862 43.5955 44.3941 43.6109 44.3941C43.8723 44.3941 44.1337 44.3391 44.3798 44.2213L50.5617 41.331C50.9615 41.1347 51.2844 40.8205 51.4766 40.4357L51.5997 40.1922C51.8995 41.4567 52.1456 42.8311 52.1533 43.7658C51.8534 44.3862 50.0773 47.7713 48.9624 49.8918C48.7625 50.2688 48.6548 50.6929 48.6548 51.117V60.4475C48.6548 60.9423 48.8009 61.4135 49.0623 61.8219H45.6792C45.364 61.8219 45.1025 62.0889 45.1025 62.411C45.1025 62.733 45.364 63 45.6792 63H55.5825C55.8977 63 56.1592 62.733 56.1592 62.411C56.1592 62.0889 55.8977 61.8219 55.5825 61.8219H53.2143C53.4911 61.3899 53.6526 60.8794 53.6526 60.3375V51.761L54.0601 50.9992L55.9746 55.5545C56.1207 55.9079 56.3514 56.2299 56.6359 56.4812L60.8725 60.2119C61.3261 60.6124 61.9028 60.8323 62.5025 60.8323C63.2329 60.8323 63.9173 60.5103 64.394 59.9448C64.8322 59.4265 65.0398 58.7667 64.9937 58.0913C64.9706 57.4159 64.6631 56.7954 64.1556 56.3477ZM42.15 54.9262C41.5118 56.5441 39.705 57.3373 38.1134 56.6933C37.3445 56.3791 36.737 55.7744 36.4141 54.9969C36.0912 54.2193 36.0758 53.3554 36.3834 52.57L38.0442 48.3367L40.9198 49.5148L43.7954 50.6929L42.15 54.9262ZM47.1247 24.1781C48.3396 24.1781 49.4083 24.7985 50.0696 25.7332C48.6548 26.8798 47.7475 26.9191 46.7172 26.9584C45.833 26.9898 44.8411 27.0291 43.5109 27.7045C43.6109 25.7489 45.1871 24.1781 47.1247 24.1781ZM43.6724 28.9533C44.9641 28.1993 45.8407 28.16 46.7557 28.1286C47.8475 28.0972 48.9701 28.0501 50.5847 26.817C50.6847 27.1547 50.7539 27.5081 50.7539 27.8773C50.7539 28.7019 50.4771 29.4638 50.0311 30.0764C49.9696 30.1471 49.9081 30.2177 49.8543 30.2884C49.1853 31.0738 48.2165 31.5765 47.1247 31.5765C45.4947 31.5843 44.1261 30.4769 43.6724 28.9533ZM48.1704 32.6446C48.4626 32.5818 48.7471 32.4875 49.0162 32.3697C48.9547 32.8095 48.9547 33.2651 49.0239 33.7206L47.8321 37.7182L45.6638 39.0534L48.1704 32.6446ZM49.8312 51.1013C49.8312 50.8736 49.8927 50.6458 50.0004 50.4416C53.3297 44.1349 53.3297 44.0878 53.3297 43.8993C53.3681 42.2342 52.6761 39.5561 52.4224 38.6293L53.7987 35.9511C53.9448 35.6605 53.8371 35.3071 53.5526 35.1579C53.2681 35.0086 52.9221 35.1186 52.7761 35.4092L51.2998 38.2837L50.5078 39.8231L50.4694 39.8938C50.3925 40.0509 50.2541 40.1765 50.0926 40.2551L43.9185 43.1374C43.7493 43.216 43.5571 43.2238 43.3802 43.161C43.2111 43.0982 43.0727 42.9647 42.9958 42.7919C42.8497 42.462 42.965 42.0772 43.2649 41.8887L48.601 38.6057C48.724 38.5272 48.8163 38.4094 48.8547 38.2759L50.1465 33.9405C50.1465 33.9327 50.1465 33.9169 50.1465 33.9091C50.1541 33.8855 50.1465 33.8698 50.1541 33.8463C50.1618 33.7913 50.1618 33.7284 50.1541 33.6735C50.1541 33.6656 50.1541 33.6656 50.1541 33.6578C49.985 32.7546 50.1926 31.8357 50.6924 31.1131C50.7846 31.0031 50.8769 30.8853 50.9615 30.7675C51.1153 30.5947 51.2844 30.4298 51.4843 30.2884C52.9529 29.236 54.9905 29.5894 56.0208 31.0817C56.1822 31.3173 60.0267 36.9407 59.8421 44.0799C59.796 45.8706 58.3351 47.3314 56.5821 47.3314H56.4821C55.4287 47.3393 54.4522 47.8576 53.9678 48.753L52.5761 51.3369C52.53 51.4233 52.5069 51.5254 52.5069 51.6197V60.3297C52.5069 61.0915 51.9764 61.7434 51.2998 61.8062C50.9153 61.8455 50.5463 61.7198 50.2541 61.4606C49.9696 61.2014 49.8081 60.8245 49.8081 60.4396V51.1013H49.8312ZM63.5405 59.183C63.0715 59.7328 62.1873 59.8035 61.6413 59.3244L57.4048 55.5938C57.251 55.4602 57.128 55.2875 57.0511 55.0911L54.7905 49.6955L54.9905 49.3185C55.2673 48.8001 55.8362 48.5017 56.4975 48.5017H56.5974C56.805 48.5017 57.0049 48.4781 57.1972 48.4545L59.3501 53.591C59.3808 53.6695 59.4346 53.7481 59.5038 53.8031L63.4021 57.2352C63.6712 57.4708 63.8404 57.8086 63.8634 58.1777C63.8942 58.5468 63.7789 58.9003 63.5405 59.183Z" fill="white"/>
<path d="M29.1684 63C29.7975 63 30.4108 62.7645 30.8826 62.3405C31.4173 61.8537 31.724 61.1706 31.724 60.4483V51.1206C31.724 50.7045 31.6139 50.2805 31.4095 49.8958C30.2693 47.7837 28.4528 44.3997 28.1462 43.7794C28.154 42.9 28.4764 41.2434 29.0583 39.1234L30.3872 40.6466L30.4501 40.7173C30.7332 41.0392 31.1264 41.2748 31.5982 41.369L37.4014 42.319C37.4564 42.3269 37.5193 42.3269 37.5744 42.3347V43.0649C36.5914 42.9 34.8929 42.8686 33.7056 44.172C33.4854 44.4154 33.5011 44.7844 33.7449 45.0043C33.855 45.1063 33.9965 45.1613 34.1381 45.1613C34.2953 45.1613 34.4605 45.0985 34.5784 44.965C35.3569 44.1092 36.5443 44.1092 37.2913 44.2191C36.56 44.7609 35.3569 45.813 35.1367 47.0614C35.0817 47.3833 35.294 47.6895 35.6164 47.7444C35.6478 47.7523 35.6871 47.7523 35.7186 47.7523C36.0017 47.7523 36.2454 47.5482 36.3005 47.2655C36.4342 46.5275 37.2362 45.758 37.8732 45.2634C37.9597 45.3183 38.0619 45.3576 38.172 45.3576C38.4944 45.3576 38.7617 45.0906 38.7617 44.7687V44.329C39.3279 44.8158 39.9176 45.4596 40.0277 46.0799C40.0749 46.3626 40.3265 46.5667 40.6096 46.5667C40.6411 46.5667 40.6804 46.5667 40.7118 46.5589C41.0342 46.5039 41.2466 46.1977 41.1915 45.8758C40.9399 44.4625 39.4223 43.2926 38.7696 42.8451V42.0678C38.7932 42.0521 38.8168 42.0521 38.8404 42.0364C39.2571 41.7537 39.5402 41.3297 39.6267 40.8429C39.784 40.0578 39.4223 39.2883 38.7696 38.88V30.5653C40.1771 29.254 41.1601 27.5032 41.5375 25.6188C41.6004 25.2969 41.396 24.9907 41.0736 24.9278C40.7512 24.865 40.4445 25.0692 40.3816 25.3911C40.13 26.6473 39.5717 27.8408 38.7696 28.8379V26.9143C38.7696 25.5167 39.3751 24.1898 40.4288 23.2712L41.797 22.0856C42.0408 21.8736 42.0722 21.4967 41.852 21.2533C41.6397 21.0099 41.2623 20.9785 41.0185 21.1984L39.6503 22.3839C39.493 22.5174 39.3436 22.6666 39.2021 22.8158C39.0369 22.329 38.864 21.6145 38.7696 20.6409C40.1693 19.3297 41.1522 17.5866 41.5296 15.7023C41.5925 15.3804 41.3881 15.0742 41.0657 15.0113C40.7433 14.9485 40.4366 15.1527 40.3737 15.4746C40.1142 16.7622 39.5402 17.9714 38.7067 18.9921C38.7067 18.678 38.7224 18.3561 38.746 18.0028C38.7696 17.6809 38.518 17.3982 38.1956 17.3747C37.8732 17.359 37.5901 17.6024 37.5665 17.9243C37.3463 21.3318 38.0304 23.2005 38.3843 23.9228C37.8653 24.8258 37.5822 25.8543 37.5822 26.9143V27.4325C36.7802 26.8986 36.2061 26.2626 35.9702 25.6109C35.8601 25.3047 35.522 25.1477 35.2153 25.2576C34.9087 25.3675 34.7514 25.7051 34.8615 26.0114C35.2547 27.0792 36.214 28.0528 37.5822 28.7908V38.4325L33.4697 37.1841L31.3937 33.6509C31.6218 31.9785 30.9141 30.3062 29.5223 29.3326C29.4829 29.309 29.4436 29.2855 29.4043 29.2619C31.6139 29.0892 33.4146 27.4403 33.8157 25.3047C33.8157 25.2969 33.8157 25.289 33.8157 25.2812C33.8707 24.9907 33.9022 24.7002 33.9022 24.4018C33.9022 21.7087 31.7083 19.5181 29.0111 19.5181C26.314 19.5181 24.1201 21.7087 24.1201 24.4018C24.1201 26.1527 25.048 27.6837 26.4398 28.5474C25.1974 28.6809 24.01 29.3169 23.2394 30.4082C23.0664 30.6595 18.9224 36.5795 19.1111 44.1092C19.1583 45.9072 20.2906 47.4618 21.8633 48.137L19.7717 53.005L15.8872 56.3497C15.3682 56.7973 15.0615 57.4176 15.0065 58.0928C14.9593 58.7759 15.1716 59.4354 15.6198 59.9458C16.1152 60.5268 16.8229 60.8487 17.5621 60.8487C18.1754 60.8487 18.7651 60.6288 19.2291 60.2284L23.5618 56.4989C23.8528 56.2477 24.0887 55.9258 24.2459 55.5724L26.196 51.0185L26.6128 51.7801V60.3305C26.6128 61.6888 27.6193 62.8508 28.9089 62.9843C28.9954 63 29.0819 63 29.1684 63ZM29.0111 20.7037C30.9927 20.7037 32.6126 22.274 32.7069 24.2291C31.3466 23.546 30.3322 23.5067 29.4279 23.4832C28.3742 23.4518 27.4542 23.4046 25.9995 22.2583C26.6757 21.324 27.7687 20.7037 29.0111 20.7037ZM25.3075 24.4096C25.3075 24.0406 25.3783 23.6873 25.4805 23.3497C27.1318 24.5824 28.2798 24.6295 29.3964 24.6609C30.3322 24.6923 31.2286 24.7237 32.5497 25.4853C32.0857 27.0007 30.686 28.1156 29.019 28.1156C26.9667 28.1156 25.3075 26.451 25.3075 24.4096ZM23.1608 55.1092C23.0821 55.2976 22.9485 55.4704 22.7912 55.6117L18.4585 59.3412C17.908 59.8201 16.9959 59.7495 16.5162 59.1999C16.2725 58.9251 16.1624 58.5717 16.186 58.2027C16.2095 57.8337 16.3825 57.5039 16.6578 57.2605L20.6445 53.8294C20.7153 53.7666 20.7624 53.6959 20.8018 53.6174L23.0035 48.4825C23.208 48.5139 23.4124 48.5296 23.6169 48.5296H23.7427C23.7584 48.5296 23.7663 48.5296 23.782 48.5296C24.4189 48.5296 24.9772 48.8358 25.2524 49.3462L25.4726 49.7152L23.1608 55.1092ZM27.7923 60.3383V51.631C27.7923 51.5289 27.7687 51.4347 27.7215 51.3483L26.2983 48.7651C25.8029 47.8622 24.8121 47.3126 23.7269 47.344H23.6247C21.8319 47.344 20.3378 45.8836 20.2906 44.0935C20.1098 36.9486 24.0336 31.3347 24.1987 31.0992C25.2524 29.6074 27.3362 29.254 28.8381 30.3062C29.9154 31.0599 30.4501 32.379 30.1985 33.6745C30.1985 33.6902 30.1985 33.698 30.1985 33.7059C30.1906 33.7687 30.1906 33.8315 30.1985 33.8943C30.2064 33.9179 30.2142 33.9414 30.2221 33.965C30.2378 34.0042 30.2378 34.0435 30.2614 34.0827L32.5575 37.9928C32.6362 38.1184 32.7541 38.2127 32.8956 38.2598L37.9754 39.7987C38.3214 39.9086 38.5258 40.2541 38.4551 40.6152C38.4236 40.7958 38.3214 40.9529 38.1641 41.0628C38.0068 41.1727 37.8181 41.212 37.6058 41.1648L31.8105 40.2148C31.6218 40.1756 31.4488 40.0813 31.3466 39.9557L28.0046 36.132C27.7923 35.8886 27.4149 35.8572 27.1711 36.077C26.9273 36.289 26.9037 36.6659 27.1161 36.9093L28.1304 38.0635C27.6429 39.7673 26.9352 42.4996 26.9667 43.905C26.9667 44.1013 26.9667 44.1563 30.3715 50.4611C30.4816 50.6731 30.5445 50.9008 30.5445 51.1206V60.4483C30.5445 60.833 30.3794 61.2099 30.0884 61.469C29.7975 61.7359 29.4122 61.8537 29.019 61.8144C28.3349 61.7438 27.7923 61.0999 27.7923 60.3383Z" fill="white"/>
<path d="M22.0933 61.3816H15.5821C15.2639 61.3816 15 61.6657 15 62.0084C15 62.351 15.2639 62.6351 15.5821 62.6351H22.0933C22.4115 62.6351 22.6753 62.351 22.6753 62.0084C22.6753 61.6657 22.4115 61.3816 22.0933 61.3816ZM34.3863 62.6685H27.875C27.5568 62.6685 27.293 62.9526 27.293 63.2953C27.293 63.6379 27.5568 63.922 27.875 63.922H34.3863C34.7044 63.922 34.9683 63.6379 34.9683 63.2953C34.9683 62.9526 34.7044 62.6685 34.3863 62.6685ZM43.1248 63.7465H37.8941C37.5759 63.7465 37.312 64.0306 37.312 64.3733C37.312 64.7159 37.5759 65 37.8941 65H43.1248C43.443 65 43.7069 64.7159 43.7069 64.3733C43.7069 64.0306 43.4508 63.7465 43.1248 63.7465ZM62.4179 62.1588H59.1662C58.848 62.1588 58.5842 62.4429 58.5842 62.7855C58.5842 63.1281 58.848 63.4123 59.1662 63.4123H62.4179C62.7361 63.4123 63 63.1281 63 62.7855C63 62.4429 62.7361 62.1588 62.4179 62.1588ZM39.9119 61.2061C40.719 61.2061 41.5339 61.0557 42.341 60.7465C43.2179 60.4123 43.994 60.2535 44.7235 60.2535H45.6626C45.9808 60.2535 46.2446 59.9694 46.2446 59.6267C46.2446 59.2841 45.9808 59 45.6626 59H44.7235C43.8621 59 42.9541 59.1838 41.953 59.5682C40.5793 60.0864 39.2445 60.0864 37.8708 59.5682C36.8697 59.1838 35.9617 59 35.1002 59H32.4306C32.1124 59 31.8485 59.2841 31.8485 59.6267C31.8485 59.9694 32.1124 60.2535 32.4306 60.2535H35.1002C35.8298 60.2535 36.6058 60.4123 37.4828 60.7465C38.2899 61.0557 39.1048 61.2061 39.9119 61.2061Z" fill="white"/>
</g>
<defs>
<clipPath id="clip0_363_175">
<rect width="50" height="50" fill="white" transform="translate(15 15)"/>
</clipPath>
</defs>
</svg>
