<svg width="25" height="24" viewBox="0 0 25 24" fill="none" xmlns="http://www.w3.org/2000/svg">
<path d="M20.2625 4H4.7375C4.01208 4.00198 3.31693 4.29103 2.80398 4.80398C2.29103 5.31693 2.00198 6.01208 2 6.7375V16.2625C2.00198 16.9879 2.29103 17.6831 2.80398 18.196C3.31693 18.709 4.01208 18.998 4.7375 19H20.2625C20.9879 18.998 21.6831 18.709 22.196 18.196C22.709 17.6831 22.998 16.9879 23 16.2625V6.7375C22.998 6.01208 22.709 5.31693 22.196 4.80398C21.6831 4.29103 20.9879 4.00198 20.2625 4ZM21.5 16.2625C21.5 16.5907 21.3696 16.9055 21.1375 17.1375C20.9055 17.3696 20.5907 17.5 20.2625 17.5H4.7375C4.40929 17.5 4.09453 17.3696 3.86246 17.1375C3.63038 16.9055 3.5 16.5907 3.5 16.2625V6.7375C3.5 6.40929 3.63038 6.09453 3.86246 5.86246C4.09453 5.63038 4.40929 5.5 4.7375 5.5H20.2625C20.5907 5.5 20.9055 5.63038 21.1375 5.86246C21.3696 6.09453 21.5 6.40929 21.5 6.7375V16.2625Z" fill="#4D4D4D"/>
<path d="M19.6175 7.77772L12.5 12.0452L5.38253 7.77772C5.29766 7.716 5.20078 7.67277 5.09815 7.65084C4.99553 7.62891 4.88944 7.62876 4.78675 7.6504C4.68407 7.67203 4.58706 7.71498 4.50202 7.77646C4.41697 7.83794 4.34577 7.91659 4.29303 8.00731C4.24028 8.09804 4.20716 8.19882 4.19581 8.30314C4.18446 8.40747 4.19512 8.51302 4.22712 8.61296C4.25912 8.71291 4.31174 8.80503 4.38157 8.88336C4.4514 8.96169 4.5369 9.0245 4.63253 9.06772L12.1325 13.5677C12.2465 13.6335 12.3759 13.6682 12.5075 13.6682C12.6392 13.6682 12.7685 13.6335 12.8825 13.5677L20.3825 9.06772C20.5327 8.95852 20.637 8.7975 20.6753 8.61582C20.7136 8.43413 20.6831 8.24471 20.5898 8.0842C20.4965 7.92369 20.3469 7.80349 20.1701 7.74688C19.9933 7.69026 19.8017 7.70125 19.6325 7.77772H19.6175Z" fill="url(#paint0_linear_359_31)"/>
<defs>
<linearGradient id="paint0_linear_359_31" x1="4.19141" y1="10.6512" x2="20.6914" y2="10.6512" gradientUnits="userSpaceOnUse">
<stop stop-color="#10733E"/>
<stop offset="1" stop-color="#47A070"/>
</linearGradient>
</defs>
</svg>
