<svg width="39" height="39" viewBox="0 0 39 39" fill="none" xmlns="http://www.w3.org/2000/svg">
<path d="M19.5667 38.6061C29.9681 38.6061 38.4001 30.1742 38.4001 19.7728C38.4001 9.37142 29.9681 0.939453 19.5667 0.939453C9.16537 0.939453 0.733398 9.37142 0.733398 19.7728C0.733398 30.1742 9.16537 38.6061 19.5667 38.6061Z" fill="#3C5A99"/>
<path d="M16.9018 16.5017V20.3253H12.4487V25.5099H16.9018V38.4153C17.7727 38.5384 18.6616 38.6062 19.5665 38.6062C20.4701 38.6062 21.3577 38.5384 22.2278 38.4153V25.5099H26.6696L27.3346 20.3253H22.2278V17.0152C22.2278 15.514 22.6426 14.4911 24.7837 14.4911L27.5146 14.4899V9.85267C27.0425 9.78948 25.4211 9.64844 23.5353 9.64844C19.5974 9.64886 16.9018 12.0645 16.9018 16.5017Z" fill="white"/>
</svg>
