<svg width="39" height="39" viewBox="0 0 39 39" fill="none" xmlns="http://www.w3.org/2000/svg">
<rect x="2.79883" y="3.27246" width="33.0446" height="33.0446" rx="4" fill="white"/>
<path d="M38.0201 12.008C37.9284 10.0033 37.6099 8.63434 37.1445 7.43654C36.6716 6.17972 35.9304 5.04135 34.9724 4.10052C34.032 3.14253 32.8932 2.4005 31.6364 1.92758C30.4386 1.4626 29.0696 1.14453 27.0649 1.05329C25.0564 0.961635 24.4148 0.939453 19.3001 0.939453C14.1854 0.939453 13.5438 0.961635 11.5354 1.05287C9.53065 1.14453 8.16168 1.46302 6.96388 1.92841C5.70707 2.40134 4.5687 3.14253 3.62787 4.10052C2.66988 5.04094 1.92785 6.17931 1.45492 7.43612C0.989945 8.63434 0.671871 10.0033 0.580634 12.0076C0.48856 14.0165 0.466797 14.6581 0.466797 19.7728C0.466797 24.8879 0.48856 25.5295 0.580634 27.538C0.671871 29.5423 0.990364 30.9117 1.45617 32.1095C1.9291 33.3659 2.6703 34.5046 3.62829 35.4451C4.5687 36.403 5.70749 37.1447 6.9643 37.6172C8.1621 38.083 9.53107 38.4011 11.5358 38.4927C13.5442 38.5844 14.1858 38.6061 19.3006 38.6061C24.4153 38.6061 25.0569 38.5848 27.0653 38.4927C29.07 38.4011 30.439 38.083 31.6368 37.6172C34.1667 36.6391 36.1664 34.639 37.1445 32.1095C37.6103 30.9112 37.9284 29.5423 38.0201 27.538C38.1117 25.5291 38.1335 24.8875 38.1335 19.7728C38.1335 14.6581 38.1117 14.0165 38.0201 12.008ZM34.63 27.3836C34.5463 29.22 34.2396 30.2169 33.9818 30.8807C33.3481 32.5234 32.0499 33.8212 30.4076 34.4548C29.7443 34.7126 28.7469 35.0194 26.9105 35.1031C24.925 35.1939 24.3291 35.2128 19.3001 35.2128C14.2708 35.2128 13.6752 35.1939 11.6898 35.1031C9.85375 35.0194 8.85642 34.7126 8.19265 34.4548C7.37486 34.1527 6.63492 33.6714 6.02723 33.0457C5.40155 32.438 4.92025 31.6985 4.61808 30.8803C4.36028 30.2169 4.0535 29.2196 3.9698 27.3831C3.8794 25.3973 3.86015 24.8017 3.86015 19.7728C3.86015 14.7439 3.8794 14.1483 3.9698 12.1624C4.05392 10.326 4.36028 9.32908 4.61808 8.66531C4.92025 7.8471 5.40155 7.10716 6.02723 6.49947C6.63492 5.87379 7.37486 5.39249 8.19307 5.09074C8.85642 4.83251 9.85375 4.52616 11.6902 4.44204C13.6757 4.35205 14.2712 4.3328 19.3001 4.3328C24.3291 4.3328 24.9242 4.35205 26.9101 4.44287C28.7465 4.52658 29.7434 4.83335 30.4072 5.09116C31.225 5.39333 31.9649 5.87462 32.5726 6.49989C33.1983 7.10758 33.6796 7.84752 33.9813 8.66572C34.2396 9.32908 34.5463 10.3264 34.63 12.1629C34.7204 14.1487 34.7397 14.7443 34.7397 19.7732C34.7397 24.8021 34.7209 25.3973 34.63 27.3836Z" fill="url(#paint0_linear_468_71)"/>
<path d="M19.2995 10.1016C13.9584 10.1016 9.62842 14.4316 9.62842 19.7727C9.62842 25.1138 13.9584 29.4438 19.2995 29.4438C24.6411 29.4438 28.9707 25.1138 28.9707 19.7727C28.9707 14.4316 24.6411 10.1016 19.2995 10.1016ZM19.2995 26.0505C15.833 26.0501 13.0222 23.2397 13.0222 19.7727C13.0222 16.3057 15.8325 13.4949 19.3 13.4949C22.767 13.4953 25.5777 16.3057 25.5777 19.7727C25.5777 23.2397 22.767 26.0505 19.2995 26.0505Z" fill="url(#paint1_linear_468_71)"/>
<path d="M31.6133 9.71929C31.6133 10.9673 30.6013 11.9793 29.3533 11.9793C28.1048 11.9793 27.0933 10.9673 27.0933 9.71929C27.0933 8.47085 28.1052 7.45929 29.3533 7.45929C30.6013 7.45929 31.6133 8.47127 31.6133 9.71929Z" fill="url(#paint2_linear_468_71)"/>
<defs>
<linearGradient id="paint0_linear_468_71" x1="3.62778" y1="35.445" x2="34.9725" y2="4.10031" gradientUnits="userSpaceOnUse">
<stop stop-color="#FFD600"/>
<stop offset="0.5" stop-color="#FF0100"/>
<stop offset="1" stop-color="#D800B9"/>
</linearGradient>
<linearGradient id="paint1_linear_468_71" x1="12.4613" y1="26.6113" x2="26.1383" y2="12.9342" gradientUnits="userSpaceOnUse">
<stop stop-color="#FF6400"/>
<stop offset="0.5" stop-color="#FF0100"/>
<stop offset="1" stop-color="#FD0056"/>
</linearGradient>
<linearGradient id="paint2_linear_468_71" x1="27.755" y1="11.3174" x2="30.9512" y2="8.12122" gradientUnits="userSpaceOnUse">
<stop stop-color="#F30072"/>
<stop offset="1" stop-color="#E50097"/>
</linearGradient>
</defs>
</svg>
