<svg width="38" height="38" viewBox="0 0 38 38" fill="none" xmlns="http://www.w3.org/2000/svg">
<path d="M18.8123 0.146484C8.53682 0.146484 0.207031 8.47627 0.207031 18.7518C0.207031 29.0272 8.53682 37.357 18.8123 37.357C29.0878 37.357 37.4176 29.0272 37.4176 18.7518C37.4176 8.47627 29.0878 0.146484 18.8123 0.146484Z" fill="#006699"/>
<path d="M13.1024 15.287H8.81494V29.0715H13.1024V15.287Z" fill="white"/>
<path d="M10.9588 13.4026C9.58619 13.4026 8.47607 12.2896 8.47607 10.919C8.47607 9.54714 9.58619 8.43372 10.9588 8.43372C12.3286 8.43372 13.4416 9.54672 13.4416 10.919C13.4416 12.2896 12.3282 13.4026 10.9588 13.4026Z" fill="white"/>
<path d="M29.1483 29.0698H24.8662V22.3665C24.8662 20.7677 24.8385 18.7116 22.6398 18.7116C20.4105 18.7116 20.0702 20.4543 20.0702 22.2516V29.0698H15.7881V15.2858H19.8974V17.1707H19.9557C20.5275 16.0866 21.9253 14.9443 24.0091 14.9443C28.3475 14.9443 29.1483 17.7983 29.1483 21.5099V29.0698Z" fill="white"/>
</svg>
