<svg width="25" height="24" viewBox="0 0 25 24" fill="none" xmlns="http://www.w3.org/2000/svg">
<path d="M12.5 13C14.1569 13 15.5 11.6569 15.5 10C15.5 8.34315 14.1569 7 12.5 7C10.8431 7 9.5 8.34315 9.5 10C9.5 11.6569 10.8431 13 12.5 13Z" stroke="url(#paint0_linear_359_5)" stroke-width="2" stroke-linecap="round" stroke-linejoin="round"/>
<path d="M12.5 2C10.3783 2 8.34344 2.84285 6.84315 4.34315C5.34285 5.84344 4.5 7.87827 4.5 10C4.5 11.892 4.902 13.13 6 14.5L12.5 22L19 14.5C20.098 13.13 20.5 11.892 20.5 10C20.5 7.87827 19.6571 5.84344 18.1569 4.34315C16.6566 2.84285 14.6217 2 12.5 2Z" stroke="#4D4D4D" stroke-width="2" stroke-linecap="round" stroke-linejoin="round"/>
<defs>
<linearGradient id="paint0_linear_359_5" x1="9.5" y1="10" x2="15.5" y2="10" gradientUnits="userSpaceOnUse">
<stop stop-color="#10733E"/>
<stop offset="1" stop-color="#47A070"/>
</linearGradient>
</defs>
</svg>
