<svg width="25" height="24" viewBox="0 0 25 24" fill="none" xmlns="http://www.w3.org/2000/svg">
<path d="M16 1.5C16.3978 1.5 16.7794 1.65804 17.0607 1.93934C17.342 2.22064 17.5 2.60218 17.5 3V21C17.5 21.3978 17.342 21.7794 17.0607 22.0607C16.7794 22.342 16.3978 22.5 16 22.5H7C6.60218 22.5 6.22064 22.342 5.93934 22.0607C5.65804 21.7794 5.5 21.3978 5.5 21V3C5.5 2.60218 5.65804 2.22064 5.93934 1.93934C6.22064 1.65804 6.60218 1.5 7 1.5H16ZM7 0C6.20435 0 5.44129 0.316071 4.87868 0.87868C4.31607 1.44129 4 2.20435 4 3V21C4 21.7956 4.31607 22.5587 4.87868 23.1213C5.44129 23.6839 6.20435 24 7 24H16C16.7956 24 17.5587 23.6839 18.1213 23.1213C18.6839 22.5587 19 21.7956 19 21V3C19 2.20435 18.6839 1.44129 18.1213 0.87868C17.5587 0.316071 16.7956 0 16 0L7 0Z" fill="#4D4D4D"/>
<path d="M11.5 21C11.8978 21 12.2794 20.842 12.5607 20.5607C12.842 20.2794 13 19.8978 13 19.5C13 19.1022 12.842 18.7206 12.5607 18.4393C12.2794 18.158 11.8978 18 11.5 18C11.1022 18 10.7206 18.158 10.4393 18.4393C10.158 18.7206 10 19.1022 10 19.5C10 19.8978 10.158 20.2794 10.4393 20.5607C10.7206 20.842 11.1022 21 11.5 21Z" fill="url(#paint0_linear_359_25)"/>
<defs>
<linearGradient id="paint0_linear_359_25" x1="10" y1="19.5" x2="13" y2="19.5" gradientUnits="userSpaceOnUse">
<stop stop-color="#10733E"/>
<stop offset="1" stop-color="#47A070"/>
</linearGradient>
</defs>
</svg>
