<svg width="38" height="27" viewBox="0 0 38 27" fill="none" xmlns="http://www.w3.org/2000/svg">
<path d="M36.5735 4.79555C36.1456 3.19467 34.8845 1.93365 33.2836 1.50573C30.3821 0.728027 18.7459 0.728027 18.7459 0.728027C18.7459 0.728027 7.10975 0.728027 4.20815 1.50573C2.60727 1.93365 1.34625 3.19467 0.918326 4.79555C0.140625 7.69715 0.140625 13.7517 0.140625 13.7517C0.140625 13.7517 0.140625 19.8063 0.918326 22.7079C1.34625 24.3088 2.60727 25.5698 4.20815 25.9977C7.10975 26.7754 18.7459 26.7754 18.7459 26.7754C18.7459 26.7754 30.3821 26.7754 33.2836 25.9977C34.8845 25.5698 36.1456 24.3088 36.5735 22.7079C37.3512 19.8063 37.3512 13.7517 37.3512 13.7517C37.3512 13.7517 37.3512 7.69715 36.5735 4.79555Z" fill="#FF0000"/>
<path d="M15.0249 19.3333L24.6914 13.7517L15.0249 8.17017V19.3333Z" fill="white"/>
</svg>
