<svg width="55" height="44" viewBox="0 0 55 44" fill="none" xmlns="http://www.w3.org/2000/svg">
<g clip-path="url(#clip0_395_12)">
<path d="M40.4145 19.1564L31.6024 17.9591L27.6521 10.1768L23.7018 17.9591L14.8896 19.1564L21.2709 25.1427L19.7515 33.823L27.6521 29.9319L35.5526 33.823L34.0333 25.1427L40.4145 19.1564Z" fill="white"/>
<path d="M16.105 40.4082C16.105 38.0136 13.674 35.619 13.0663 35.3197C12.4586 38.0136 12.7624 39.5102 13.3702 40.4082C12.4586 39.8095 11.8508 39.2109 10.9392 38.3129C11.2431 38.3129 11.547 38.0136 11.8508 37.415C12.7624 35.0204 10.9392 32.3265 10.3315 31.7279C9.11602 34.1225 9.11602 35.619 9.41989 36.517C8.81215 35.619 8.20442 34.7211 7.59668 33.5238C7.90055 33.5238 8.50829 33.5238 9.11602 32.9252C10.3315 30.8299 9.41989 27.8367 9.11602 26.9388C7.29282 29.034 6.68508 30.5306 6.68508 31.4286C6.07735 30.5306 5.77348 29.034 5.46961 27.8367C5.77348 28.1361 6.38122 28.1361 6.98895 27.5374C8.81215 26.0408 9.11602 22.7483 8.81215 21.8503C6.38122 23.3469 5.46961 24.5442 5.16575 25.7415C5.16575 24.8435 4.86188 24.2449 4.86188 23.3469C4.86188 22.7483 4.86188 22.1497 5.16575 21.551C5.46961 21.8503 5.77348 21.8503 6.68508 21.8503C8.81215 20.9524 10.0276 17.6599 10.0276 17.0612C6.98895 17.6599 5.77348 18.5578 5.16575 19.4558C5.46961 18.2585 5.46961 17.0612 5.77348 16.1633C6.07735 16.4626 6.38122 16.4626 7.29282 16.4626C9.72376 16.1633 11.547 13.1701 11.547 12.2721C8.50829 12.2721 7.29282 12.8707 6.38121 13.7687C6.68508 12.5714 7.29282 11.6735 7.59668 10.4762C7.90055 10.7755 8.20442 11.0748 8.81215 11.0748C10.9392 11.0748 13.0663 8.97959 13.674 8.38095C11.2431 8.08163 9.72376 8.38095 8.81215 8.97959C9.41989 8.08163 10.0276 7.48299 10.6354 6.58503C10.6354 6.88435 10.9392 6.88435 11.547 7.18367C13.3702 7.18367 15.1934 5.38776 15.4972 4.78912C13.9779 4.4898 12.7624 4.4898 12.1547 4.4898C12.4586 4.19048 12.7624 3.89116 13.0663 3.59184C13.3702 3.59184 13.674 3.59184 13.9779 3.59184C15.4972 2.9932 16.4088 0.598639 16.4088 0C11.8508 1.19728 12.7624 3.59184 12.7624 3.59184C12.1547 4.19048 11.547 4.78912 10.9392 5.08844C11.2431 3.29252 10.0276 1.4966 9.41989 0.897959C7.59668 5.38776 9.72376 6.28571 9.72376 6.28571H10.0276C9.41989 7.18367 8.81215 8.08163 8.20442 8.97959C8.50829 6.88435 6.98895 4.78912 6.38121 4.4898C3.95028 9.27891 6.98895 10.4762 6.98895 10.4762C7.29282 10.4762 7.29282 10.4762 7.59668 10.4762C6.98895 11.6735 6.38122 12.8707 6.07735 14.068C5.77348 11.9728 3.64641 10.1769 3.03867 9.57823C1.51934 15.5646 4.86188 16.1633 4.86188 16.1633C5.16575 16.1633 5.16575 16.1633 5.46961 15.8639C5.16575 17.0612 4.86188 18.2585 4.86188 19.4558C4.25414 17.3605 1.8232 15.8639 1.21547 15.8639C0.911602 21.8503 4.25414 21.8503 4.25414 21.8503C4.55801 21.8503 4.55801 21.8503 4.55801 21.551C4.55801 22.1497 4.55801 22.7483 4.55801 23.0476C4.55801 23.9456 4.86188 24.8435 4.86188 25.7415C3.34254 24.2449 0.607735 23.6463 0 23.6463C1.51934 29.3333 4.86188 28.4354 4.86188 28.4354L5.16575 28.1361C5.46961 29.6327 6.07735 31.1293 6.38121 32.3265C4.55801 31.1293 1.8232 31.1293 0.911602 31.4286C4.25414 36.2177 6.98895 34.4218 6.98895 34.4218C6.98895 34.4218 6.98895 34.4218 6.98895 34.1224C7.59668 35.3197 8.50829 36.517 9.41989 37.415C7.29282 36.517 4.55801 37.415 3.64641 37.7143C8.20442 41.6054 10.3315 39.2109 10.3315 39.2109C10.3315 38.9116 10.3315 38.9116 10.3315 38.6122C11.2431 39.5102 12.4586 40.4082 13.3702 41.0068C11.2431 40.7075 8.81215 42.5034 8.20442 43.102C13.9779 45.4966 15.1934 42.5034 15.1934 42.5034C15.1934 42.2041 15.1934 42.2041 15.1934 41.9048C17.0166 42.8027 18.5359 43.102 18.5359 43.102V42.8027C18.5359 42.8027 17.0166 42.5034 15.1934 41.6054C15.8011 41.6054 16.105 41.3061 16.105 40.4082Z" fill="white"/>
<path d="M48.6189 32.3265C49.2266 31.1293 49.5305 29.6327 49.8343 28.1361L50.1382 28.4354C50.1382 28.4354 53.4808 29.3333 55.0001 23.6463C54.3924 23.6463 51.6575 24.2449 50.1382 26.0408C50.1382 25.1429 50.4421 24.2449 50.4421 23.3469C50.4421 22.7483 50.4421 22.1497 50.4421 21.8503L50.7459 22.1497C50.7459 22.1497 54.0885 22.1497 53.7846 16.1633C53.1769 16.4626 50.7459 17.9592 50.1382 19.7551C49.8343 18.5578 49.8343 17.3605 49.5305 16.1633C49.8343 16.1633 49.8343 16.4626 50.1382 16.4626C50.1382 16.4626 53.4808 15.8639 51.9614 9.87755C51.3537 10.1769 49.2266 12.2721 48.9227 14.3673C48.6189 13.1701 48.0111 11.9728 47.4034 10.7755C47.7073 10.7755 47.7073 10.7755 48.0111 10.7755C48.0111 10.7755 50.7459 9.57823 48.315 4.4898C47.7073 5.08844 46.4918 7.18367 46.4918 8.97959C45.8841 8.08163 45.2763 7.18367 44.6686 6.28571H44.9725C44.9725 6.28571 47.4034 5.38775 45.2763 1.19728C44.6686 1.4966 43.4531 3.59184 43.757 5.38775C43.1493 4.78912 42.8454 4.19048 42.2377 3.59184C42.2377 3.59184 42.8454 1.19728 38.5913 0C38.5913 0.598639 39.199 2.9932 41.0222 3.89116C41.6299 4.19048 41.9338 3.89116 41.9338 3.89116C42.2377 4.19048 42.5415 4.4898 42.8454 4.78912C42.2377 4.4898 41.0222 4.4898 39.5029 4.78912C39.8067 5.38775 41.6299 7.18367 43.4531 7.18367C44.0609 7.18367 44.3647 6.88435 44.3647 6.58503C44.9725 7.48299 45.5802 8.08163 46.1879 8.97959C45.2763 8.38095 43.757 8.08163 41.3261 8.68027C41.6299 9.27891 43.757 11.3741 46.1879 11.3741C46.7957 11.3741 47.0995 11.0748 47.4034 10.7755C48.0111 11.6735 48.315 12.8707 48.6189 14.068C47.7073 13.1701 46.4918 12.5714 43.4531 12.5714C43.757 13.4694 45.2763 16.1633 47.7073 16.7619C48.315 16.7619 48.9227 16.7619 48.9227 16.4626C49.2266 17.6599 49.2266 18.5578 49.5305 19.7551C48.9227 18.8571 47.7073 17.6599 44.6686 17.3605C44.6686 18.2585 45.8841 21.2517 48.315 22.1497C49.2266 22.449 49.5305 22.1497 49.8343 21.8503C49.8343 22.449 49.8343 23.0476 50.1382 23.6463C50.1382 24.5442 49.8343 25.1429 49.8343 26.0408C49.5305 24.8435 48.6189 23.6463 46.1879 22.1497C45.8841 23.0476 46.1879 26.3401 48.0111 27.8367C48.6189 28.4354 49.2266 28.1361 49.5305 28.1361C49.2266 29.6327 48.9227 30.8299 48.315 32.0272C48.315 30.8299 47.7073 29.3333 45.8841 27.5374C45.5802 28.1361 44.3647 31.4286 45.8841 33.5238C46.4918 34.1224 46.7957 34.4218 47.4034 34.1224C46.7957 35.3197 46.1879 36.2177 45.5802 37.1156C45.8841 35.9184 45.5802 34.4218 44.3647 32.3265C43.757 32.9252 41.9338 35.619 42.8454 38.0136C43.1493 38.6122 43.4531 38.9116 43.757 38.9116C42.8454 39.8095 42.2377 40.4082 41.3261 41.0068C41.9338 40.1088 42.2377 38.6122 41.6299 35.9184C41.0222 36.2177 38.2874 38.6122 38.5913 41.0068C38.5913 41.9048 38.8951 42.2041 39.199 42.2041C37.3758 43.102 35.8564 43.4014 35.8564 43.4014V43.7007C35.8564 43.7007 37.3758 43.4014 39.199 42.5034C39.199 42.8027 39.199 42.8027 39.199 43.102C39.199 43.102 40.4145 46.0952 45.8841 43.7007C45.2763 43.102 43.1493 41.6054 40.7183 41.6054C41.6299 41.0068 42.5415 40.1088 43.757 39.2109C43.757 39.5102 43.757 39.5102 43.757 39.8095C43.757 39.8095 45.8841 42.2041 50.4421 38.3129C49.8343 38.0136 46.7957 37.1156 44.6686 38.0136C45.5802 37.1156 46.1879 35.9184 47.0995 34.7211V35.0204C47.0995 35.0204 49.8343 37.1156 53.1769 32.0272C53.4808 31.1292 50.4421 31.1293 48.6189 32.3265Z" fill="white"/>
</g>
<defs>
<clipPath id="clip0_395_12">
<rect width="55" height="44" fill="white"/>
</clipPath>
</defs>
</svg>
