<svg width="54" height="46" viewBox="0 0 54 46" fill="none" xmlns="http://www.w3.org/2000/svg">
<path d="M26.9939 21.8396C25.048 21.8396 23.4654 20.257 23.4654 18.3111V16.633C23.4654 14.6877 25.048 13.1045 26.9939 13.1045C28.9393 13.1045 30.5225 14.6871 30.5225 16.633V18.3111C30.5225 20.2564 28.9393 21.8396 26.9939 21.8396ZM29.337 16.633C29.337 15.3409 28.2861 14.29 26.9939 14.29C25.7023 14.29 24.6508 15.3409 24.6508 16.633V18.3111C24.6508 19.6032 25.7018 20.6542 26.9939 20.6542C28.2861 20.6542 29.337 19.6032 29.337 18.3111V16.633Z" fill="white"/>
<path d="M14.0714 18.3111V16.633C14.0714 14.6877 15.654 13.1045 17.5994 13.1045C19.5447 13.1045 21.1279 14.6871 21.1279 16.633V18.3111C21.1279 20.2564 19.5447 21.8396 17.5994 21.8396C15.654 21.8396 14.0714 20.2564 14.0714 18.3111ZM19.9425 18.3111V16.633C19.9425 15.3409 18.8915 14.29 17.5994 14.29C16.3072 14.29 15.2569 15.3409 15.2569 16.633V18.3111C15.2569 19.6032 16.3072 20.6542 17.5994 20.6542C18.8915 20.6542 19.9425 19.6032 19.9425 18.3111Z" fill="white"/>
<path d="M39.917 16.633V18.3111C39.917 20.2564 38.3344 21.8396 36.3884 21.8396C34.4425 21.8396 32.8599 20.257 32.8599 18.3111V16.633C32.8599 14.6877 34.4425 13.1045 36.3884 13.1045C38.3344 13.1045 39.917 14.6877 39.917 16.633ZM34.0454 16.633V18.3111C34.0454 19.6032 35.0963 20.6542 36.3884 20.6542C37.6806 20.6542 38.7315 19.6032 38.7315 18.3111V16.633C38.7315 15.3409 37.6806 14.29 36.3884 14.29C35.0963 14.29 34.0454 15.3409 34.0454 16.633Z" fill="white"/>
<path d="M20.9218 32.8642V27.2481C20.9218 27.059 20.9366 26.8734 20.9591 26.6903C20.9656 26.6381 20.9745 26.5866 20.9828 26.535C21.0048 26.3945 21.0326 26.257 21.067 26.1213C21.0788 26.075 21.0895 26.0288 21.1026 25.9832C21.2081 25.6133 21.3586 25.263 21.5483 24.9376C21.553 24.9293 21.5566 24.9198 21.5613 24.9115C20.9135 24.2115 20.0196 23.8173 19.0547 23.8173H16.1449C14.2529 23.8173 12.7136 25.3572 12.7136 27.2486V28.7103C12.7136 29.0381 12.4486 29.3031 12.1208 29.3031C11.7931 29.3031 11.5281 29.0381 11.5281 28.7103V27.2486C11.5281 24.7029 13.5991 22.6318 16.1449 22.6318H19.0547C20.2698 22.6318 21.4321 23.1262 22.2904 23.9726C23.125 23.1446 24.2731 22.6318 25.5392 22.6318H28.4489C29.715 22.6318 30.8625 23.1446 31.6977 23.9726C32.556 23.1268 33.7183 22.6318 34.9334 22.6318H37.8432C40.3889 22.6318 42.46 24.7029 42.46 27.2486V28.7103C42.46 29.0381 42.1944 29.3031 41.8672 29.3031C41.54 29.3031 41.2745 29.0381 41.2745 28.7103V27.2486C41.2745 25.3572 39.7352 23.8173 37.8432 23.8173H34.9334C33.9679 23.8173 33.074 24.2115 32.4262 24.9115C32.4315 24.921 32.4356 24.9311 32.441 24.9405C32.6289 25.2648 32.7788 25.6127 32.8843 25.9802C32.898 26.0282 32.9098 26.0768 32.9217 26.126C32.9555 26.26 32.9827 26.3957 33.0047 26.5338C33.013 26.5866 33.0224 26.6387 33.029 26.6921C33.0509 26.8752 33.0663 27.0602 33.0663 27.2492V32.8654C33.0663 33.1932 32.8008 33.4581 32.4736 33.4581C32.1464 33.4581 31.8808 33.1932 31.8808 32.8654V27.2492C31.8808 27.0856 31.8654 26.9238 31.8423 26.7638C31.8376 26.73 31.8328 26.6962 31.8269 26.6624C31.799 26.5036 31.7629 26.3465 31.7131 26.1936C31.7101 26.1841 31.706 26.1752 31.703 26.1657C31.6497 26.0069 31.5851 25.8516 31.508 25.701C31.505 25.6945 31.5021 25.6886 31.4991 25.682C31.4185 25.5268 31.3249 25.3762 31.2199 25.2322C30.5952 24.3768 29.5881 23.8173 28.4501 23.8173H25.5404C24.4047 23.8173 23.3994 24.3745 22.7741 25.2268C22.6662 25.3738 22.5713 25.5273 22.489 25.6862C22.4878 25.688 22.4872 25.6903 22.486 25.6921C22.406 25.8474 22.339 26.0081 22.2839 26.1728C22.2821 26.1788 22.2791 26.1847 22.2774 26.1906C22.227 26.3447 22.1902 26.5036 22.1624 26.6636C22.1564 26.6962 22.1523 26.7288 22.1475 26.762C22.1244 26.9226 22.109 27.0845 22.109 27.2486V32.8648C22.109 33.1926 21.8441 33.4575 21.5163 33.4575C21.1885 33.4575 20.9218 33.192 20.9218 32.8642Z" fill="white"/>
<path d="M27.0301 42.4563C37.7752 42.4563 46.5168 33.7146 46.5168 22.9695C46.5168 18.428 44.936 14.0542 42.0482 10.563L40.6529 12.9713C40.5468 13.1545 40.3512 13.2671 40.1402 13.2671C39.9321 13.2499 39.7324 13.1539 39.6263 12.9701L32.7642 1.04134C32.6587 0.857593 32.6587 0.631761 32.7648 0.448607C32.8709 0.265452 33.0659 0.152832 33.2775 0.152832L47.0408 0.172985C47.2524 0.172985 47.448 0.286197 47.5535 0.469945C47.659 0.653693 47.659 0.879525 47.5529 1.06268L45.8245 4.04532C50.8373 9.02666 53.7031 15.8965 53.7031 22.9695C53.7031 23.2967 53.4376 23.5623 53.1104 23.5623C52.7832 23.5623 52.5177 23.2967 52.5177 22.9695C52.5177 16.0624 49.6571 9.3574 44.6699 4.57522C44.4725 4.38614 44.4304 4.08681 44.5673 3.85031L46.0124 1.35668L34.3041 1.34008L40.1425 11.4883L41.4406 9.24834C41.5355 9.08415 41.7032 8.97568 41.8923 8.95612C42.0814 8.93893 42.2675 9.00828 42.3943 9.14935C45.8168 12.9529 47.7023 17.8614 47.7023 22.9695C47.7023 34.3678 38.4284 43.6418 27.0301 43.6418C26.7029 43.6418 26.4373 43.3768 26.4373 43.049C26.4373 42.7212 26.7029 42.4563 27.0301 42.4563Z" fill="white"/>
<path d="M8.23589 41.8938C3.22373 36.9125 0.357265 30.0433 0.357265 22.9696C0.357265 22.6424 0.622217 22.3768 0.949999 22.3768C1.27778 22.3768 1.54273 22.6424 1.54273 22.9696C1.54273 29.8773 4.40327 36.5817 9.39054 41.3639C9.58732 41.553 9.63 41.8523 9.49308 42.0888L8.04799 44.5824L19.7569 44.599L13.9184 34.4508L12.6203 36.6908C12.5255 36.855 12.3578 36.964 12.1687 36.983C11.9826 37.002 11.7935 36.9308 11.6666 36.7904C8.2436 32.9862 6.35811 28.0783 6.35811 22.9696C6.35811 11.5707 15.632 2.29736 27.0303 2.29736C27.3575 2.29736 27.623 2.56291 27.623 2.8901C27.623 3.21729 27.3575 3.48283 27.0303 3.48283C16.2852 3.48283 7.54358 12.2251 7.54358 22.9696C7.54358 27.5111 9.1244 31.8855 12.0116 35.3767L13.4069 32.9684C13.513 32.7852 13.7086 32.6726 13.9196 32.6726C13.9202 32.6726 13.9202 32.6726 13.9208 32.6726C14.1318 32.6732 14.328 32.7858 14.4335 32.9696L21.2962 44.8972C21.4017 45.0809 21.4011 45.3068 21.295 45.4899C21.1889 45.6731 20.9933 45.7857 20.7823 45.7857L7.0196 45.7667C6.80799 45.7661 6.6118 45.6535 6.50629 45.4698C6.40078 45.286 6.40138 45.0602 6.50748 44.877L8.23589 41.8938Z" fill="white"/>
</svg>
