<svg width="54" height="54" viewBox="0 0 54 54" fill="none" xmlns="http://www.w3.org/2000/svg">
<path d="M34.3977 29.1895L31.8134 28.7544C31.0992 28.6341 30.5805 28.0769 30.5805 27.4154L30.5704 26.9982C31.7144 25.8797 32.453 24.3688 32.5911 22.7198C32.5911 22.718 32.5905 22.7168 32.5905 22.7151C32.5905 22.7127 32.5923 22.7109 32.5923 22.7085L32.7867 19.6886C33.8809 18.0058 34.2365 16.4902 33.8311 15.1844C33.4559 13.9776 32.4393 12.9693 30.8052 12.1804C30.932 12.1057 31.0956 12.0198 31.3048 11.9231C31.5224 11.8236 31.6587 11.6025 31.6498 11.3636C31.6415 11.1247 31.4898 10.9143 31.2663 10.8301C28.2297 9.68912 24.3663 9.83019 22.463 12.6641C21.4459 13.0642 20.7062 13.811 20.3671 14.7849C19.8852 16.1695 20.2409 17.9038 21.3564 19.682L21.5401 22.721C21.6788 24.3753 22.4221 25.8897 23.5714 27.0094L23.5614 27.4314C23.5614 28.0787 23.0427 28.6353 22.3285 28.7556L19.7442 29.1907C18.759 29.3561 17.9002 29.912 17.3869 30.7158C17.0674 31.2161 16.8984 31.7892 16.8984 32.3731V43.2835C16.8984 43.6113 17.164 43.8763 17.4912 43.8763H36.6501C36.9779 43.8763 37.2429 43.6113 37.2429 43.2835V32.3719C37.2429 30.8059 36.0461 29.4675 34.3977 29.1895ZM21.4856 15.1731C21.7269 14.4796 22.2645 13.9752 23.0415 13.7132C23.1725 13.6687 23.2834 13.5804 23.3563 13.4637C24.2946 11.948 25.9459 11.3434 27.6975 11.3434C28.34 11.3434 28.995 11.4247 29.6345 11.5722C29.4093 11.785 29.2735 12.0061 29.2161 12.2462C29.1473 12.5331 29.3002 12.8265 29.5741 12.9355C31.3268 13.629 32.3777 14.5039 32.6984 15.5359C32.8786 16.1161 32.8371 16.7788 32.5763 17.5186C32.5146 17.4071 32.4382 17.3093 32.3445 17.2269C32.1181 17.0272 31.8223 16.9489 31.5236 17.0047C30.4288 17.176 29.2208 17.2577 27.8142 16.7201C26.2091 16.048 24.1891 15.3871 22.8104 16.2465C22.2965 16.5672 21.9195 17.0544 21.6741 17.7195C21.306 16.764 21.2367 15.8891 21.4856 15.1731ZM22.7215 22.6344L22.5324 19.5084C22.6059 18.3413 22.9099 17.582 23.4381 17.2524C24.3669 16.6733 26.119 17.2957 27.3738 17.8203C28.9938 18.4403 30.3968 18.3691 31.5799 18.1949C31.6226 18.3537 31.6575 18.7016 31.6125 19.4633V19.4639L31.4092 22.625C31.226 24.7914 29.7869 26.6692 27.7419 27.4077C27.5238 27.4866 27.2962 27.5263 27.0656 27.5263C26.8344 27.5263 26.6068 27.4866 26.3887 27.4077C24.342 26.6686 22.9022 24.789 22.7215 22.6344ZM24.7018 27.8961C25.1019 28.1469 25.5316 28.3585 25.9862 28.5227C26.3336 28.6483 26.6969 28.7117 27.0656 28.7117C27.4343 28.7117 27.797 28.6483 28.145 28.5227C28.6038 28.3567 29.037 28.1433 29.4407 27.8896C29.5776 28.5908 30.0251 29.193 30.6534 29.5665L27.0656 33.2367L23.4819 29.5712C24.1144 29.1978 24.5649 28.5944 24.7018 27.8961ZM36.0574 42.6896H32.2242V38.8161C32.2242 38.4883 31.9592 38.2234 31.6314 38.2234C31.3037 38.2234 31.0387 38.4883 31.0387 38.8161V42.6896H23.1026V38.8161C23.1026 38.4883 22.837 38.2234 22.5099 38.2234C22.1827 38.2234 21.9171 38.4883 21.9171 38.8161V42.6896H18.0839V32.3719C18.0839 32.0139 18.1882 31.6618 18.3856 31.3524C18.7187 30.8308 19.2854 30.4686 19.9403 30.3584L22.2194 29.9743L26.6418 34.498C26.7532 34.6118 26.9062 34.6764 27.0656 34.6764C27.2251 34.6764 27.378 34.6124 27.4894 34.498L31.9124 29.9725L34.2009 30.3578C35.2762 30.5391 36.0574 31.385 36.0574 32.3707V42.6896Z" fill="white"/>
<path d="M51.1419 26.701L48.9351 26.3293C48.3673 26.2339 47.9553 25.7941 47.9553 25.2701L47.9476 24.95C48.0158 24.8824 48.0733 24.8048 48.1385 24.7343H50.8236C51.6931 24.7343 52.4002 24.0271 52.4002 23.1576V17.0287C52.4002 13.4035 49.0234 10.4541 44.8725 10.4541C40.7216 10.4541 37.3448 13.4035 37.3448 17.0287V23.1576C37.3448 24.0265 38.0519 24.7343 38.9215 24.7343H41.5977C41.6658 24.8083 41.7257 24.8896 41.7974 24.9607L41.7897 25.2849C41.7897 25.7947 41.3777 26.2345 40.8099 26.3299L38.6037 26.7015C37.8747 26.8242 37.2191 27.1917 36.7592 27.7359C36.5481 27.9854 36.579 28.36 36.8291 28.571C36.9405 28.6653 37.0763 28.7109 37.2114 28.7109C37.3798 28.7109 37.5469 28.6398 37.6649 28.5011C37.944 28.1709 38.3477 27.9469 38.8011 27.871L40.7014 27.5509L44.4446 31.3806C44.556 31.4944 44.7083 31.559 44.8684 31.559C45.0284 31.559 45.1807 31.495 45.2922 31.3806L49.0365 27.5497L50.9457 27.871C51.8211 28.018 52.4571 28.7044 52.4571 29.5028V38.2237H49.3583V35.004C49.3583 34.6762 49.0934 34.4112 48.7656 34.4112C48.4378 34.4112 48.1729 34.6762 48.1729 35.004V38.2237H41.5722V35.004C41.5722 34.6762 41.3072 34.4112 40.9794 34.4112C40.6516 34.4112 40.3867 34.6762 40.3867 35.004V38.2237H39.0963C38.7685 38.2237 38.5036 38.4887 38.5036 38.8164C38.5036 39.1442 38.7685 39.4092 39.0963 39.4092H53.0499C53.3777 39.4092 53.6426 39.1442 53.6426 38.8164V29.5028C53.6426 28.1235 52.5911 26.9452 51.1419 26.701ZM45.416 25.1841C45.24 25.2476 45.0557 25.2802 44.8678 25.2802C44.6799 25.2802 44.4961 25.2476 44.3195 25.1841C42.6041 24.5647 41.3973 22.9892 41.2462 21.1856L41.0909 18.6131C41.6617 17.1484 42.8999 17.2468 45.0088 17.5509C46.1925 17.7222 47.4965 17.9066 48.6245 17.5391L48.4894 21.1773C48.3353 22.9928 47.129 24.5653 45.416 25.1841ZM38.9215 23.5488C38.7057 23.5488 38.5302 23.3733 38.5302 23.1576V17.0287C38.5302 14.0567 41.3754 11.6396 44.8725 11.6396C48.3696 11.6396 51.2148 14.0573 51.2148 17.0287V23.1576C51.2148 23.3733 51.0393 23.5488 50.8236 23.5488H48.9873C49.3607 22.8541 49.6031 22.0836 49.6713 21.2709C49.6719 21.2662 49.6695 21.262 49.6695 21.2573C49.6695 21.2525 49.6725 21.2484 49.6731 21.2431L49.8467 16.5753C49.8479 16.5474 49.8367 16.5225 49.8337 16.4953C49.8295 16.4538 49.8266 16.4129 49.8135 16.3726C49.8005 16.3317 49.7786 16.2967 49.7572 16.2599C49.7436 16.2368 49.7389 16.2101 49.7217 16.1882C49.7163 16.1817 49.7086 16.1787 49.7033 16.1722C49.676 16.1396 49.6416 16.1159 49.6079 16.0904C49.5794 16.0685 49.5539 16.0442 49.5225 16.0282C49.4923 16.0128 49.4579 16.0062 49.4247 15.9962C49.3832 15.9837 49.3435 15.9695 49.3002 15.9659C49.2919 15.9653 49.2848 15.9606 49.2765 15.96C49.2481 15.9588 49.2232 15.9701 49.1959 15.9731C49.155 15.9772 49.1153 15.9796 49.0756 15.9926C49.0371 16.0051 49.0039 16.0258 48.9689 16.046C48.9428 16.0608 48.9144 16.0667 48.8901 16.0851C47.9938 16.7839 46.627 16.5865 45.179 16.3767C43.2449 16.0981 40.8366 15.7496 39.9344 18.3161C39.9338 18.3173 39.9338 18.3179 39.9333 18.3191C39.9285 18.3333 39.9309 18.3475 39.9273 18.3618C39.9107 18.4222 39.8971 18.4845 39.9007 18.5509V18.552L40.0648 21.2691C40.133 22.0818 40.3754 22.8523 40.7489 23.547H38.9215V23.5488ZM44.8678 30.1175L41.9438 27.1265C42.4245 26.813 42.7695 26.3447 42.9052 25.8041C43.2253 25.9962 43.5584 26.1699 43.917 26.2997C44.2235 26.4099 44.5429 26.4656 44.8678 26.4656C45.1932 26.4656 45.5133 26.4099 45.8185 26.2991C46.1807 26.1681 46.5168 25.992 46.8398 25.7976C46.9749 26.3406 47.3175 26.8082 47.7953 27.1224L44.8678 30.1175Z" fill="white"/>
<path d="M17.4239 28.685C17.6996 28.5089 17.7808 28.1426 17.6047 27.8664C17.1495 27.1528 16.3872 26.659 15.5136 26.512L13.2801 26.1356C12.7016 26.0384 12.282 25.5903 12.2814 25.0563L12.2731 24.7291C13.2606 23.7517 13.8983 22.4393 14.0181 21.0067C14.0181 21.0049 14.0175 21.0032 14.0175 21.0008C14.0175 20.9984 14.0187 20.9972 14.0193 20.9949L14.1858 18.4046C15.1354 16.937 15.443 15.6105 15.0862 14.4635C14.7661 13.4333 13.9203 12.5685 12.5671 11.8863C12.6501 11.8418 12.7467 11.7938 12.8599 11.7417C13.0774 11.6421 13.2131 11.421 13.2049 11.1821C13.196 10.9433 13.0448 10.7328 12.8208 10.6487C10.1742 9.65466 6.80628 9.77676 5.13181 12.2431C4.24271 12.6 3.59544 13.2579 3.2973 14.115C2.87468 15.3307 3.18171 16.8463 4.14965 18.3975L4.30732 21.0061C4.42764 22.4435 5.06839 23.7606 6.06181 24.7392L6.0541 25.0699C6.0541 25.5891 5.63445 26.0372 5.05594 26.1345L2.82252 26.5108C1.35905 26.7586 0.296875 27.9482 0.296875 29.3417V38.7698C0.296875 39.0976 0.56242 39.3625 0.889609 39.3625H15.0453C15.3725 39.3625 15.638 39.0976 15.638 38.7698C15.638 38.442 15.3725 38.177 15.0453 38.177H13.7016V34.9105C13.7016 34.5827 13.436 34.3177 13.1088 34.3177C12.7816 34.3177 12.5161 34.5827 12.5161 34.9105V38.177H5.81938V34.9105C5.81938 34.5827 5.55384 34.3177 5.22665 34.3177C4.89946 34.3177 4.63391 34.5827 4.63391 34.9105V38.177H1.48234V29.3417C1.48234 28.5297 2.12902 27.8309 3.0193 27.6809L4.94688 27.3561L8.73919 31.2355C8.85062 31.3493 9.00355 31.4139 9.163 31.4139C9.32244 31.4139 9.47537 31.3499 9.5868 31.2355L13.3803 27.3549L15.3162 27.6809C15.8597 27.7722 16.3297 28.0727 16.6054 28.5042C16.718 28.6814 16.91 28.778 17.1056 28.778C17.2147 28.778 17.3255 28.7478 17.4239 28.685ZM4.41756 14.505C4.61732 13.9301 5.06483 13.511 5.7115 13.2935C5.8425 13.249 5.95334 13.1607 6.02625 13.0439C6.82051 11.7612 8.22114 11.2497 9.7089 11.2497C10.2109 11.2497 10.7231 11.3078 11.2251 11.4145C11.0787 11.5781 10.9868 11.7482 10.9436 11.9319C10.8754 12.2182 11.0283 12.5122 11.3016 12.6201C12.7929 13.2105 13.685 13.949 13.9547 14.8168C14.0922 15.2607 14.0744 15.7646 13.9019 16.3235C13.8652 16.2767 13.8243 16.2328 13.7792 16.1931C13.564 16.004 13.2831 15.9311 13.0051 15.9821C12.0704 16.1279 11.0384 16.1984 9.84286 15.7414C8.43749 15.1529 6.66818 14.5755 5.44477 15.3384C5.03697 15.5927 4.72638 15.9619 4.50944 16.4545C4.26049 15.7237 4.22552 15.0568 4.41756 14.505ZM5.32741 18.225C5.38965 17.2464 5.63978 16.6128 6.07189 16.3431C6.84303 15.8624 8.33139 16.3923 9.40187 16.8404C10.7835 17.3685 11.9826 17.3223 13.0021 17.1794C13.0288 17.3312 13.0454 17.6228 13.0128 18.18V18.1806L12.8374 20.9083C12.6827 22.7505 11.4598 24.3468 9.72135 24.9751C9.54235 25.0397 9.35445 25.0729 9.16418 25.0729C8.97391 25.0729 8.78602 25.0397 8.60701 24.9751C6.86793 24.3468 5.64452 22.7499 5.4916 20.9208L5.32741 18.225ZM9.163 29.973L6.19221 26.9335C6.68418 26.6152 7.03686 26.1368 7.172 25.5844C7.49741 25.7806 7.83705 25.9578 8.20217 26.09C8.51099 26.202 8.83403 26.2589 9.163 26.2589C9.49078 26.2589 9.81382 26.202 10.122 26.0906C10.1226 26.0906 10.1232 26.0906 10.1238 26.0906C10.4931 25.9572 10.8357 25.777 11.1647 25.5785C11.2998 26.1333 11.6507 26.611 12.1385 26.9293L9.163 29.973Z" fill="white"/>
</svg>
