<svg width="49" height="50" viewBox="0 0 49 50" fill="none" xmlns="http://www.w3.org/2000/svg">
<path d="M46.0398 32.5688H27.2955C19.2868 32.5688 12.7715 39.287 12.7715 47.5445V47.5804C12.7715 48.1845 13.2489 48.6742 13.8378 48.6742C14.4267 48.6742 14.9041 48.1845 14.9041 47.5804V47.5445C14.9041 40.4932 20.463 34.7563 27.2955 34.7563H46.0398C46.6287 34.7563 47.1061 34.2667 47.1061 33.6626C47.1061 33.0585 46.6287 32.5688 46.0398 32.5688Z" fill="#4D4D4D"/>
<path d="M46.0392 37.2393H27.3403C21.8093 37.2393 17.3096 41.8783 17.3096 47.5802C17.3096 48.1843 17.787 48.6739 18.3759 48.6739C18.9647 48.6739 19.4421 48.1843 19.4421 47.5802C19.4421 43.0843 22.9852 39.4268 27.3403 39.4268H46.0392C46.6281 39.4268 47.1055 38.9371 47.1055 38.333C47.1055 37.7289 46.6281 37.2393 46.0392 37.2393Z" fill="#4D4D4D"/>
<path d="M46.0398 41.9104H27.7847C24.6794 41.9104 22.074 44.4086 21.8537 47.5976C21.812 48.2001 22.2547 48.7232 22.842 48.7657C22.8676 48.7676 22.8932 48.7686 22.9185 48.7686C23.473 48.7686 23.9412 48.3282 23.9811 47.752C24.1225 45.7029 25.7935 44.0979 27.7847 44.0979H46.0398C46.6287 44.0979 47.1061 43.6082 47.1061 43.0042C47.1061 42.4001 46.6287 41.9104 46.0398 41.9104ZM27.4222 30.0851H46.0398C46.6287 30.0851 47.1061 29.5954 47.1061 28.9914C47.1061 28.3873 46.6287 27.8976 46.0398 27.8976H39.2869V21.6039C39.3091 21.6017 39.3307 21.6023 39.353 21.5992C40.1612 21.4845 41.0203 20.8154 41.9054 19.6098C41.938 19.5651 44.9875 15.317 43.4061 14.0817C43.3031 14.0011 43.1547 13.917 42.9582 13.8754C43.6714 12.5354 44.331 10.7826 43.4061 10.0601C43.3083 9.98356 43.1681 9.90387 42.9854 9.86043C43.6879 8.52731 44.3191 6.81012 43.4064 6.09699C43.2352 5.96293 42.9412 5.81606 42.5052 5.87856C41.8444 5.97199 41.0188 6.56449 40.2657 7.26949C40.2657 7.26824 40.2657 7.26699 40.2657 7.26543C40.2663 7.21199 40.2794 1.92105 38.2897 1.89387C37.1848 1.88574 36.7622 3.44324 36.6203 3.9573C36.3558 4.91137 36.1898 6.12731 36.1758 7.20949C36.1755 7.23137 36.1767 7.25012 36.1767 7.27168C35.4233 6.56637 34.5977 5.97387 33.9366 5.88012C33.5018 5.81762 33.2066 5.9648 33.0351 6.09856C32.1221 6.8123 32.7536 8.52949 33.4561 9.86262C33.2739 9.90606 33.1335 9.98543 33.0354 10.062C32.1105 10.7845 32.77 12.5373 33.4832 13.8773C33.2873 13.9189 33.1384 14.0029 33.0354 14.0836C31.4539 15.3192 34.5047 19.5692 34.5361 19.6117C35.4217 20.817 36.2806 21.4864 37.0888 21.6007C37.111 21.6039 37.1324 21.6032 37.1546 21.6054V27.8973H27.4222H25.3234V21.6036C25.3454 21.6014 25.3667 21.602 25.3889 21.5989C26.1975 21.4845 27.0566 20.8151 27.9416 19.6095C27.9773 19.5607 31.0232 15.317 29.4426 14.0814C29.3397 14.0011 29.191 13.917 28.9948 13.8754C29.7083 12.5354 30.3676 10.7829 29.4426 10.0598C29.3445 9.98324 29.2044 9.90387 29.0219 9.86043C29.7244 8.52731 30.3557 6.81043 29.4426 6.09668C29.2714 5.96293 28.9771 5.81605 28.5415 5.87824C27.8807 5.97168 27.0554 6.56418 26.3023 7.26918C26.3023 7.26793 26.3023 7.26668 26.3023 7.26512C26.3029 7.21168 26.3154 1.92105 24.3263 1.89355C24.3208 1.89355 24.3159 1.89355 24.3105 1.89355C23.2277 1.89355 22.7979 3.44543 22.6562 3.95699C22.3921 4.91074 22.2257 6.12668 22.2117 7.20918C22.2114 7.23106 22.2126 7.2498 22.2126 7.27137C21.4592 6.56605 20.6336 5.97356 19.9725 5.87981C19.5356 5.81668 19.2426 5.96449 19.0713 6.09824C18.1583 6.81199 18.7892 8.52887 19.4921 9.86199C19.3096 9.90543 19.1694 9.98512 19.0717 10.0617C18.1467 10.7842 18.806 12.5367 19.5192 13.8767C19.323 13.9182 19.1746 14.0029 19.0717 14.0836C17.4899 15.3192 20.5413 19.5692 20.5724 19.6117C21.4577 20.817 22.3165 21.4864 23.1251 21.6007C23.1473 21.6039 23.1686 21.6032 23.1906 21.6054V27.8973H22.0563H11.3597V21.6036C11.3816 21.6014 11.4032 21.602 11.4255 21.5989C12.234 21.4845 13.0928 20.8151 13.9782 19.6098C14.0095 19.5673 17.0606 15.3176 15.4789 14.0817C15.3759 14.0014 15.2272 13.9173 15.031 13.8757C15.7442 12.5357 16.4038 10.7829 15.4789 10.0601C15.3808 9.98356 15.2406 9.90418 15.0582 9.86074C15.7607 8.52762 16.3922 6.81012 15.4792 6.09668C15.308 5.96293 15.0131 5.81605 14.578 5.87824C13.9172 5.97168 13.0919 6.56418 12.3385 7.26918C12.3385 7.26793 12.3385 7.26668 12.3385 7.26512C12.3391 7.21168 12.3519 1.92074 10.3626 1.89355C10.3571 1.89355 10.3522 1.89355 10.3467 1.89355C9.26397 1.89355 8.83411 3.44543 8.69245 3.95699C8.42831 4.91074 8.26197 6.12668 8.24796 7.20918C8.24765 7.23106 8.24887 7.2498 8.24887 7.27137C7.49547 6.56605 6.66986 5.97356 6.00876 5.87981C5.57219 5.81668 5.27851 5.96449 5.1076 6.09824C4.19456 6.81199 4.82549 8.52887 5.52832 9.86199C5.34584 9.90543 5.2057 9.98512 5.1079 10.0617C4.18298 10.7842 4.84225 12.5367 5.55544 13.8767C5.35924 13.9182 5.21057 14.0029 5.1079 14.0832C3.52615 15.3189 6.57755 19.5689 6.60862 19.6114C7.49394 20.8167 8.35276 21.4861 9.16131 21.6004C9.18355 21.6036 9.20487 21.6029 9.22681 21.6051V27.897H2.47449C1.88559 27.897 1.4082 28.3867 1.4082 28.9907C1.4082 29.5948 1.88559 30.0845 2.47449 30.0845H18.6716C17.3763 30.7726 16.1662 31.6064 15.0624 32.5679H2.47449C1.88559 32.5679 1.4082 33.0576 1.4082 33.6617C1.4082 34.2657 1.88559 34.7554 2.47449 34.7554H12.9189C12.2666 35.5332 11.671 36.3623 11.1409 37.2386H2.47449C1.88559 37.2386 1.4082 37.7282 1.4082 38.3323C1.4082 38.9364 1.88559 39.4261 2.47449 39.4261H9.99758C9.63961 40.2273 9.32947 41.0554 9.07661 41.9095H2.47449C1.88559 41.9095 1.4082 42.3992 1.4082 43.0032C1.4082 43.6073 1.88559 44.097 2.47449 44.097H8.56358C8.35702 45.2579 8.24339 46.4523 8.24339 47.6739C8.24339 48.2779 8.72078 48.7676 9.30967 48.7676C9.89857 48.7676 10.376 48.2779 10.376 47.6739C10.3757 37.9757 18.0227 30.0851 27.4222 30.0851ZM35.7529 18.672C34.9008 17.5117 34.3622 16.3086 34.1718 15.6217C34.761 15.9982 35.7349 16.8579 36.5828 18.0126C37.5315 19.3045 37.5178 19.9467 37.4056 20.0345C37.3892 20.0473 37.3697 20.0636 37.2972 20.0532C37.0114 20.0129 36.4554 19.6289 35.7529 18.672ZM36.5825 10.0279C37.5312 11.3195 37.5174 11.9617 37.4053 12.0495C37.3898 12.0614 37.3694 12.0779 37.2969 12.0682C37.0111 12.0279 36.4554 11.6436 35.7529 10.6867C34.9008 9.52668 34.3622 8.32324 34.1718 7.63668C34.7603 8.01324 35.7343 8.87293 36.5825 10.0279ZM42.2697 7.63512C42.0793 8.32168 41.5404 9.52481 40.6886 10.6854C39.9861 11.6423 39.4304 12.0264 39.1446 12.0667C39.073 12.0764 39.0514 12.0601 39.0364 12.0482C38.924 11.9604 38.9103 11.3182 39.859 10.0264C40.7069 8.87137 41.6811 8.01137 42.2697 7.63512ZM40.6886 18.6701C39.9861 19.627 39.4304 20.0111 39.1446 20.0514C39.0739 20.0617 39.0514 20.0448 39.0364 20.0329C38.924 19.9451 38.9103 19.3029 39.859 18.0107C40.7069 16.8561 41.6811 15.9961 42.27 15.6198C42.0793 16.3067 41.5407 17.5098 40.6886 18.6701ZM40.6886 14.6486C39.9861 15.6054 39.4304 15.9898 39.1446 16.0301C39.0739 16.0404 39.0514 16.0236 39.0364 16.0117C38.924 15.9239 38.9103 15.2817 39.859 13.9895C40.1768 13.557 40.5122 13.1657 40.8382 12.8257C40.981 12.6986 41.1245 12.5598 41.2692 12.4026C41.6501 12.047 42.001 11.7701 42.2697 11.5982C42.0793 12.2851 41.5407 13.4882 40.6886 14.6486ZM38.7425 7.24512C38.7281 8.35824 38.5377 8.89199 38.4256 9.11074C38.3872 9.18543 38.2882 9.35887 38.1944 9.35887C38.1944 9.35887 38.1938 9.35887 38.1932 9.35887C38.0539 9.35699 37.6777 8.84918 37.6987 7.23012C37.7173 5.78168 38.0067 4.49449 38.2645 3.82918C38.5054 4.50106 38.7613 5.79606 38.7425 7.24512ZM35.1716 12.4039C35.3166 12.5614 35.4607 12.7004 35.6036 12.8279C35.9296 13.1676 36.2647 13.5589 36.5825 13.9914C37.5312 15.2832 37.5174 15.9254 37.4053 16.0132C37.3889 16.0261 37.3694 16.0423 37.2969 16.032C37.0111 15.9917 36.4554 15.6073 35.7529 14.6504C34.9008 13.4901 34.3622 12.287 34.1718 11.6001C34.4405 11.772 34.7911 12.0486 35.1716 12.4039ZM22.619 10.0279C23.5677 11.3198 23.554 11.9617 23.4419 12.0495C23.4264 12.0617 23.405 12.0773 23.3334 12.0682C23.0477 12.0279 22.492 11.6436 21.7895 10.687C20.9377 9.52699 20.3987 8.32355 20.2083 7.63699C20.7969 8.01324 21.7709 8.87293 22.619 10.0279ZM28.306 7.63512C28.1159 8.32199 27.5766 9.52512 26.7248 10.6851C26.022 11.642 25.4666 12.0261 25.1808 12.0664C25.1105 12.0764 25.0879 12.0601 25.0727 12.0476C24.9606 11.9598 24.9469 11.3176 25.8956 10.0257C26.7434 8.87137 27.7174 8.01137 28.306 7.63512ZM26.7248 18.6701C26.022 19.627 25.4666 20.0111 25.1808 20.0514C25.1096 20.062 25.0879 20.0448 25.0727 20.0329C24.9606 19.9451 24.9469 19.3029 25.8956 18.0111C26.7434 16.8564 27.7174 15.9964 28.3066 15.6201C28.1159 16.307 27.5769 17.5101 26.7248 18.6701ZM26.7248 14.6486C26.022 15.6057 25.4666 15.9898 25.1808 16.0301C25.1096 16.0407 25.0879 16.0236 25.0727 16.0117C24.9606 15.9239 24.9469 15.2817 25.8956 13.9898C26.2133 13.557 26.549 13.1654 26.8753 12.8254C27.0176 12.6986 27.1608 12.5604 27.3049 12.4039C27.686 12.0479 28.0373 11.7707 28.3066 11.5989C28.1159 12.2854 27.5769 13.4886 26.7248 14.6486ZM24.4619 9.11043C24.4235 9.18543 24.3245 9.35887 24.2309 9.35887H24.23C24.0905 9.35699 23.7143 8.84887 23.7353 7.23043C23.7542 5.78168 24.0436 4.49449 24.3013 3.82949C24.542 4.50137 24.7979 5.79606 24.7793 7.24512C24.7647 8.35793 24.574 8.89168 24.4619 9.11043ZM21.2091 12.4048C21.3535 12.5617 21.497 12.7004 21.6396 12.8273C21.9659 13.1673 22.3013 13.5586 22.619 13.9911C23.5677 15.2829 23.554 15.9251 23.4419 16.0129C23.4264 16.0251 23.4041 16.0414 23.3337 16.0317C23.048 15.9914 22.4923 15.607 21.7898 14.6501C20.9377 13.4901 20.3987 12.2867 20.2086 11.6001C20.477 11.772 20.828 12.0492 21.2091 12.4048ZM22.619 18.0129C23.5677 19.3048 23.554 19.947 23.4419 20.0348C23.4264 20.047 23.4041 20.0629 23.3337 20.0536C23.048 20.0132 22.4923 19.6289 21.7898 18.672C20.9377 17.512 20.3987 16.3086 20.2086 15.622C20.7969 15.9982 21.7709 16.8579 22.619 18.0129ZM8.65528 10.0279C9.60397 11.3198 9.59026 11.9617 9.47814 12.0495C9.46261 12.0617 9.44159 12.0773 9.36969 12.0682C9.08392 12.0279 8.52824 11.6436 7.82571 10.687C6.9739 9.52699 6.43497 8.32355 6.24456 7.63699C6.83346 8.01324 7.80743 8.87293 8.65528 10.0279ZM14.3425 7.63512C14.1521 8.32168 13.6135 9.52481 12.7614 10.6851C12.0586 11.6423 11.5032 12.0264 11.2174 12.0667C11.1449 12.0767 11.1245 12.0601 11.1093 12.0479C10.9968 11.9601 10.9831 11.3179 11.9318 10.0261C12.7797 8.87137 13.7536 8.01168 14.3425 7.63512ZM12.7614 18.6701C12.0586 19.627 11.5032 20.0114 11.2174 20.0517C11.1452 20.062 11.1245 20.0451 11.1093 20.0332C10.9968 19.9454 10.9831 19.3032 11.9318 18.0114C12.78 16.8564 13.7539 15.9967 14.3428 15.6201C14.1521 16.307 13.6132 17.5101 12.7614 18.6701ZM12.7614 14.6486C12.0586 15.6054 11.5032 15.9898 11.2174 16.0301C11.1452 16.0401 11.1245 16.0236 11.1093 16.0117C10.9968 15.9239 10.9831 15.2817 11.9318 13.9898C12.2496 13.557 12.5853 13.1657 12.9116 12.8257C13.0542 12.6989 13.1976 12.5601 13.3424 12.4032C13.7232 12.0476 14.0741 11.7707 14.3428 11.5989C14.1521 12.2854 13.6132 13.4886 12.7614 14.6486ZM10.4984 9.11043C10.46 9.18543 10.361 9.35887 10.2675 9.35887H10.2666C10.1271 9.35699 9.75081 8.84887 9.77183 7.23043C9.79072 5.78168 10.0801 4.49449 10.3379 3.82949C10.5785 4.50105 10.8345 5.79606 10.8159 7.24481C10.8013 8.35793 10.6105 8.89168 10.4984 9.11043ZM7.24535 12.4048C7.38975 12.5617 7.53324 12.7004 7.67582 12.8273C8.0021 13.1673 8.33753 13.5586 8.65528 13.9911C9.60397 15.2829 9.59026 15.9251 9.47814 16.0129C9.46261 16.0251 9.44067 16.0414 9.36999 16.0317C9.08423 15.9914 8.52854 15.607 7.82601 14.6501C6.9739 13.4901 6.43497 12.2867 6.24487 11.6001C6.51357 11.772 6.86453 12.0492 7.24535 12.4048ZM8.65528 18.0129C9.60397 19.3048 9.59026 19.947 9.47814 20.0348C9.46261 20.047 9.44067 20.0629 9.36999 20.0536C9.08423 20.0132 8.52854 19.6289 7.82601 18.672C6.9739 17.512 6.43497 16.3086 6.24487 15.622C6.83346 15.9982 7.80743 16.8579 8.65528 18.0129Z" fill="#4D4D4D"/>
</svg>
