<svg width="184" height="334" viewBox="0 0 184 334" fill="none" xmlns="http://www.w3.org/2000/svg">
<g opacity="0.2">
<path fill-rule="evenodd" clip-rule="evenodd" d="M23.2859 278.952C69.354 239.714 82.0734 279.706 122.291 292.009C82.6075 316.78 51.7128 323.187 23.2859 278.952Z" fill="white"/>
<path fill-rule="evenodd" clip-rule="evenodd" d="M71.0373 231.66C100.919 178.889 126.574 212.361 168.802 210.094C139.635 246.828 112.821 263.468 71.0373 231.66Z" fill="white"/>
<path fill-rule="evenodd" clip-rule="evenodd" d="M121.474 177.949C107.693 123.752 152.014 118.121 179.342 93.1948C181.517 137.802 170.401 172.27 121.474 177.949Z" fill="white"/>
<path fill-rule="evenodd" clip-rule="evenodd" d="M128.162 101.998C79.9488 67.4631 115.685 35.6824 115.588 2.29448C145.101 32.5672 160.151 68.0447 128.162 101.998Z" fill="white"/>
<path fill-rule="evenodd" clip-rule="evenodd" d="M71.2611 182.15C33.0088 138.084 67.7387 119.882 77.8216 78.8061C99.8185 120.314 114.286 150.876 71.2611 182.15Z" fill="white"/>
<path fill-rule="evenodd" clip-rule="evenodd" d="M46.6829 221.836C24.7413 208.113 23.736 184.927 32.306 164.719C44.201 189.354 68.236 199.714 46.6829 221.836Z" fill="white"/>
<path fill-rule="evenodd" clip-rule="evenodd" d="M38.304 245.884C24.9187 250.712 8.92209 231.423 8.31638 217.911C20.6889 227.659 41.7395 224.415 38.304 245.884Z" fill="white"/>
</g>
</svg>
