<svg width="100" height="37" viewBox="0 0 100 37" fill="none" xmlns="http://www.w3.org/2000/svg">
<path fill-rule="evenodd" clip-rule="evenodd" d="M18.4212 0C28.6056 0 36.8425 8.18429 36.8425 18.316C36.8425 28.4213 28.6056 36.632 18.4212 36.632C8.23693 36.632 0 28.4477 0 18.316C0 8.21061 8.26324 0 18.4212 0Z" fill="#B01116"/>
<path d="M85.7895 16.2902C86.9474 16.2902 87.8159 16.0007 88.3948 15.4481C88.9738 14.8691 89.2633 14.1586 89.2633 13.2901C89.2633 12.4217 88.9738 11.6849 88.3948 11.1322C87.8159 10.5533 86.9474 10.2901 85.7895 10.2901H82.0263V16.3165H85.7895V16.2902ZM76.4737 30.4219V5.00059H85.6053C86.9211 5.00059 88.1317 5.21112 89.2369 5.60586C90.3422 6.0006 91.2896 6.57955 92.1054 7.29009C92.9212 8.00062 93.5528 8.86905 94.0001 9.89537C94.4475 10.9217 94.6844 12.027 94.6844 13.2638C94.6844 14.5007 94.4475 15.606 94.0001 16.6323C93.5528 17.6586 92.9212 18.527 92.1054 19.2376C91.2896 19.9481 90.3422 20.5271 89.2369 20.9218C88.1317 21.3165 86.9211 21.5271 85.6053 21.5271H82.0263V30.4219H76.4737ZM63.6577 31.0008C61.2893 31.0008 59.2103 30.3693 57.4998 29.1061C55.7629 27.8429 54.5524 26.0271 53.8418 23.6587L59.1051 21.606C59.4208 22.8166 59.9209 23.8166 60.6314 24.5797C61.3419 25.3692 62.3682 25.7376 63.6577 25.7376C64.0788 25.7376 64.4998 25.685 64.8946 25.6061C65.2893 25.5008 65.6314 25.3692 65.9209 25.1587C66.2104 24.9482 66.4735 24.7113 66.6578 24.3955C66.842 24.0797 66.9472 23.7376 66.9472 23.3429C66.9472 22.9481 66.8683 22.5797 66.7104 22.2376C66.5525 21.8955 66.2893 21.5797 65.9472 21.2902C65.5788 21.0007 65.1051 20.7113 64.5262 20.3955C63.9209 20.106 63.184 19.7902 62.263 19.4481L60.684 18.8692C60.0261 18.6323 59.3419 18.3165 58.6314 17.8955C57.9208 17.4744 57.2892 16.9744 56.7103 16.3954C56.1313 15.8165 55.684 15.1323 55.3155 14.3428C54.9471 13.5796 54.7892 12.7112 54.7892 11.7638C54.7892 10.7375 54.9997 9.79011 55.3945 8.89536C55.7892 8.00062 56.3682 7.21114 57.105 6.57955C57.8419 5.92165 58.7366 5.42165 59.7893 5.0269C60.8419 4.65848 61.9998 4.44795 63.263 4.44795C64.6051 4.44795 65.7367 4.63216 66.6841 4.97427C67.6315 5.31638 68.4473 5.76375 69.1052 6.29008C69.7631 6.8164 70.2894 7.42167 70.6841 8.07957C71.0789 8.73747 71.3683 9.36905 71.6052 10.0006L66.7893 12.027C66.5262 11.2638 66.1051 10.6585 65.5525 10.2112C64.9735 9.73748 64.2367 9.52695 63.3419 9.52695C62.3946 9.52695 61.6314 9.71116 61.0788 10.1059C60.5261 10.5006 60.2366 11.0006 60.2366 11.6059C60.2366 12.2375 60.5261 12.8165 61.1051 13.3165C61.684 13.8165 62.684 14.3165 64.1314 14.8165L65.7104 15.3428C67.8683 16.0796 69.5525 17.0533 70.7367 18.2902C71.921 19.527 72.5262 21.185 72.5262 23.2639C72.5262 24.5797 72.2631 25.7376 71.7104 26.7113C71.1841 27.685 70.4736 28.4745 69.6315 29.1324C68.7894 29.764 67.842 30.2377 66.763 30.5798C65.7104 30.843 64.6841 31.0008 63.6577 31.0008ZM44.8154 5.00059H50.3944V30.4219H44.8154V5.00059Z" fill="black"/>
<path fill-rule="evenodd" clip-rule="evenodd" d="M7.36792 23.7893C13.0785 23.0787 11.9995 26.9209 14.5522 29.9998C10.1048 29.8946 7.31529 28.7893 7.36792 23.7893Z" fill="white"/>
<path fill-rule="evenodd" clip-rule="evenodd" d="M13.6328 22.5267C18.7644 19.8951 19.0539 23.8952 22.5276 25.9215C18.2908 27.3162 15.2907 27.2373 13.6328 22.5267Z" fill="white"/>
<path fill-rule="evenodd" clip-rule="evenodd" d="M20.4473 20.8944C22.1841 15.868 26 17.7365 29.4737 17.1838C27.3158 20.8418 24.6315 22.9997 20.4473 20.8944Z" fill="white"/>
<path fill-rule="evenodd" clip-rule="evenodd" d="M24.9467 15.2092C22.9204 9.94595 27.4204 9.28805 29.1573 6.63013C29.9205 10.5775 29.2626 14.1828 24.9467 15.2092Z" fill="white"/>
<path fill-rule="evenodd" clip-rule="evenodd" d="M16.2373 18.6046C15.5005 13.1045 19.2111 13.473 22.1585 10.7361C21.7374 15.1835 21.29 18.3677 16.2373 18.6046Z" fill="white"/>
<path fill-rule="evenodd" clip-rule="evenodd" d="M12.2115 20.4736C11.1852 18.2367 12.3168 16.342 14.0536 15.1841C13.7115 17.7631 15.08 19.842 12.2115 20.4736Z" fill="white"/>
<path fill-rule="evenodd" clip-rule="evenodd" d="M10.2892 21.9465C8.97342 21.6307 8.71025 19.2623 9.36816 18.157C9.84184 19.578 11.684 20.4202 10.2892 21.9465Z" fill="white"/>
<path d="M99.0526 2.18307C98.4474 1.5778 97.6053 1.23569 96.7368 1.23569C95.8684 1.23569 95.0526 1.5778 94.421 2.18307C93.8157 2.78834 93.4736 3.60413 93.4736 4.47256C93.4736 5.34099 93.8157 6.15679 94.421 6.76206C95.0263 7.36733 95.8684 7.70944 96.7368 7.70944C97.6053 7.70944 98.4211 7.36733 99.0526 6.76206C99.6579 6.15679 100 5.34099 100 4.47256C100 3.60413 99.6579 2.78834 99.0526 2.18307ZM99.3947 4.47256C99.3947 5.1831 99.1316 5.841 98.6053 6.341C98.1053 6.84101 97.4474 7.10417 96.7368 7.10417C96.0263 7.10417 95.3684 6.84101 94.8684 6.341C94.3684 5.841 94.1052 5.1831 94.1052 4.47256C94.1052 3.76203 94.3684 3.10413 94.8947 2.60413C95.3947 2.10412 96.0526 1.84096 96.7631 1.84096C97.4737 1.84096 98.1316 2.10412 98.6316 2.60413C99.1053 3.10413 99.3947 3.76203 99.3947 4.47256Z" fill="black"/>
<path d="M97.4216 4.92152C97.3426 4.81626 97.2111 4.73731 97.0795 4.65836C97.369 4.60573 97.5795 4.52678 97.7111 4.36888C97.8426 4.21099 97.9216 4.00046 97.9216 3.76361C97.9216 3.5794 97.869 3.39519 97.79 3.26361C97.6848 3.10571 97.5795 3.00045 97.4216 2.94782C97.2637 2.89519 97.0005 2.86887 96.6584 2.86887H95.2637V6.10575H95.9216V4.76363H96.0532C96.2111 4.76363 96.3163 4.76363 96.3953 4.78994C96.4742 4.81626 96.5268 4.86889 96.6058 4.92152C96.6584 4.97415 96.79 5.13205 96.9479 5.39521L97.4216 6.10575H98.2111L97.8163 5.47416C97.6321 5.211 97.5268 5.02679 97.4216 4.92152ZM96.4216 4.2373H95.9479V3.4215H96.4479C96.7111 3.4215 96.8689 3.4215 96.9216 3.4215C97.0268 3.44782 97.1058 3.47414 97.1584 3.55308C97.2111 3.63203 97.2374 3.71098 97.2374 3.81625C97.2374 3.92151 97.2111 4.00046 97.1584 4.05309C97.1058 4.10572 97.0532 4.15836 96.9742 4.18467C96.9216 4.21099 96.7374 4.2373 96.4216 4.2373Z" fill="black"/>
</svg>
