<svg width="50" height="50" viewBox="0 0 50 50" fill="none" xmlns="http://www.w3.org/2000/svg">
<path d="M49.2794 18.9694C48.7642 18.1434 48.0135 17.4906 47.124 17.095C46.2345 16.6994 45.2469 16.5792 44.2885 16.7499C43.4974 16.8779 42.7344 17.1421 42.0334 17.5306C41.6382 16.8369 41.1071 16.2302 40.472 15.7465C39.6596 15.1095 38.6743 14.7318 37.6442 14.6627C36.6142 14.5937 35.5873 14.8364 34.6972 15.3594C33.8687 15.8744 33.2143 16.6266 32.8191 17.5184C32.4238 18.4102 32.306 19.4003 32.4808 20.3599C32.6097 21.1488 32.8738 21.9095 33.2615 22.6085C33.1551 22.6731 33.0422 22.7311 32.9389 22.8021C31.3142 22.5328 29.646 22.7848 28.1733 23.522C26.7007 24.2592 25.4993 25.4437 24.7413 26.9058C24.1987 25.1814 23.5402 23.4956 22.7701 21.8601C24.0124 21.225 24.9929 20.1749 25.5414 18.892C26.0008 17.7864 26.1118 16.5668 25.8592 15.3964C25.6067 14.2261 25.0028 13.1607 24.1283 12.3429C23.3069 11.5023 22.325 10.8353 21.2409 10.3814C21.7761 9.35679 22.0634 8.22085 22.0797 7.06495C22.1404 5.79451 21.8115 4.53585 21.1368 3.4576C20.4622 2.37936 19.4742 1.53305 18.3051 1.03206C17.1998 0.572176 15.9804 0.460756 14.8101 0.712698C13.6397 0.964641 12.5742 1.56793 11.756 2.44188C10.9124 3.26212 10.2431 4.2442 9.78807 5.32929C8.76436 4.79467 7.6296 4.50739 6.47482 4.49049H6.4103C5.1499 4.44154 3.90435 4.77656 2.83857 5.45117C1.77278 6.12578 0.937015 7.10818 0.441921 8.26831C-0.018033 9.37385 -0.129181 10.5936 0.123365 11.764C0.37591 12.9345 0.980089 13.9999 1.85497 14.8174C2.67967 15.6545 3.66511 16.3162 4.75206 16.7628C4.21214 17.7917 3.92255 18.9335 3.9068 20.0954C3.84514 21.366 4.17375 22.625 4.84848 23.7035C5.52321 24.7819 6.51177 25.628 7.6814 26.1283C8.38781 26.4319 9.14822 26.5899 9.91712 26.5928C11.5427 26.5543 13.0891 25.8829 14.2273 24.7217C15.0709 23.9002 15.7402 22.9171 16.1952 21.831C17.2168 22.3651 18.3493 22.6524 19.502 22.6698H19.5601C21.5623 26.9101 22.9371 31.4191 23.6412 36.0551C19.6103 33.0101 14.5851 31.5851 9.55579 32.0612C8.3538 32.1062 7.20178 32.5537 6.28449 33.3318C5.36719 34.1098 4.73778 35.1734 4.49719 36.3519C4.36322 36.968 4.36964 37.6062 4.51596 38.2195C4.66228 38.8327 4.94476 39.4051 5.34244 39.8942C7.38137 42.3461 12.1109 42.3913 17.5921 42.4461L18.6697 42.459H18.689C18.9009 42.4601 19.1108 42.4194 19.3069 42.3393C19.503 42.2592 19.6815 42.1413 19.832 41.9923C19.9825 41.8432 20.1022 41.666 20.1843 41.4707C20.2663 41.2754 20.3091 41.0659 20.3102 40.854C20.3112 40.6422 20.2705 40.4322 20.1905 40.2361C20.1104 40.04 19.9924 39.8616 19.8434 39.711C19.6944 39.5605 19.5171 39.4408 19.3218 39.3588C19.1265 39.2767 18.917 39.2339 18.7051 39.2329L17.6212 39.2232C13.7369 39.1845 8.90411 39.1329 7.82012 37.8327C7.74592 37.7392 7.56526 37.523 7.67495 36.9036C7.82335 36.0454 8.63634 35.4841 10.0913 35.2421C14.366 34.5195 21.7248 37.1198 23.896 41.0524C24.0235 41.2758 24.2041 41.4641 24.4219 41.6009C24.6219 43.4591 24.7768 45.4529 24.8735 47.5983C24.8926 48.0131 25.071 48.4046 25.3715 48.6912C25.6719 48.9779 26.0714 49.1376 26.4866 49.1372H26.5576C26.7692 49.1276 26.9769 49.0765 27.1688 48.9867C27.3606 48.8969 27.5329 48.7702 27.6758 48.6139C27.8187 48.4575 27.9294 48.2745 28.0016 48.0753C28.0738 47.8762 28.106 47.6647 28.0965 47.4531C27.9033 42.4688 27.2892 37.5098 26.2608 32.629C26.8383 29.5093 27.7029 26.7509 30.5935 26.125C30.4161 26.7621 30.3689 27.4285 30.4548 28.0842C30.5407 28.74 30.758 29.3717 31.0936 29.9416C31.5272 30.6557 32.1422 31.2423 32.876 31.6418C33.6098 32.0413 34.4363 32.2394 35.2714 32.216C35.5444 32.2161 35.8171 32.1978 36.0876 32.1612C36.8777 32.0328 37.6395 31.7687 38.3395 31.3804C38.7348 32.074 39.2659 32.6808 39.9009 33.1645C40.8289 33.8657 41.9576 34.2503 43.1206 34.2614C44.0212 34.2625 44.9048 34.017 45.6758 33.5516C46.5028 33.0376 47.1563 32.287 47.5515 31.3971C47.9467 30.5071 48.0653 29.519 47.8921 28.5608C47.7648 27.7794 47.5052 27.0255 47.1243 26.3315C47.8157 25.9247 48.419 25.384 48.8987 24.741C49.5353 23.9289 49.9122 22.9437 49.9801 21.914C50.048 20.8843 49.8038 19.8581 49.2794 18.9694ZM13.9853 4.77439C14.3555 4.34919 14.8471 4.04764 15.394 3.91036C15.9408 3.77308 16.5165 3.80665 17.0437 4.00657C17.6153 4.27143 18.0938 4.7025 18.4167 5.2435C18.7396 5.7845 18.8918 6.41029 18.8535 7.03915C18.8891 7.6468 18.7602 8.2528 18.4803 8.79332C18.2004 9.33384 17.7799 9.78885 17.2631 10.1104L13.8821 11.4783L12.5206 8.12313C12.4936 7.49026 12.6115 6.85958 12.8653 6.27922C13.1192 5.69885 13.5022 5.18415 13.9853 4.77439ZM3.4132 9.52651C3.67641 8.95865 4.10402 8.48288 4.64066 8.16078C5.1773 7.83868 5.79828 7.68508 6.4232 7.71986H6.45224C7.05903 7.68405 7.66421 7.81296 8.20374 8.09295C8.74326 8.37293 9.19705 8.79358 9.51708 9.31035L10.8882 12.6914L10.5333 12.8365L7.53945 14.0496C6.90589 14.077 6.27442 13.9597 5.69303 13.7064C5.11164 13.4532 4.59563 13.0707 4.18425 12.5881C3.75937 12.217 3.45789 11.7249 3.32011 11.1779C3.18232 10.6308 3.2148 10.0546 3.4132 9.52651ZM11.998 22.3859C11.6276 22.8109 11.1362 23.1125 10.5895 23.2504C10.0429 23.3882 9.46719 23.3556 8.9396 23.157C8.36774 22.8918 7.8893 22.4601 7.56693 21.9184C7.24456 21.3767 7.0933 20.7503 7.13295 20.1212C7.09631 19.5134 7.2248 18.907 7.5048 18.3663C7.78481 17.8256 8.20591 17.3707 8.72344 17.0499L12.1012 15.682L13.4627 19.0372C13.4895 19.67 13.3714 20.3006 13.1176 20.881C12.8638 21.4613 12.4809 21.976 11.998 22.3859ZM16.463 17.8532L15.0951 14.4657L17.1953 13.614L18.4471 13.1075C19.0796 13.0808 19.7099 13.1986 20.2901 13.4518C20.8703 13.705 21.3853 14.0871 21.7958 14.569C22.2212 14.9398 22.5233 15.4316 22.6617 15.9787C22.8001 16.5258 22.7681 17.1021 22.5701 17.6306C22.3069 18.1984 21.8793 18.6742 21.3426 18.9963C20.806 19.3184 20.185 19.472 19.5601 19.4372H19.5278C18.9202 19.4791 18.3127 19.3529 17.7721 19.0723C17.2314 18.7918 16.7785 18.3677 16.463 17.8467V17.8532ZM44.7789 19.9437C45.1057 19.8685 45.4477 19.895 45.759 20.0195C46.0704 20.144 46.3362 20.3607 46.521 20.6406C46.7122 20.9847 46.7934 21.3792 46.7536 21.7708C46.7138 22.1625 46.5549 22.5325 46.2984 22.8311C46.097 23.1496 45.8162 23.4101 45.4836 23.5872C45.151 23.7642 44.7781 23.8517 44.4014 23.8409L42.1431 23.2796L42.3819 22.3053L42.6916 21.0568C42.9426 20.7359 43.258 20.4711 43.6175 20.2794C43.9769 20.0877 44.3726 19.9734 44.7789 19.9437ZM36.3651 18.1274C36.7099 17.9373 37.1043 17.8565 37.4961 17.8956C37.8879 17.9348 38.2585 18.0922 38.5589 18.3468C38.8775 18.5472 39.1383 18.8273 39.3154 19.1595C39.4925 19.4916 39.5798 19.8643 39.5687 20.2405L39.0073 22.5053L36.7813 21.9569C36.4617 21.7056 36.1979 21.3905 36.0068 21.0317C35.8157 20.6729 35.7015 20.2782 35.6715 19.8728C35.5936 19.5463 35.6184 19.2037 35.7425 18.8919C35.8667 18.5801 36.0841 18.311 36.3651 18.1274ZM35.5973 28.9737C35.2705 29.0504 34.928 29.0246 34.6163 28.8999C34.3047 28.7753 34.0389 28.5578 33.8551 28.2769C33.6642 27.9336 33.5826 27.5403 33.6213 27.1494C33.6599 26.7586 33.8169 26.3888 34.0713 26.0896C34.2631 25.8058 34.5135 25.5666 34.8057 25.3879C35.0979 25.2092 35.4251 25.0954 35.765 25.054C35.8345 25.0535 35.9038 25.061 35.9715 25.0765L38.233 25.6379L37.9911 26.6122L37.6814 27.8607C37.4307 28.1812 37.1158 28.4458 36.7569 28.6374C36.398 28.8291 36.003 28.9437 35.5973 28.9737ZM44.0078 30.7901C43.6634 30.9815 43.2687 31.0631 42.8766 31.0239C42.4845 30.9847 42.1137 30.8266 41.814 30.5707C41.495 30.3707 41.2338 30.0907 41.0567 29.7584C40.8795 29.4262 40.7925 29.0533 40.8043 28.6769L41.3656 26.4122L43.5852 26.9606C43.9066 27.2121 44.172 27.528 44.3642 27.888C44.5564 28.248 44.6713 28.6442 44.7015 29.0512C44.7791 29.3771 44.7542 29.7192 44.63 30.0304C44.5059 30.3417 44.2885 30.607 44.0078 30.7901Z" fill="#4D4D4D"/>
</svg>
