<svg width="40" height="50" viewBox="0 0 40 50" fill="none" xmlns="http://www.w3.org/2000/svg">
<path d="M13.5041 0.0310974C12.9835 0.116909 12.2989 0.481602 11.9709 0.853447C11.543 1.34686 11.3718 1.75445 11.3433 2.41948C11.3148 2.9701 11.329 3.06306 11.8568 4.77926C12.1563 5.75893 12.47 6.70284 12.5556 6.87446C12.6982 7.17479 13.1689 7.6539 13.825 8.19021C14.0104 8.33323 14.2101 8.56921 14.2743 8.71222C14.3955 8.96251 14.3955 8.97681 14.2529 9.27714L14.1031 9.57748L14.317 10.2497C14.4311 10.6215 14.5167 10.9361 14.5025 10.9504C14.4882 10.9576 14.0603 11.1006 13.5611 11.2508C12.1491 11.6798 12.1135 11.7799 12.6982 13.2316C13.2973 14.7261 14.096 15.9846 15.3012 17.3147C15.7504 17.8153 15.8217 17.9225 15.7362 18.0012C15.6791 18.0512 15.0302 18.5804 14.2956 19.1811L12.955 20.268L12.4344 20.2823C12.0279 20.2966 11.8568 20.3395 11.5929 20.4897C10.7871 20.9688 10.5803 21.4908 10.6231 22.9996C10.6516 24.158 10.73 24.3869 11.2577 24.8803L11.5501 25.1592L11.5073 25.91C11.4431 27.0112 11.2863 27.8193 10.894 29.0206C10.4448 30.415 10.3164 31.0443 10.2736 32.1026C10.2308 33.0322 10.3093 33.7974 10.5446 34.7198C10.6159 35.0202 10.6801 35.2776 10.6801 35.2991C10.6801 35.3205 10.5303 35.3563 10.3449 35.3849C9.13975 35.5636 8.06293 36.4647 7.68498 37.6088C7.52096 38.095 7.54235 38.0807 6.93619 38.1737C6.42274 38.2595 5.75241 38.6385 5.28888 39.0962C4.78256 39.6039 4.45452 40.2403 4.33329 40.9268L4.25484 41.3987L3.91254 41.5203C2.97835 41.8492 2.22244 42.8361 2.07981 43.9087C2.03703 44.2519 2.02989 44.2591 1.58776 44.4951C0.482412 45.0671 -0.173663 46.3471 0.0402748 47.5127C0.254212 48.6568 0.967337 49.5006 2.03703 49.8582C2.47916 50.0084 2.52908 50.0084 10.9867 49.994L19.4872 49.9726L19.965 49.7438C20.8921 49.3076 21.4982 48.5138 21.6694 47.5199C21.8049 46.769 21.5267 45.7965 21.0347 45.2745C20.9348 45.1672 20.8635 45.06 20.8849 45.0457C20.8992 45.0314 21.4269 45.0528 22.0544 45.0886C23.3666 45.1672 25.2778 45.1243 27.5812 44.9599C28.9504 44.8669 29.5637 44.7811 31.7173 44.3806C34.6054 43.8443 35.3756 43.7943 36.4952 44.0374C36.8304 44.1089 37.3938 44.1733 37.7503 44.1733C38.3351 44.1733 38.4421 44.159 38.82 43.9659C39.1267 43.8014 39.2907 43.6656 39.4404 43.4224C39.961 42.5715 39.6544 41.7777 38.4777 40.9482C38.1639 40.7266 37.8074 40.4119 37.6933 40.2546C37.351 39.7826 36.9231 38.8745 36.7662 38.2881C36.5879 37.5945 36.5737 36.4217 36.7377 35.8497C37.3724 33.683 37.4793 32.4173 37.1656 30.7511C37.1085 30.4436 36.9017 29.6928 36.7092 29.0993C36.3241 27.8979 36.1815 27.1972 36.0745 25.9887L35.996 25.1735L36.3098 24.8946C36.4881 24.7444 36.702 24.4655 36.7947 24.2796C36.9445 23.9721 36.9588 23.8506 36.9588 22.8351C36.9588 21.8197 36.9445 21.6982 36.7876 21.3478C36.481 20.6684 35.7393 20.2179 35.0262 20.2751L34.6982 20.2966L30.4836 16.8141C26.7825 13.7536 26.1834 13.2816 25.6201 13.0099C25.1708 12.7882 24.8214 12.6666 24.4434 12.6094C23.4308 12.4664 22.2826 12.7596 21.4554 13.3746C21.1559 13.6106 21.0917 13.5319 21.0917 12.8812C21.0917 12.2376 20.9776 11.451 20.7566 10.4999C20.6139 9.88496 20.5284 9.67759 20.3715 9.52027C20.2645 9.41301 20.1219 9.32005 20.0506 9.32005C19.9507 9.32005 18.4175 9.75625 18.1323 9.87066C18.0681 9.89211 17.9682 9.67044 17.8185 9.18418C17.6045 8.50485 17.576 8.45479 17.3193 8.32608C16.9841 8.15446 16.9128 7.86127 17.0626 7.29636C17.4405 5.92339 17.4691 5.77323 17.4334 5.45859C17.3692 4.95088 16.3494 1.65434 16.1284 1.23244C15.6577 0.367188 14.5524 -0.133369 13.5041 0.0310974ZM14.7235 1.43266C14.8733 1.54708 15.0516 1.74015 15.1157 1.86171C15.3083 2.1835 16.2425 5.33702 16.2425 5.65166C16.2425 5.80183 16.1426 6.24518 16.0285 6.63133C15.7718 7.47513 15.7647 7.86842 15.9715 8.63356C16.1284 9.21993 16.3851 9.60608 16.6276 9.60608C16.7131 9.60608 16.8843 9.98507 16.8843 10.1924C16.8843 10.264 15.7148 10.6072 15.6648 10.55C15.6435 10.5214 15.5864 10.3998 15.5436 10.2711C15.4794 10.078 15.4937 9.99223 15.6221 9.75625L15.7789 9.47736L15.6078 8.9482C15.3439 8.12585 15.1443 7.79692 14.6593 7.38217C13.5469 6.4168 13.6253 6.55267 13.0334 4.63624C12.413 2.64116 12.3773 2.30507 12.6982 1.81881C13.1333 1.16093 14.153 0.967857 14.7235 1.43266ZM19.6441 11.2222C19.801 11.9945 19.9008 13.3674 19.8438 14.0539L19.7938 14.7189L18.3177 15.9131L16.8486 17.1073L16.2995 16.5495C15.3439 15.5699 14.5167 14.3256 13.989 13.0957C13.8535 12.7739 13.7537 12.5093 13.7608 12.5022C13.8392 12.4521 19.4301 10.7717 19.4872 10.7788C19.5229 10.7931 19.5942 10.9862 19.6441 11.2222ZM24.9997 14.0825C25.3277 14.2327 26.4758 15.1337 29.2641 17.4363C32.8298 20.3824 33.0651 20.5826 32.8797 20.6327C32.573 20.7113 30.4479 20.9616 29.257 21.0617C28.5296 21.1261 26.7468 21.1547 23.6946 21.1547C19.965 21.1547 18.9809 21.1261 17.8827 21.026C16.6704 20.9116 14.6023 20.647 14.5595 20.6041C14.5452 20.5826 17.0911 18.5017 21.2272 15.1623C22.682 13.9752 23.0314 13.8108 23.9799 13.8465C24.4363 13.868 24.6431 13.9109 24.9997 14.0825ZM14.2457 21.8197C17.084 22.3131 18.9809 22.4347 23.7659 22.4347C28.6152 22.4347 30.8901 22.2845 33.7497 21.7554C35.1902 21.4908 35.3685 21.4908 35.561 21.7339C35.6965 21.9055 35.7108 22.0199 35.7108 22.7779C35.7108 23.7934 35.6324 24.0079 35.2259 24.1151C34.1063 24.4155 31.8599 24.7659 29.8632 24.9589C27.9235 25.1449 19.6797 25.1449 17.74 24.9589C15.6292 24.7587 13.5112 24.4226 12.3845 24.1223C11.9423 24.0007 11.8924 23.8649 11.8924 22.8065C11.8924 21.9413 11.9067 21.8698 12.0564 21.7053C12.249 21.4979 12.4344 21.5051 14.2457 21.8197ZM13.8179 25.6883C16.6989 26.2318 20.129 26.4463 24.9711 26.382C27.9591 26.3462 29.0431 26.289 31.0042 26.0816C31.9455 25.9815 34.3559 25.6097 34.6482 25.5167C34.7481 25.481 34.7695 25.5668 34.8123 26.1031C34.8978 27.1829 35.126 28.3055 35.4541 29.2924C35.9604 30.8012 36.0317 31.2159 36.0246 32.5245C36.0246 33.7187 36.0103 33.8117 35.4969 35.6709C35.3328 36.2859 35.3114 37.5301 35.4541 38.2095C35.7892 39.7898 36.6165 41.2128 37.5578 41.8349C39.0054 42.7931 38.6203 43.1578 36.5665 42.7788C35.2758 42.5429 34.4129 42.6001 31.5747 43.1364C30.2982 43.3724 28.8648 43.6012 28.4013 43.6441C25.4774 43.8872 23.5021 43.9301 21.1987 43.7871C20.457 43.7442 19.7796 43.6942 19.694 43.6799C19.5942 43.6584 19.5015 43.5368 19.4159 43.3223C19.2875 42.9791 18.8739 42.407 18.496 42.0638C18.3747 41.9494 18.0467 41.742 17.7757 41.6061L17.2765 41.363L17.1838 40.8767C17.0554 40.2045 16.7203 39.5681 16.2496 39.1033C15.7932 38.6457 15.0373 38.2309 14.531 38.1666L14.1887 38.1236L14.0674 37.7017C13.8179 36.8723 13.1333 36.0714 12.3488 35.6852C12.0636 35.5493 12.0493 35.5207 11.871 34.8915C11.3504 33.0465 11.4218 31.3518 12.0992 29.3639C12.2561 28.8991 12.4344 28.3055 12.4986 28.0481C12.5984 27.6119 12.8195 25.9172 12.8195 25.6025C12.8195 25.5096 12.8551 25.481 12.9478 25.5096C13.012 25.531 13.4042 25.6097 13.8179 25.6883ZM11.7997 36.8222C12.4487 37.1368 12.8409 37.7232 12.9621 38.5455C13.0477 39.1891 13.2188 39.3536 13.8107 39.3536C14.3812 39.3536 14.8234 39.5252 15.2512 39.9114C15.7576 40.369 15.9572 40.8124 15.9572 41.4845C15.9572 42.1496 16.0785 42.3927 16.4422 42.4928C16.5848 42.5357 16.7559 42.5715 16.8201 42.5715C17.034 42.5715 17.6687 42.9433 17.8898 43.2007C18.2107 43.5654 18.389 44.0159 18.4532 44.6023C18.5173 45.1458 18.6386 45.3245 19.0165 45.4032C19.4159 45.489 19.7582 45.6892 20.0292 45.9896C20.6211 46.6689 20.5925 47.5699 19.9507 48.2349C19.3731 48.8356 19.9579 48.7999 10.673 48.7784L2.51482 48.757L2.22957 48.5996C0.710612 47.7773 1.06004 45.6749 2.77154 45.4032C2.91417 45.3746 3.09958 45.2745 3.19229 45.1815C3.34204 45.0171 3.36344 44.9313 3.36344 44.3306C3.37057 43.7013 3.38483 43.6369 3.58451 43.3509C3.89828 42.9076 4.2905 42.6573 4.79682 42.5715C5.42437 42.4714 5.56699 42.2997 5.55273 41.6705C5.53847 40.9268 5.70962 40.4691 6.18028 39.99C6.66521 39.5109 7.05743 39.3536 7.79908 39.3536C8.50507 39.3536 8.66909 39.2177 8.74753 38.567C8.94721 37.001 10.4305 36.15 11.7997 36.8222Z" fill="#4D4D4D"/>
<path d="M23.367 14.8188C23.2529 14.9332 23.1602 15.0977 23.1602 15.1835C23.1602 15.777 23.8519 16.0488 24.2655 15.6126C24.8574 14.9904 23.9731 14.211 23.367 14.8188Z" fill="#4D4D4D"/>
<path d="M25.506 16.2204C25.2279 16.3706 25.1281 16.7138 25.2707 17.007C25.4847 17.4575 25.9981 17.5004 26.3404 17.0928C26.7897 16.5565 26.1336 15.8772 25.506 16.2204Z" fill="#4D4D4D"/>
<path d="M21.263 16.3566C20.8494 16.707 21.1204 17.4006 21.6695 17.4006C22.133 17.4006 22.4682 16.943 22.3041 16.5425C22.2542 16.421 22.1544 16.2923 22.0831 16.2565C21.8549 16.1278 21.4698 16.1778 21.263 16.3566Z" fill="#4D4D4D"/>
<path d="M22.8325 17.6437C22.4261 17.9941 22.6756 18.6877 23.2105 18.6877C23.5314 18.6877 23.7025 18.5876 23.838 18.3302C23.9878 18.0442 23.9735 17.9441 23.7596 17.6938C23.5243 17.4077 23.1249 17.3863 22.8325 17.6437Z" fill="#4D4D4D"/>
<path d="M27.9312 17.5651C27.4391 17.9441 27.6602 18.6877 28.2663 18.6877C28.844 18.6877 29.1506 18.037 28.7584 17.6509C28.5658 17.4506 28.1308 17.4077 27.9312 17.5651Z" fill="#4D4D4D"/>
<path d="M19.259 17.9654C18.6956 18.3158 19.0379 19.2097 19.6869 19.0881C19.9293 19.0452 20.1789 18.8307 20.2574 18.5947C20.3287 18.3945 20.1219 17.9797 19.9151 17.9011C19.6441 17.8009 19.5157 17.8152 19.259 17.9654Z" fill="#4D4D4D"/>
<path d="M24.9067 19.224C24.4218 19.7031 24.921 20.4968 25.5414 20.2322C26.0192 20.032 26.1333 19.6316 25.8267 19.2669C25.5842 18.9737 25.1706 18.9522 24.9067 19.224Z" fill="#4D4D4D"/>
<path d="M16.9338 19.4457C16.7341 19.5529 16.5986 19.7961 16.5986 20.0535C16.5986 20.2752 16.9766 20.6184 17.2262 20.6184C17.4686 20.6184 17.7967 20.3896 17.8823 20.1465C17.975 19.9105 17.8323 19.5601 17.5899 19.4385C17.3403 19.3027 17.1905 19.3098 16.9338 19.4457Z" fill="#4D4D4D"/>
<path d="M30.4127 19.5459C29.8422 19.9964 30.3699 20.8688 31.0402 20.5899C31.3255 20.4684 31.5251 20.1251 31.461 19.8677C31.354 19.4458 30.7692 19.267 30.4127 19.5459Z" fill="#4D4D4D"/>
<path d="M22.3681 19.7532C21.8546 20.2681 22.4394 21.0618 23.0812 20.7329C23.6874 20.4182 23.502 19.5458 22.8388 19.5458C22.6462 19.5458 22.525 19.603 22.3681 19.7532Z" fill="#4D4D4D"/>
<path d="M27.995 19.8031C27.5957 20.0176 27.5386 20.4467 27.8595 20.7685C28.0021 20.9115 28.1376 20.9758 28.2945 20.9758C28.6154 20.9758 28.9363 20.6397 28.9363 20.3108C28.9363 20.1177 28.8864 20.0176 28.7153 19.8746C28.4728 19.6672 28.2803 19.6458 27.995 19.8031Z" fill="#4D4D4D"/>
<path d="M19.7654 19.932C19.3875 20.2538 19.58 20.8902 20.0934 21.0118C20.3216 21.0618 20.7139 20.8259 20.8066 20.5756C21.0348 19.9749 20.2646 19.4958 19.7654 19.932Z" fill="#4D4D4D"/>
<path d="M16.2067 29.3064C16.1283 29.3207 15.843 29.3564 15.5721 29.3779C15.1584 29.4208 15.0443 29.4637 14.8732 29.6281C14.5309 29.9714 14.5879 30.1788 15.2155 30.8581C15.6719 31.3587 15.8288 31.6018 16.278 32.5171C16.5633 33.1106 16.9769 34.1117 17.198 34.741C17.6686 36.1068 17.8327 36.5001 18.2748 37.2509C19.3659 39.0959 20.8563 40.1327 22.7746 40.3687C23.2453 40.4259 23.5947 40.4259 24.0155 40.3687C24.7428 40.2758 24.8783 40.1613 25.0637 39.4677L25.1992 38.9743L26.2333 38.96C27.1033 38.9528 27.3457 38.9242 27.8307 38.7741C29.0786 38.3879 30.0842 37.5727 30.7402 36.4214C31.9811 34.2476 32.2734 33.7399 32.6657 33.1678C32.901 32.8103 33.2861 32.274 33.5143 31.9593C33.9564 31.3587 34.0206 31.1227 33.8138 30.808C33.6926 30.6293 33.3289 30.4934 32.2521 30.2288C31.4961 30.05 29.7133 30.0071 28.9004 30.1573C27.3814 30.4362 26.0407 31.0798 24.8284 32.1023L24.4719 32.4027L23.9513 31.8378C22.7817 30.5578 21.163 29.7569 19.1305 29.4422C18.4459 29.3421 16.5062 29.2492 16.2067 29.3064ZM19.4515 30.7723C20.8848 31.1155 21.6764 31.4802 22.5179 32.181C23.7587 33.2179 24.4362 34.598 24.4433 36.0854C24.4433 36.6932 24.2793 37.7515 24.1652 37.8731C24.1296 37.9088 23.9655 37.7158 23.8015 37.444C22.9814 36.1426 21.1059 33.933 20.5853 33.6684C20.2502 33.4896 19.9863 33.5325 19.7724 33.7899C19.4657 34.1546 19.5513 34.3263 20.4712 35.2702C21.5552 36.3857 22.4323 37.5298 23.1526 38.7598L23.3665 39.1388H23.0313C21.8547 39.1388 20.4641 38.2878 19.6012 37.0364C19.1377 36.3571 18.938 35.9209 18.396 34.3763C17.8612 32.8746 17.4404 31.895 17.0054 31.1727C16.82 30.8724 16.6703 30.6007 16.6703 30.5792C16.6703 30.4791 18.8596 30.6293 19.4515 30.7723ZM31.867 31.423L32.2734 31.516L31.7243 32.3383C31.1253 33.2322 30.4835 34.312 29.8631 35.4561C28.9859 37.065 27.9448 37.7086 26.2333 37.7086H25.5059L25.5558 37.4583C25.5772 37.3225 25.62 37.0507 25.6485 36.8577C25.6842 36.5573 25.7555 36.4286 26.1548 35.9781C27.0676 34.9412 28.0232 34.1904 29.2213 33.5683C29.5208 33.4109 29.8132 33.225 29.8702 33.1607C30.02 32.9747 29.9843 32.5886 29.7918 32.3812C29.5564 32.1309 29.2498 32.1524 28.6294 32.4599C27.631 32.9676 26.8038 33.5611 25.9694 34.362L25.5344 34.7839L25.4488 34.4049C25.3989 34.1975 25.3062 33.9115 25.242 33.7756L25.1208 33.5325L25.4417 33.2179C26.383 32.3026 27.8663 31.5732 29.2569 31.3372C29.7276 31.2585 31.3678 31.3157 31.867 31.423Z" fill="#4D4D4D"/>
<path d="M11.8214 39.976C11.4435 40.0403 10.9799 40.2262 10.8516 40.3621C10.6662 40.5695 10.6876 40.9556 10.9015 41.1845C11.0441 41.3418 11.1154 41.3632 11.3579 41.3275C12.3919 41.1916 12.4347 41.1916 12.7628 41.3418C12.941 41.4204 13.1764 41.6064 13.2905 41.7494C13.754 42.35 13.7754 42.3715 14.0606 42.3787C14.2746 42.3858 14.3744 42.3429 14.5028 42.1856C14.731 41.921 14.7238 41.6064 14.4743 41.2059C13.918 40.3335 12.7984 39.8115 11.8214 39.976Z" fill="#4D4D4D"/>
<path d="M7.86344 41.7419C6.70104 42.1137 5.90234 43.1363 5.90234 44.259C5.90234 44.5879 5.93087 44.6523 6.12341 44.8167C6.3944 45.0527 6.61547 45.0527 6.88646 44.8239C7.05761 44.6809 7.10753 44.5665 7.14318 44.259C7.24302 43.501 7.7636 42.9933 8.54804 42.8932C8.96878 42.8431 9.21124 42.6 9.21124 42.2353C9.21124 41.7133 8.62648 41.4987 7.86344 41.7419Z" fill="#4D4D4D"/>
<path d="M13.9744 43.8231C13.5965 43.9876 13.4967 44.4381 13.7676 44.7527C13.8889 44.8957 14.0244 44.9529 14.3595 45.003C15.1368 45.1103 15.5291 45.4463 15.6717 46.1328C15.7787 46.6048 15.9284 46.7836 16.2564 46.8408C16.4846 46.8765 16.5488 46.8479 16.7485 46.6548C16.9624 46.4403 16.9696 46.4046 16.9339 46.0256C16.8769 45.5036 16.5346 44.8028 16.1637 44.4667C15.5505 43.9161 14.4808 43.6014 13.9744 43.8231Z" fill="#4D4D4D"/>
</svg>
