<svg width="50" height="50" viewBox="0 0 50 50" fill="none" xmlns="http://www.w3.org/2000/svg">
<path d="M8.5247 24.1917C7.03424 27.0849 7.18369 30.2233 8.96499 32.8954C10.8819 35.7633 14.4456 37.6587 18.0426 37.7246C20.2703 37.7655 22.2625 38.3828 23.8468 39.5012H0.829186V40.2588C0.829186 43.659 3.59537 46.4252 6.99559 46.4252H43.1476C46.5478 46.4252 49.314 43.659 49.314 40.2588V39.5012H39.1573C41.5847 38.5474 43.3947 36.3577 43.7994 33.6052C44.2929 30.1839 42.3989 26.9003 39.1881 25.6174C38.2402 25.2474 37.2476 25.0789 36.2623 25.0967C39.2116 23.3081 41.5877 21.6554 41.6192 21.6338C41.6554 21.6083 41.6894 21.5798 41.7205 21.5488C44.137 19.1383 44.594 16.7781 43.1155 14.3594L48.4144 9.63507L48.4958 9.55369C49.7269 8.32226 49.5574 6.22376 48.1096 4.77593C46.6827 3.34891 44.4516 3.11411 43.2216 4.50146L38.5536 9.71326C37.7797 9.20288 36.7905 8.74248 35.617 8.74248C33.7508 8.74248 31.6688 10.232 31.0642 11.0785C31.0285 11.1299 27.7079 15.9006 25.3713 20.3606C23.7253 18.5939 21.2656 17.5302 18.3056 17.7076C21.098 11.9886 18.5697 8.37997 15.5398 8.37997C15.0951 8.37997 14.6517 8.46537 14.2316 8.62244C12.8104 7.47956 10.9103 7.32239 9.36967 8.39032C7.65699 7.75209 5.78293 8.14012 4.58821 9.40905C3.84099 10.2035 3.42558 11.2492 3.39285 12.389C1.89971 13.3534 1.25042 15.1667 1.76043 16.9446C-1.00566 19.8995 1.65316 24.5772 8.5247 24.1917ZM47.7375 41.0164C47.3742 43.2218 45.4544 44.9101 43.1476 44.9101H6.99559C4.68883 44.9101 2.76899 43.2218 2.40574 41.0164H47.7375ZM26.1382 35.7193C26.6115 35.8909 29.0866 36.3521 31.8513 38.4758C32.4079 38.9053 33.0226 39.2451 33.6816 39.5012H26.7665C26.9323 38.4705 26.1525 37.8264 26.1382 35.7193ZM38.6318 27.0268C41.2248 28.0629 42.6986 30.6197 42.2998 33.387C41.6107 38.078 36.2493 39.9558 32.7761 37.2755C29.6341 34.8616 26.9489 34.4208 25.659 34.0033C20.3928 32.3155 19.5098 29.0878 20.6017 26.8582L20.6037 26.8543C20.6879 26.6811 20.8013 26.4965 20.9501 26.2899C23.0959 23.329 29.0673 27.853 35.3374 26.6968C36.4271 26.497 37.5679 26.6114 38.6318 27.0268ZM44.3528 5.50909C45.0113 4.76747 46.275 5.08444 47.0383 5.84719C47.8706 6.68023 48.0445 7.86246 47.4245 8.48243L42.4256 12.958C42.1968 12.7009 41.9636 12.4569 41.7329 12.2209L45.4085 8.54531C45.7045 8.24939 45.7045 7.76998 45.4085 7.47406C45.1126 7.17813 44.6332 7.17813 44.3373 7.47406L40.6628 11.1485C40.4289 10.9172 40.1878 10.6822 39.9339 10.447L44.3528 5.50909ZM32.2686 12.001C33.4397 10.8443 34.5657 10.2576 35.617 10.2576C36.5011 10.2576 37.3926 10.6523 38.4305 11.505C39.1278 12.0641 40.7981 13.725 41.3232 14.4439C41.3469 14.4761 41.3743 14.5072 41.4046 14.5364C42.5277 15.9849 43.2852 17.8167 40.6973 20.429C40.2072 20.7676 36.5189 23.3002 32.769 25.3763C30.4897 25.3336 28.915 24.7915 27.57 24.4666C27.3599 23.6775 27.0811 22.9621 26.6929 22.2323C26.65 22.1515 26.6036 22.0731 26.5586 21.9937C26.5016 21.8933 26.4488 21.7902 26.3885 21.6919C28.5502 17.4106 31.8757 12.5692 32.2686 12.001ZM24.8859 22.1599C24.8907 22.1667 24.8956 22.1733 24.9005 22.1799C24.9204 22.2094 24.9365 22.2414 24.956 22.2712C25.2926 22.7843 25.5974 23.3778 25.8521 24.0789C23.4505 23.5608 21.1367 23.4485 19.7234 25.4014C19.6613 25.4865 19.6043 25.5693 19.5511 25.6511L19.1627 25.5516C18.3304 25.3381 17.4463 25.8597 17.2317 26.6876L16.9669 27.7192C16.7509 28.5648 17.2598 29.4297 18.1032 29.6479L18.8068 29.8283C18.8943 29.9501 19.083 33.2347 24.6285 35.2517C24.5781 36.3907 24.7343 37.4904 25.0953 38.531C23.2013 37.0617 20.777 36.2597 18.0707 36.2094C14.9538 36.1524 11.874 34.5211 10.2249 32.0542C7.40212 27.8192 9.83354 22.8801 14.5595 20.3388C19.0719 18.1074 23.0122 19.4212 24.8859 22.1599ZM18.9052 27.0497C18.8445 27.2555 18.7977 27.4647 18.7611 27.6759C18.7517 27.7304 18.7485 27.7855 18.7406 27.8402C18.7219 27.9713 18.7006 28.102 18.6914 28.2344L18.4813 28.1805C18.4443 28.1713 18.4243 28.1339 18.4347 28.0951L18.6988 27.0663C18.7066 27.0357 18.738 27.0223 18.7727 27.0209C18.7771 27.021 18.7809 27.0183 18.7854 27.019L18.9052 27.0497ZM17.9257 13.8262C17.7659 15.1996 17.2665 16.5964 16.4401 17.9825C16.3721 17.9991 16.3047 18.0165 16.2374 18.0346C16.7679 15.3505 16.7452 12.1263 15.3585 9.90288C16.2099 9.83015 18.2473 11.0804 17.9257 13.8262ZM14.8035 17.4656C14.4345 14.5891 13.1629 11.0929 10.9322 9.28477C14.0881 8.35476 15.7171 12.9494 14.8035 17.4656ZM7.71543 9.5818C11.3413 9.5818 13.28 15.3788 13.4271 19.235C13.0569 19.4489 12.3635 19.8954 11.8708 20.273C3.39414 16.3607 3.59149 9.5818 7.71543 9.5818ZM3.62941 14.1587C4.43618 16.9123 7.17647 19.4236 9.74161 20.8847C7.47166 20.4331 4.21201 19.0098 3.32312 16.8779C2.90808 15.8914 3.04865 14.8734 3.62941 14.1587ZM2.50118 18.4889C4.0056 20.6022 7.07956 21.937 9.68113 22.4173C9.6397 22.4702 9.59827 22.5235 9.55758 22.5771C4.3868 23.328 1.29398 20.8247 2.50118 18.4889Z" fill="#4D4D4D"/>
<path d="M37.7979 19.517C38.0937 19.8128 38.5729 19.8129 38.8692 19.5174C39.1651 19.2214 39.1651 18.7417 38.8692 18.4457L38.1782 17.7544C37.8823 17.4584 37.4029 17.4588 37.1069 17.754C36.811 18.0499 36.811 18.5297 37.1069 18.8256L37.7979 19.517ZM33.4611 16.5962C33.7572 16.8916 34.2364 16.8917 34.5324 16.5958C34.8283 16.2999 34.8283 15.8201 34.5324 15.5242L33.8406 14.8328C33.5447 14.5376 33.0653 14.5373 32.7694 14.8332C32.4735 15.1291 32.4735 15.6089 32.7694 15.9048L33.4611 16.5962ZM33.5506 20.6434C33.2547 20.9393 33.2547 21.4191 33.5506 21.715L34.2424 22.4064C34.5385 22.7018 35.0177 22.7019 35.3136 22.406C35.6096 22.1101 35.6096 21.6303 35.3136 21.3344L34.6219 20.643C34.326 20.3478 33.8466 20.3474 33.5506 20.6434ZM29.8833 20.2424C30.1793 20.5383 30.6587 20.5383 30.9546 20.2424C31.2505 19.9464 31.2505 19.467 30.9546 19.1711L30.2629 18.4794C29.9669 18.1835 29.4875 18.1835 29.1916 18.4794C28.8957 18.7753 28.8957 19.2547 29.1916 19.5506L29.8833 20.2424ZM29.6422 24.3121C30.4018 23.5525 29.1585 22.8581 28.9504 22.5491C28.6545 22.2532 28.1751 22.2532 27.8792 22.5491C27.5832 22.8451 27.5832 23.3245 27.8792 23.6204C28.2685 23.9646 28.9497 25.0046 29.6422 24.3121Z" fill="#4D4D4D"/>
</svg>
