<svg width="55" height="44" fill="none" xmlns="http://www.w3.org/2000/svg"><g clip-path="url(#a)" fill="#fff"><path d="m40.414 19.156-8.812-1.197-3.95-7.782-3.95 7.782-8.812 1.197 6.38 5.987-1.518 8.68 7.9-3.891 7.9 3.891-1.519-8.68 6.381-5.987z"/><path d="M16.105 40.408c0-2.394-2.431-4.789-3.039-5.088-.607 2.694-.304 4.19.304 5.088-.911-.599-1.52-1.197-2.43-2.095.303 0 .607-.3.91-.898.912-2.395-.91-5.088-1.518-5.687-1.216 2.395-1.216 3.891-.912 4.789-.608-.898-1.216-1.796-1.823-2.993.304 0 .911 0 1.519-.599 1.216-2.095.304-5.088 0-5.986-1.823 2.095-2.43 3.592-2.43 4.49-.609-.898-.913-2.395-1.216-3.592.303.3.911.3 1.519-.3 1.823-1.496 2.127-4.789 1.823-5.687-2.43 1.497-3.342 2.694-3.646 3.891 0-.898-.304-1.496-.304-2.394 0-.599 0-1.197.304-1.796.304.3.607.3 1.52.3 2.126-.899 3.342-4.191 3.342-4.79-3.04.599-4.255 1.497-4.862 2.395.304-1.197.304-2.395.607-3.293.304.3.608.3 1.52.3 2.43-.3 4.254-3.293 4.254-4.19-3.039 0-4.254.598-5.166 1.496.304-1.198.912-2.095 1.216-3.293.304.3.607.599 1.215.599 2.127 0 4.254-2.095 4.862-2.694-2.43-.3-3.95 0-4.862.599.608-.898 1.216-1.497 1.823-2.395 0 .3.304.3.912.599 1.823 0 3.646-1.796 3.95-2.395-1.52-.3-2.735-.3-3.342-.3l.911-.897h.912c1.52-.599 2.43-2.993 2.43-3.592-4.557 1.197-3.646 3.592-3.646 3.592-.607.598-1.215 1.197-1.823 1.496.304-1.795-.911-3.591-1.52-4.19-1.822 4.49.305 5.388.305 5.388h.304L8.204 8.98c.304-2.096-1.215-4.19-1.823-4.49-2.43 4.789.608 5.986.608 5.986h.608c-.608 1.197-1.216 2.395-1.52 3.592-.304-2.095-2.43-3.891-3.038-4.49-1.52 5.987 1.823 6.585 1.823 6.585.304 0 .304 0 .608-.3-.304 1.198-.608 2.396-.608 3.593-.608-2.096-3.039-3.592-3.647-3.592-.303 5.986 3.04 5.986 3.04 5.986.303 0 .303 0 .303-.299v1.497c0 .898.304 1.796.304 2.694C3.342 24.244.608 23.645 0 23.645c1.52 5.687 4.862 4.79 4.862 4.79l.304-.3c.304 1.497.911 2.993 1.215 4.19-1.823-1.197-4.558-1.197-5.47-.897 3.343 4.789 6.078 2.993 6.078 2.993v-.3c.608 1.198 1.52 2.395 2.43 3.293-2.126-.898-4.861 0-5.773.3 4.558 3.89 6.686 1.496 6.686 1.496v-.599c.911.898 2.127 1.796 3.038 2.395-2.127-.3-4.558 1.496-5.166 2.095 5.774 2.395 6.99-.599 6.99-.599v-.598c1.823.898 3.342 1.197 3.342 1.197v-.3s-1.52-.299-3.343-1.197c.608 0 .912-.299.912-1.197zM48.619 32.327c.608-1.198.912-2.694 1.215-4.19l.304.298s3.343.898 4.862-4.789c-.608 0-3.343.599-4.862 2.395 0-.898.304-1.796.304-2.694V21.85l.304.3s3.343 0 3.039-5.987c-.608.3-3.04 1.796-3.647 3.592-.304-1.197-.304-2.395-.607-3.592.303 0 .303.3.607.3 0 0 3.343-.6 1.823-6.585-.607.299-2.734 2.394-3.038 4.49-.304-1.198-.912-2.395-1.52-3.593h.608s2.735-1.197.304-6.285c-.608.598-1.823 2.694-1.823 4.49l-1.823-2.694h.303s2.431-.898.304-5.089c-.607.3-1.823 2.395-1.519 4.19-.608-.598-.912-1.197-1.52-1.795 0 0 .608-2.395-3.646-3.592 0 .599.608 2.993 2.431 3.891.608.3.912 0 .912 0l.911.898c-.607-.3-1.823-.3-3.342 0 .304.599 2.127 2.395 3.95 2.395.608 0 .912-.3.912-.599.607.898 1.215 1.497 1.823 2.395-.912-.6-2.431-.898-4.862-.3.304.599 2.431 2.694 4.862 2.694.608 0 .911-.3 1.215-.599.608.899.912 2.096 1.216 3.293-.912-.898-2.127-1.497-5.166-1.497.304.898 1.823 3.592 4.254 4.19.608 0 1.216 0 1.216-.298.304 1.197.304 2.095.608 3.292-.608-.898-1.824-2.095-4.862-2.395 0 .899 1.215 3.892 3.646 4.79.912.299 1.216 0 1.52-.3 0 .599 0 1.198.303 1.796 0 .898-.304 1.497-.304 2.395-.303-1.198-1.215-2.395-3.646-3.891-.304.898 0 4.19 1.823 5.687.608.598 1.216.3 1.52.3-.304 1.496-.608 2.693-1.216 3.89 0-1.197-.608-2.694-2.43-4.49-.305.6-1.52 3.892 0 5.987.607.598.91.898 1.518.598-.607 1.198-1.215 2.096-1.823 2.994.304-1.198 0-2.694-1.215-4.79-.608.6-2.431 3.293-1.52 5.688.304.598.608.898.912.898-.912.898-1.52 1.496-2.43 2.095.607-.898.91-2.395.303-5.089-.608.3-3.343 2.694-3.039 5.089 0 .898.304 1.197.608 1.197-1.823.898-3.343 1.197-3.343 1.197v.3s1.52-.3 3.343-1.198v.599s1.215 2.993 6.685.599c-.608-.599-2.735-2.096-5.166-2.096.912-.598 1.823-1.496 3.039-2.394v.599s2.127 2.394 6.685-1.497c-.608-.3-3.646-1.197-5.773-.3.911-.897 1.519-2.095 2.43-3.292v.3s2.735 2.095 6.078-2.994c.304-.898-2.735-.898-4.558.3z"/></g><defs><clipPath id="a"><path fill="#fff" d="M0 0h55v44H0z"/></clipPath></defs></svg>