<svg width="16" height="16" fill="none" xmlns="http://www.w3.org/2000/svg"><g clip-path="url(#a)"><path d="m15.391 12.516-3.14-3.141a.9.9 0 0 0-.665-.266.954.954 0 0 0-.68.266l-.828.828a.927.927 0 0 0-.25.445.875.875 0 0 0 .016.493l-.312.312c-.105.104-.461.042-1.07-.187-.61-.23-1.326-.756-2.15-1.579-.822-.822-1.348-1.539-1.577-2.148-.23-.61-.292-.966-.188-1.07l.313-.313.133.032c.046.01.09.015.132.015a.94.94 0 0 0 .672-.281l.828-.828a.954.954 0 0 0 .266-.68.901.901 0 0 0-.266-.664L3.485.61a.947.947 0 0 0-.688-.282.94.94 0 0 0-.672.281l-.812.813a.927.927 0 0 0-.25.445 1.047 1.047 0 0 0 0 .508l-.133.133-.133.133C.36 3.13.102 3.742.024 4.477c-.078.734.028 1.554.32 2.46.136.448.313.902.531 1.36.22.448.474.896.766 1.344.292.447.615.89.969 1.328.354.437.734.864 1.14 1.281.417.406.844.787 1.282 1.14.437.355.88.678 1.328.97.448.291.896.546 1.343.765a9.62 9.62 0 0 0 1.36.531c.354.115.698.2 1.031.258.333.057.651.086.953.086.5 0 .953-.075 1.36-.227a2.878 2.878 0 0 0 1.046-.664l.172-.171c.052.01.1.018.141.023a1.007 1.007 0 0 0 .5-.063.947.947 0 0 0 .313-.21l.812-.813a.926.926 0 0 0 .281-.68.926.926 0 0 0-.281-.68zM2.797 1.28l3.14 3.14-.812.813-3.14-3.14.812-.813zm9.985 13.14c-.344.345-.813.545-1.407.602-.593.058-1.27-.033-2.03-.273a10.952 10.952 0 0 1-1.235-.5 13.845 13.845 0 0 1-1.25-.71 12.774 12.774 0 0 1-1.235-.9 16.318 16.318 0 0 1-1.187-1.078 16.33 16.33 0 0 1-1.078-1.187 12.773 12.773 0 0 1-.899-1.234 13.85 13.85 0 0 1-.71-1.25 10.953 10.953 0 0 1-.5-1.235C1.01 5.896.92 5.22.976 4.625c.057-.594.258-1.063.601-1.406l.079-.094 2.437 2.438-.219.218c-.229.24-.343.537-.343.89.01.355.104.74.28 1.157.178.417.428.85.75 1.297.324.438.678.854 1.063 1.25a10.354 10.354 0 0 0 1.899 1.484c.672.407 1.273.61 1.804.61a1.282 1.282 0 0 0 .89-.344l.22-.219 2.437 2.438-.093.078zm1.125-.405-3.141-3.141.813-.813 3.14 3.141-.406.406-.406.407zm-1.75-10.172a4.944 4.944 0 0 0-1.57-1.04 4.774 4.774 0 0 0-1.852-.366.468.468 0 0 0-.344.14.45.45 0 0 0-.14.328c0 .136.046.25.14.344.094.094.208.14.344.14.52 0 1.015.1 1.484.297.469.198.886.48 1.25.844.365.365.646.782.844 1.25.198.469.297.964.297 1.485 0 .135.047.25.14.343.094.094.209.141.344.141a.45.45 0 0 0 .328-.14.467.467 0 0 0 .14-.344c0-.646-.122-1.263-.366-1.852a4.945 4.945 0 0 0-1.04-1.57zm1.718-1.719a7.033 7.033 0 0 0-1.109-.906 6.583 6.583 0 0 0-1.25-.672 7.575 7.575 0 0 0-1.36-.406A7.079 7.079 0 0 0 8.736 0a.468.468 0 0 0-.344.14.468.468 0 0 0-.14.344.45.45 0 0 0 .14.329c.094.093.208.14.344.14.843 0 1.648.159 2.414.477a6.128 6.128 0 0 1 2.039 1.383 6.13 6.13 0 0 1 1.383 2.039c.317.765.476 1.57.476 2.414 0 .135.047.25.14.343a.45.45 0 0 0 .329.141c.135 0 .25-.047.344-.14a.467.467 0 0 0 .14-.344c0-.49-.046-.964-.14-1.422a7.568 7.568 0 0 0-.406-1.36 6.584 6.584 0 0 0-.672-1.25 7.03 7.03 0 0 0-.907-1.109zm-3.453 3.453a2.19 2.19 0 0 0-.773-.531 2.438 2.438 0 0 0-.914-.172.468.468 0 0 0-.344.14.45.45 0 0 0-.14.329c0 .135.046.25.14.343.094.094.208.141.344.141a1.405 1.405 0 0 1 1.015.422 1.404 1.404 0 0 1 .422 1.016c0 .135.047.25.14.343.095.094.21.141.345.141a.45.45 0 0 0 .328-.14.467.467 0 0 0 .14-.344c0-.323-.057-.628-.171-.914a2.191 2.191 0 0 0-.532-.774z" fill="#fff"/></g><defs><clipPath id="a"><path fill="#fff" transform="matrix(1 0 0 -1 0 16)" d="M0 0h16v16H0z"/></clipPath></defs></svg>