<svg xmlns="http://www.w3.org/2000/svg" viewBox="0 0 24 24">
  <defs>
    <linearGradient id="gradient1" x1="0%" y1="0%" x2="100%" y2="0%">
      <stop offset="0%" style="stop-color:#10733E; stop-opacity:1" />
      <stop offset="100%" style="stop-color:#47A070; stop-opacity:1" />
    </linearGradient>
  </defs>
  <path fill="url(#gradient1)" d="M13.41,12l6.3-6.29a1,1,0,1,0-1.42-1.42L12,10.59,5.71,4.29A1,1,0,0,0,4.29,5.71L10.59,12l-6.3,6.29a1,1,0,0,0,0,1.42,1,1,0,0,0,1.42,0L12,13.41l6.29,6.3a1,1,0,0,0,1.42,0,1,1,0,0,0,0-1.42Z"/>
</svg>
