<svg width="54" height="54" fill="none" xmlns="http://www.w3.org/2000/svg"><path d="M38.346 45.533H15.594A.593.593 0 0 1 15 44.94V34.6c0-4.24 3.45-7.688 7.688-7.688h8.561c4.24 0 7.69 3.449 7.69 7.688v10.34a.592.592 0 0 1-.594.593zm-22.16-1.186h21.568V34.6a6.51 6.51 0 0 0-6.504-6.504h-8.56a6.51 6.51 0 0 0-6.504 6.504v9.747z" fill="#fff"/><path d="M21.474 45.533a.592.592 0 0 1-.593-.593v-8.857a.593.593 0 1 1 1.185 0v8.857a.592.592 0 0 1-.592.593zM32.467 45.533a.592.592 0 0 1-.593-.593v-8.857a.592.592 0 1 1 1.186 0v8.857a.592.592 0 0 1-.593.593zM27.278 24.446h-.615a6.621 6.621 0 0 1-6.614-6.614v-2.813a6.621 6.621 0 0 1 6.614-6.613h.615a6.62 6.62 0 0 1 6.614 6.614v2.812a6.62 6.62 0 0 1-6.614 6.614zm-.615-14.854a5.434 5.434 0 0 0-5.429 5.428v2.813a5.434 5.434 0 0 0 5.429 5.428h.615a5.435 5.435 0 0 0 5.428-5.428V15.02a5.434 5.434 0 0 0-5.428-5.428h-.615zM53.05 38.658H42.087a.592.592 0 1 1 0-1.185h10.37v-7.77a5.152 5.152 0 0 0-5.145-5.146h-6.924c-1.22 0-2.403.434-3.33 1.223a.592.592 0 1 1-.768-.903 6.33 6.33 0 0 1 4.098-1.506h6.925a6.34 6.34 0 0 1 6.33 6.332v8.363a.593.593 0 0 1-.593.592z" fill="#fff"/><path d="M48.295 38.658a.592.592 0 0 1-.593-.592v-7.164a.592.592 0 1 1 1.186 0v7.164a.593.593 0 0 1-.593.592zM44.099 21.604H43.6a5.468 5.468 0 0 1-5.462-5.461v-2.275A5.468 5.468 0 0 1 43.6 8.406h.498a5.468 5.468 0 0 1 5.461 5.462v2.275a5.467 5.467 0 0 1-5.461 5.461zM43.6 9.592a4.28 4.28 0 0 0-4.276 4.276v2.275a4.28 4.28 0 0 0 4.276 4.276h.498a4.28 4.28 0 0 0 4.276-4.276v-2.275A4.28 4.28 0 0 0 44.1 9.592h-.498zM11.853 38.658H.89a.593.593 0 0 1-.593-.592v-8.363a6.339 6.339 0 0 1 6.33-6.332h6.925c1.5 0 2.956.535 4.099 1.506a.593.593 0 0 1-.768.904 5.147 5.147 0 0 0-3.331-1.224H6.628a5.152 5.152 0 0 0-5.146 5.146v7.77h10.371a.593.593 0 1 1 0 1.185z" fill="#fff"/><path d="M5.644 38.658a.593.593 0 0 1-.592-.592v-7.164a.593.593 0 1 1 1.185 0v7.164a.593.593 0 0 1-.593.592zM10.338 21.604h-.497a5.468 5.468 0 0 1-5.462-5.461v-2.275A5.468 5.468 0 0 1 9.84 8.406h.497a5.468 5.468 0 0 1 5.462 5.462v2.275a5.467 5.467 0 0 1-5.462 5.461zM9.841 9.592a4.28 4.28 0 0 0-4.277 4.276v2.275a4.28 4.28 0 0 0 4.277 4.276h.497a4.28 4.28 0 0 0 4.276-4.276v-2.275a4.28 4.28 0 0 0-4.276-4.276h-.497z" fill="#fff"/></svg>