<svg width="54" height="46" fill="none" xmlns="http://www.w3.org/2000/svg"><path d="M26.994 21.84a3.532 3.532 0 0 1-3.529-3.529v-1.678a3.533 3.533 0 0 1 3.529-3.528 3.533 3.533 0 0 1 3.529 3.528v1.678a3.533 3.533 0 0 1-3.53 3.529zm2.343-5.207a2.345 2.345 0 0 0-2.343-2.343 2.346 2.346 0 0 0-2.343 2.343v1.678a2.346 2.346 0 0 0 2.343 2.343 2.346 2.346 0 0 0 2.343-2.343v-1.678zM14.071 18.311v-1.678a3.532 3.532 0 0 1 3.528-3.528 3.533 3.533 0 0 1 3.529 3.528v1.678a3.533 3.533 0 0 1-3.529 3.529 3.532 3.532 0 0 1-3.528-3.529zm5.871 0v-1.678A2.346 2.346 0 0 0 17.6 14.29a2.345 2.345 0 0 0-2.342 2.343v1.678a2.345 2.345 0 0 0 2.342 2.343 2.346 2.346 0 0 0 2.343-2.343zM39.917 16.633v1.678a3.533 3.533 0 0 1-3.529 3.529 3.532 3.532 0 0 1-3.528-3.529v-1.678a3.533 3.533 0 0 1 3.528-3.528 3.533 3.533 0 0 1 3.529 3.528zm-5.872 0v1.678a2.346 2.346 0 0 0 2.343 2.343 2.346 2.346 0 0 0 2.343-2.343v-1.678a2.345 2.345 0 0 0-2.343-2.343 2.345 2.345 0 0 0-2.343 2.343zM20.922 32.864v-5.616c0-.189.015-.375.037-.558.007-.052.015-.103.024-.155.022-.14.05-.278.084-.414l.036-.138c.105-.37.256-.72.445-1.045l.013-.026a3.389 3.389 0 0 0-2.506-1.095h-2.91a3.436 3.436 0 0 0-3.431 3.432v1.461a.592.592 0 1 1-1.186 0V27.25a4.622 4.622 0 0 1 4.617-4.617h2.91c1.215 0 2.377.494 3.235 1.34a4.6 4.6 0 0 1 3.25-1.34h2.909c1.266 0 2.413.513 3.249 1.34a4.627 4.627 0 0 1 3.235-1.34h2.91a4.622 4.622 0 0 1 4.617 4.617v1.461a.593.593 0 1 1-1.185 0V27.25a3.436 3.436 0 0 0-3.432-3.432h-2.91a3.39 3.39 0 0 0-2.507 1.095l.015.029a4.609 4.609 0 0 1 .48 1.185c.035.134.062.27.084.408.008.053.017.105.024.158.022.183.037.368.037.557v5.616a.592.592 0 1 1-1.185 0V27.25a3.394 3.394 0 0 0-.054-.587 3.426 3.426 0 0 0-.114-.468l-.01-.028a3.375 3.375 0 0 0-.195-.465l-.009-.019a3.512 3.512 0 0 0-.28-.45 3.426 3.426 0 0 0-2.769-1.415h-2.91a3.427 3.427 0 0 0-2.766 1.41c-.108.147-.203.3-.285.46l-.003.005c-.08.155-.147.316-.202.48l-.007.019c-.05.154-.087.313-.115.473-.006.032-.01.065-.014.098-.024.16-.039.322-.039.487v5.616a.594.594 0 0 1-1.187 0z" fill="#fff"/><path d="M27.03 42.456c10.745 0 19.487-8.741 19.487-19.487a19.44 19.44 0 0 0-4.469-12.406l-1.395 2.408a.593.593 0 0 1-.513.296c-.208-.017-.408-.113-.514-.297L32.764 1.041a.593.593 0 0 1 .514-.888l13.763.02a.591.591 0 0 1 .512.89l-1.728 2.982c5.012 4.982 7.878 11.851 7.878 18.925a.593.593 0 0 1-1.185 0c0-6.908-2.86-13.613-7.848-18.395a.592.592 0 0 1-.103-.725l1.445-2.493-11.708-.017 5.838 10.148 1.299-2.24a.591.591 0 0 1 .953-.099 20.633 20.633 0 0 1 5.308 13.82c0 11.399-9.274 20.673-20.672 20.673a.593.593 0 1 1 0-1.186zM8.236 41.894C3.224 36.913.357 30.044.357 22.97a.593.593 0 1 1 1.186 0c0 6.907 2.86 13.612 7.848 18.394.196.189.239.488.102.725l-1.445 2.493 11.709.017-5.839-10.148-1.298 2.24a.59.59 0 0 1-.451.292.599.599 0 0 1-.502-.193 20.633 20.633 0 0 1-5.309-13.82c0-11.4 9.274-20.673 20.672-20.673a.593.593 0 0 1 0 1.186c-10.745 0-19.486 8.742-19.486 19.487 0 4.541 1.58 8.916 4.468 12.407l1.395-2.409a.593.593 0 0 1 1.027.001l6.862 11.928a.593.593 0 0 1-.514.889l-13.762-.02a.594.594 0 0 1-.513-.889l1.729-2.983z" fill="#fff"/></svg>