<svg width="24" height="24" fill="none" xmlns="http://www.w3.org/2000/svg"><path d="M19.762 4.5H4.239A2.745 2.745 0 0 0 1.5 7.237v9.525A2.745 2.745 0 0 0 4.237 19.5h15.525a2.745 2.745 0 0 0 2.738-2.738V7.239A2.745 2.745 0 0 0 19.762 4.5zM21 16.762A1.237 1.237 0 0 1 19.762 18H4.239A1.237 1.237 0 0 1 3 16.762V7.239A1.237 1.237 0 0 1 4.237 6h15.525A1.237 1.237 0 0 1 21 7.237v9.525z" fill="#CAC4DB"/><path d="M19.117 7.778 12 12.045 4.883 7.778a.75.75 0 1 0-.75 1.29l7.5 4.5a.75.75 0 0 0 .75 0l7.5-4.5a.75.75 0 0 0-.75-1.29h-.015z" fill="url(#a)"/><defs><linearGradient id="a" x1="3.691" y1="10.651" x2="20.191" y2="10.651" gradientUnits="userSpaceOnUse"><stop stop-color="#10733E"/><stop offset="1" stop-color="#47A070"/></linearGradient></defs></svg>