<svg width="54" height="54" fill="none" xmlns="http://www.w3.org/2000/svg"><path d="m34.398 29.19-2.585-.436c-.714-.12-1.232-.677-1.232-1.339l-.01-.417a6.781 6.781 0 0 0 2.02-4.278v-.005l.001-.006.195-3.02c1.094-1.683 1.45-3.199 1.044-4.505-.375-1.206-1.392-2.215-3.026-3.004.127-.074.29-.16.5-.257a.591.591 0 0 0-.039-1.093c-3.036-1.14-6.9-1-8.803 1.834-1.017.4-1.757 1.147-2.096 2.12-.482 1.385-.126 3.12.99 4.898l.183 3.039a6.785 6.785 0 0 0 2.031 4.288l-.01.422c0 .648-.518 1.204-1.233 1.325l-2.584.435c-.985.165-1.844.721-2.357 1.525-.32.5-.489 1.073-.489 1.657v10.91c0 .328.266.593.593.593h19.16a.592.592 0 0 0 .592-.593V32.372c0-1.566-1.197-2.904-2.845-3.183zM21.486 15.172c.24-.693.779-1.198 1.555-1.46a.598.598 0 0 0 .315-.25c.939-1.515 2.59-2.12 4.341-2.12.643 0 1.298.082 1.938.23-.226.212-.362.433-.419.673a.593.593 0 0 0 .358.69c1.753.693 2.804 1.568 3.124 2.6.18.58.14 1.243-.122 1.983a1.08 1.08 0 0 0-.232-.292.958.958 0 0 0-.82-.222c-1.095.171-2.303.253-3.71-.285-1.605-.672-3.625-1.333-5.004-.473-.513.32-.89.807-1.136 1.473-.368-.956-.437-1.83-.188-2.547zm1.235 7.461-.189-3.126c.074-1.167.378-1.926.906-2.256.929-.579 2.681.044 3.936.568 1.62.62 3.023.55 4.206.375.043.159.078.507.033 1.268l-.204 3.162a5.6 5.6 0 0 1-3.667 4.783 1.982 1.982 0 0 1-1.353 0 5.596 5.596 0 0 1-3.668-4.774zm1.98 5.262c.4.25.83.462 1.285.627a3.166 3.166 0 0 0 2.159 0 6.75 6.75 0 0 0 1.296-.633c.137.7.584 1.303 1.212 1.677l-3.587 3.67-3.584-3.666c.632-.373 1.083-.977 1.22-1.675zM36.058 42.69h-3.833v-3.874a.592.592 0 1 0-1.185 0v3.874h-7.936v-3.874a.593.593 0 1 0-1.186 0v3.874h-3.833V32.372c0-.358.104-.71.302-1.02.333-.521.9-.883 1.554-.994l2.28-.384 4.422 4.524a.594.594 0 0 0 .847 0l4.423-4.525 2.289.385c1.075.181 1.856 1.027 1.856 2.013V42.69z" fill="#fff"/><path d="m51.142 26.701-2.207-.372c-.568-.095-.98-.535-.98-1.059l-.007-.32c.068-.068.125-.145.19-.216h2.686c.87 0 1.576-.707 1.576-1.576v-6.13c0-3.624-3.377-6.574-7.527-6.574-4.151 0-7.528 2.95-7.528 6.575v6.129c0 .868.707 1.576 1.577 1.576h2.676c.068.074.128.156.2.227l-.008.324c0 .51-.412.95-.98 1.045l-2.206.372a3.08 3.08 0 0 0-1.845 1.034.593.593 0 1 0 .906.765 1.89 1.89 0 0 1 1.136-.63l1.9-.32 3.744 3.83a.593.593 0 0 0 .847 0l3.744-3.831 1.91.321c.875.147 1.511.833 1.511 1.632v8.72h-3.099v-3.219a.592.592 0 1 0-1.185 0v3.22h-6.6v-3.22a.592.592 0 1 0-1.186 0v3.22h-1.29a.592.592 0 1 0 0 1.185H53.05a.592.592 0 0 0 .593-.593v-9.313c0-1.38-1.052-2.558-2.501-2.802zm-5.726-1.517a1.61 1.61 0 0 1-1.096 0 4.689 4.689 0 0 1-3.074-3.998l-.155-2.573c.57-1.465 1.809-1.366 3.918-1.062 1.184.171 2.487.356 3.615-.012l-.135 3.638a4.694 4.694 0 0 1-3.073 4.007zm-6.494-1.635a.392.392 0 0 1-.392-.391v-6.13c0-2.971 2.845-5.388 6.343-5.388 3.497 0 6.342 2.417 6.342 5.389v6.129a.392.392 0 0 1-.391.39h-1.837a5.84 5.84 0 0 0 .684-2.277l-.002-.014c0-.005.004-.009.004-.014l.174-4.668c0-.028-.01-.052-.013-.08-.005-.041-.007-.082-.02-.122-.014-.041-.035-.076-.057-.113-.013-.023-.018-.05-.035-.072l-.019-.016c-.027-.032-.061-.056-.095-.082-.029-.021-.054-.046-.085-.062-.03-.015-.065-.022-.098-.032-.042-.012-.081-.027-.125-.03-.008 0-.015-.005-.023-.006-.029-.001-.054.01-.081.013-.041.004-.08.007-.12.02-.039.012-.072.033-.107.053-.026.015-.055.02-.079.04-.896.698-2.263.5-3.711.29-1.934-.278-4.342-.626-5.245 1.94v.003c-.005.014-.003.029-.007.043a.587.587 0 0 0-.026.189v.001l.164 2.717c.068.813.31 1.583.684 2.278H38.92v.002zm5.946 6.569-2.924-2.991c.48-.314.825-.782.961-1.323.32.192.653.366 1.012.496a2.8 2.8 0 0 0 1.901 0 5.83 5.83 0 0 0 1.022-.502c.135.543.477 1.01.955 1.324l-2.927 2.995zM17.424 28.685a.593.593 0 0 0 .18-.819c-.454-.713-1.217-1.207-2.09-1.354l-2.234-.376c-.578-.098-.998-.546-.999-1.08l-.008-.327a5.939 5.939 0 0 0 1.745-3.722V21l.001-.006.167-2.59c.95-1.468 1.257-2.795.9-3.942-.32-1.03-1.166-1.894-2.519-2.577.083-.044.18-.092.293-.144a.593.593 0 0 0-.04-1.093c-2.646-.994-6.014-.872-7.688 1.594-.89.357-1.537 1.015-1.835 1.872-.422 1.216-.115 2.731.853 4.283l.157 2.608a5.94 5.94 0 0 0 1.755 3.733l-.008.33c0 .52-.42.968-.998 1.066l-2.233.376c-1.464.248-2.526 1.437-2.526 2.83v9.429c0 .328.265.592.593.592h14.155a.592.592 0 1 0 0-1.185h-1.343V34.91a.593.593 0 1 0-1.186 0v3.267H5.82V34.91a.593.593 0 1 0-1.185 0v3.267H1.482v-8.835c0-.812.647-1.511 1.537-1.661l1.928-.325 3.792 3.88a.594.594 0 0 0 .848 0l3.793-3.881 1.936.326a1.89 1.89 0 0 1 1.29.823.592.592 0 0 0 .818.181zM4.418 14.505c.2-.575.647-.994 1.293-1.212a.597.597 0 0 0 .315-.25c.795-1.282 2.195-1.793 3.683-1.793.502 0 1.014.058 1.516.165a1.17 1.17 0 0 0-.281.517.593.593 0 0 0 .358.688c1.49.59 2.383 1.329 2.653 2.197.137.444.12.948-.053 1.506a.911.911 0 0 0-.897-.341c-.935.146-1.967.216-3.162-.24-1.406-.59-3.175-1.167-4.398-.404-.408.255-.719.624-.936 1.117-.249-.731-.283-1.398-.091-1.95zm.91 3.72c.062-.979.312-1.612.744-1.882.771-.48 2.26.05 3.33.497 1.382.529 2.58.482 3.6.34.027.151.043.443.01 1l-.175 2.728a4.759 4.759 0 0 1-3.116 4.067 1.639 1.639 0 0 1-1.114 0 4.753 4.753 0 0 1-3.115-4.054l-.165-2.696zm3.835 11.748-2.97-3.04c.491-.318.844-.796.979-1.349a5.87 5.87 0 0 0 1.03.506 2.81 2.81 0 0 0 1.92 0h.002a5.9 5.9 0 0 0 1.04-.512c.136.555.487 1.033.975 1.351l-2.976 3.044z" fill="#fff"/></svg>