<svg width="37" height="37" fill="none" xmlns="http://www.w3.org/2000/svg"><path fill-rule="evenodd" clip-rule="evenodd" d="M18.421 0c10.185 0 18.422 8.184 18.422 18.316 0 10.105-8.237 18.316-18.422 18.316C8.237 36.632 0 28.448 0 18.316 0 8.211 8.263 0 18.421 0z" fill="#B01116"/><path fill-rule="evenodd" clip-rule="evenodd" d="M7.368 23.79c5.71-.711 4.631 3.13 7.184 6.21-4.447-.105-7.237-1.21-7.184-6.21zM13.633 22.527c5.131-2.632 5.42 1.368 8.895 3.395-4.237 1.394-7.237 1.315-8.895-3.395zM20.447 20.894c1.737-5.026 5.553-3.157 9.027-3.71-2.158 3.658-4.843 5.816-9.027 3.71zM24.947 15.21c-2.027-5.264 2.473-5.922 4.21-8.58.764 3.948.106 7.553-4.21 8.58zM16.238 18.605c-.737-5.5 2.974-5.132 5.92-7.869-.42 4.447-.867 7.632-5.92 7.869zM12.211 20.474c-1.026-2.237.106-4.132 1.843-5.29-.343 2.58 1.026 4.658-1.843 5.29zM10.29 21.947c-1.317-.316-1.58-2.685-.922-3.79.474 1.421 2.316 2.263.921 3.79z" fill="#fff"/></svg>