<svg width="49" height="50" fill="none" xmlns="http://www.w3.org/2000/svg"><path d="M46.04 32.569H27.296c-8.01 0-14.524 6.718-14.524 14.975v.036c0 .605.477 1.094 1.066 1.094.589 0 1.066-.49 1.066-1.094v-.035c0-7.052 5.559-12.789 12.392-12.789H46.04c.589 0 1.066-.49 1.066-1.093 0-.604-.477-1.094-1.066-1.094z" fill="#4D4D4D"/><path d="M46.04 37.24h-18.7c-5.53 0-10.03 4.638-10.03 10.34 0 .604.477 1.094 1.066 1.094.589 0 1.066-.49 1.066-1.094 0-4.496 3.543-8.153 7.898-8.153h18.7c.588 0 1.066-.49 1.066-1.094 0-.604-.478-1.094-1.067-1.094z" fill="#4D4D4D"/><path d="M46.04 41.91H27.785c-3.106 0-5.711 2.499-5.931 5.688-.042.602.4 1.125.988 1.168a1.078 1.078 0 0 0 1.14-1.014c.14-2.05 1.812-3.654 3.803-3.654H46.04c.589 0 1.066-.49 1.066-1.094 0-.604-.477-1.094-1.066-1.094zM27.422 30.085H46.04c.589 0 1.066-.49 1.066-1.094 0-.604-.477-1.093-1.066-1.093h-6.753v-6.294c.022-.002.044-.002.066-.005.808-.114 1.667-.784 2.552-1.99.033-.044 3.082-4.292 1.501-5.527a1.09 1.09 0 0 0-.448-.207c.713-1.34 1.373-3.092.448-3.815a1.092 1.092 0 0 0-.42-.2c.702-1.333 1.333-3.05.42-3.763-.17-.134-.465-.28-.9-.218-.662.093-1.487.685-2.24 1.39v-.004c0-.053.013-5.344-1.976-5.371-1.105-.008-1.528 1.55-1.67 2.063-.264.954-.43 2.17-.444 3.252v.063c-.753-.706-1.578-1.298-2.24-1.392-.434-.062-.73.085-.9.219-.914.713-.282 2.43.42 3.764a1.097 1.097 0 0 0-.42.199c-.925.723-.266 2.475.447 3.815a1.092 1.092 0 0 0-.448.207c-1.581 1.235 1.47 5.485 1.501 5.528.886 1.205 1.745 1.874 2.553 1.989.022.003.043.002.066.004v6.292H25.323v-6.293c.022-.003.044-.002.066-.005.809-.114 1.668-.784 2.553-1.99.035-.048 3.081-4.292 1.5-5.528a1.095 1.095 0 0 0-.447-.206c.713-1.34 1.373-3.092.448-3.815a1.095 1.095 0 0 0-.421-.2c.702-1.333 1.334-3.05.42-3.763-.17-.134-.465-.281-.9-.219-.661.094-1.487.686-2.24 1.391v-.004c0-.053.013-5.344-1.976-5.371h-.015c-1.083 0-1.513 1.551-1.655 2.063-.264.954-.43 2.17-.444 3.252v.062c-.753-.705-1.578-1.297-2.24-1.391-.436-.063-.73.084-.9.218-.914.714-.283 2.43.42 3.764a1.09 1.09 0 0 0-.42.2c-.925.722-.266 2.475.447 3.815a1.087 1.087 0 0 0-.447.207c-1.582 1.235 1.47 5.485 1.5 5.528.886 1.205 1.745 1.874 2.553 1.989.022.003.044.002.066.004v6.292H11.36v-6.293c.022-.003.043-.002.066-.005.808-.114 1.667-.784 2.552-1.99.031-.042 3.083-4.291 1.5-5.527a1.096 1.096 0 0 0-.447-.206c.713-1.34 1.373-3.093.448-3.816a1.096 1.096 0 0 0-.42-.2c.702-1.332 1.333-3.05.42-3.763-.171-.134-.466-.281-.901-.219-.66.094-1.486.686-2.24 1.391v-.004c.001-.053.014-5.344-1.975-5.371h-.016c-1.083 0-1.513 1.551-1.655 2.063-.264.954-.43 2.17-.444 3.252v.062c-.753-.705-1.578-1.297-2.24-1.391-.436-.063-.73.084-.9.218-.913.714-.283 2.43.42 3.764a1.091 1.091 0 0 0-.42.2c-.925.722-.266 2.475.447 3.815a1.09 1.09 0 0 0-.447.206c-1.582 1.236 1.47 5.486 1.5 5.528.886 1.206 1.745 1.875 2.553 1.99.023.003.044.002.066.004v6.292H2.474c-.588 0-1.066.49-1.066 1.094 0 .604.478 1.093 1.066 1.093h16.198a19.23 19.23 0 0 0-3.61 2.484H2.474c-.588 0-1.066.49-1.066 1.094 0 .604.478 1.093 1.066 1.093H12.92a19.87 19.87 0 0 0-1.778 2.484H2.474c-.588 0-1.066.49-1.066 1.093 0 .604.478 1.094 1.066 1.094h7.524c-.358.801-.669 1.63-.921 2.483H2.474c-.588 0-1.066.49-1.066 1.094 0 .604.478 1.094 1.066 1.094h6.09a20.398 20.398 0 0 0-.32 3.577c0 .604.477 1.094 1.066 1.094.589 0 1.066-.49 1.066-1.094 0-9.698 7.647-17.589 17.046-17.589zm8.33-11.413c-.851-1.16-1.39-2.363-1.58-3.05.589.376 1.563 1.236 2.41 2.39.95 1.293.936 1.935.824 2.023-.017.012-.036.029-.109.018-.286-.04-.842-.424-1.544-1.381zm.83-8.644c.95 1.291.935 1.934.823 2.021-.015.012-.036.029-.108.02-.286-.041-.842-.425-1.544-1.382-.852-1.16-1.39-2.364-1.581-3.05.588.376 1.562 1.236 2.41 2.39zm5.688-2.393c-.19.687-.73 1.89-1.581 3.05-.703.957-1.259 1.341-1.544 1.382-.072.01-.094-.007-.109-.019-.112-.088-.126-.73.823-2.022.848-1.155 1.822-2.015 2.41-2.39zM40.689 18.67c-.703.957-1.259 1.341-1.544 1.381-.071.01-.094-.006-.109-.018-.112-.088-.126-.73.823-2.022.848-1.155 1.822-2.015 2.411-2.391-.19.687-.73 1.89-1.581 3.05zm0-4.021c-.703.956-1.259 1.34-1.544 1.381-.071.01-.094-.006-.109-.018-.112-.088-.126-.73.823-2.023.318-.432.653-.823.98-1.163.142-.127.285-.266.43-.423.381-.356.732-.633 1-.805-.19.687-.728 1.89-1.58 3.05zm-1.947-7.404c-.014 1.113-.204 1.647-.316 1.866-.039.074-.138.248-.232.248-.14-.002-.516-.51-.495-2.129.018-1.448.308-2.736.566-3.4.24.671.496 1.966.477 3.415zm-3.57 5.159c.145.157.289.296.432.424.326.34.66.73.979 1.163.948 1.292.934 1.934.822 2.022-.016.013-.036.03-.108.019-.286-.04-.842-.425-1.544-1.382-.852-1.16-1.39-2.363-1.581-3.05.269.172.62.449 1 .804zm-12.553-2.376c.949 1.292.935 1.934.823 2.021-.016.013-.037.028-.109.02-.285-.041-.841-.425-1.543-1.382-.852-1.16-1.391-2.363-1.582-3.05.589.376 1.563 1.236 2.411 2.39zm5.687-2.393c-.19.687-.73 1.89-1.581 3.05-.703.957-1.258 1.341-1.544 1.381-.07.01-.093-.006-.108-.018-.112-.088-.126-.73.823-2.022.847-1.155 1.821-2.015 2.41-2.39zM26.725 18.67c-.703.957-1.258 1.341-1.544 1.381-.071.011-.093-.006-.108-.018-.112-.088-.126-.73.823-2.022.847-1.155 1.821-2.015 2.41-2.39-.19.686-.73 1.89-1.581 3.05zm0-4.021c-.703.957-1.258 1.34-1.544 1.381-.071.01-.093-.006-.108-.018-.112-.088-.126-.73.823-2.022.317-.433.653-.825.98-1.165.142-.126.285-.265.429-.421a7.394 7.394 0 0 1 1.002-.805c-.191.686-.73 1.89-1.582 3.05zM24.462 9.11c-.038.075-.137.249-.231.249h-.001c-.14-.002-.516-.51-.495-2.129.02-1.448.309-2.736.566-3.4.241.671.497 1.966.478 3.415-.014 1.113-.205 1.647-.317 1.865zm-3.253 3.295c.145.157.288.295.43.422.327.34.662.732.98 1.164.949 1.292.935 1.934.823 2.022-.016.012-.038.028-.108.019-.286-.04-.842-.425-1.544-1.382-.852-1.16-1.391-2.363-1.581-3.05.268.172.619.45 1 .805zm1.41 5.608c.949 1.292.935 1.934.823 2.022-.016.012-.038.028-.108.019-.286-.04-.842-.425-1.544-1.382-.852-1.16-1.391-2.363-1.581-3.05.588.376 1.562 1.236 2.41 2.39zM8.655 10.028c.949 1.292.935 1.934.823 2.021-.015.013-.036.028-.108.02-.286-.041-.842-.425-1.544-1.382-.852-1.16-1.391-2.363-1.581-3.05.588.376 1.562 1.236 2.41 2.39zm5.688-2.393c-.19.687-.73 1.89-1.582 3.05-.702.957-1.258 1.341-1.544 1.382-.072.01-.093-.007-.108-.02-.112-.087-.126-.73.823-2.02.848-1.156 1.822-2.015 2.41-2.392zM12.76 18.67c-.702.957-1.258 1.341-1.544 1.382-.072.01-.093-.007-.108-.019-.112-.088-.126-.73.823-2.022.848-1.155 1.822-2.014 2.41-2.39-.19.686-.729 1.89-1.58 3.05zm0-4.021c-.702.956-1.258 1.34-1.544 1.381-.072.01-.093-.006-.108-.018-.112-.088-.126-.73.823-2.022.318-.433.653-.824.98-1.164.142-.127.286-.266.43-.423.381-.355.732-.632 1-.804-.19.686-.729 1.89-1.58 3.05zM10.498 9.11c-.038.075-.137.249-.23.249h-.001c-.14-.002-.516-.51-.495-2.129.019-1.448.308-2.736.566-3.4.24.671.497 1.966.478 3.415-.015 1.113-.206 1.647-.318 1.865zm-3.253 3.295c.145.157.288.295.43.422.327.34.663.732.98 1.164.949 1.292.935 1.934.823 2.022-.015.012-.037.028-.108.019-.286-.04-.841-.425-1.544-1.382-.852-1.16-1.391-2.363-1.581-3.05.269.172.62.45 1 .805zm1.41 5.608c.949 1.292.935 1.934.823 2.022-.015.012-.037.028-.108.019-.286-.04-.841-.425-1.544-1.382-.852-1.16-1.391-2.363-1.581-3.05.588.376 1.562 1.236 2.41 2.39z" fill="#4D4D4D"/></svg>