<svg width="51" height="47" fill="none" xmlns="http://www.w3.org/2000/svg"><path d="M2.105 36.367c.44-1.847.351-3.645-.342-5.356-.37-.928-.937-1.778-1.454-2.629-.196-.332-.352-.625-.157-.987.215-.39.576-.45.967-.381 2.08.381 3.886 1.26 5.223 2.961.04.05.059.118.108.225.859-1.114 1.835-1.945 3.046-2.443.761-.313 1.562-.528 2.362-.743.381-.108.762-.03.977.361.214.382.068.694-.176 1.027-1.738 2.267-2.353 4.818-1.845 7.633.02.098.058.186.097.303h1.66c-.059-1.026-.088-2.033-.176-3.03-.107-1.31.489-2.365 1.094-3.42.058.01.127.01.185.019.176 2.13.342 4.261.518 6.421H18.4c-.03-.704-.05-1.417-.098-2.12-.224-2.855-.742-5.64-1.835-8.298-1.611-3.949-4.218-7.028-7.996-9.07a1.655 1.655 0 0 0-.45-.176c2.187 2.55 3.613 5.492 4.56 8.727-.274.02-.498.02-.723.04-.859.088-.869.097-1.161-.743-1.026-2.903-2.431-5.58-4.687-7.721-.693-.655-1.503-1.183-2.284-1.73-.44-.313-.645-.635-.498-1.036.146-.4.517-.577 1.054-.479 2.548.47 4.862 1.505 6.971 3 2.763 1.955 4.764 4.535 6.2 7.585.078.166.156.322.273.567.117-.245.205-.42.293-.606 2.548-5.288 6.57-8.806 12.272-10.33.42-.118.86-.196 1.29-.255.429-.059.741.147.858.557.117.391-.029.704-.38.909-2.412 1.349-4.062 3.42-5.4 5.776-1.67 2.942-2.597 6.138-3.055 9.46-.264 1.946-.391 3.91-.586 5.924h3.993c-.049-.949-.03-1.897-.166-2.825-.293-2.072-.654-4.144-.986-6.206-.02-.098-.049-.205-.02-.284.235-.81.489-1.612.752-2.472.45.655 1.22 3.596 1.484 5.825.234 1.964.39 3.948.586 5.971h4.208c-.069-1.026-.108-2.052-.225-3.059-.302-2.766-.878-5.473-2.128-7.975-.635-1.27-1.445-2.463-2.207-3.665-.127-.205-.185-.342-.039-.557.245-.342.46-.704.733-1.124 1.318 1.515 2.274 3.186 3.124 4.994.322-.625.615-1.231.937-1.818 2.695-4.886 6.737-8.004 12.175-9.294.234-.059.478-.098.722-.127.44-.059.781.117.918.547.137.41-.039.733-.42.938-1.484.811-2.655 1.974-3.69 3.284-1.562 1.984-2.627 4.212-3.427 6.587-.04.108-.069.216-.108.323-.02.059-.048.117-.078.186-.517-.069-1.025-.127-1.572-.196.45-1.603 1.006-3.186 1.846-4.632.83-1.447 1.777-2.825 2.685-4.262-.87.528-1.797 1.027-2.646 1.633-3.095 2.208-5.145 5.199-6.395 8.757a.824.824 0 0 0-.02.508c.879 2.834 1.26 5.746 1.357 8.698 0 .078.01.157.02.264h1.552l.498-6.353c.049-.01.088-.01.137-.02.068.099.156.186.205.284.644 1.153 1.074 2.355.908 3.714-.098.772-.088 1.554-.127 2.365h1.582c.302-1.104.332-2.228.175-3.362-.244-1.71-.888-3.254-1.962-4.613-.254-.313-.342-.625-.137-.987.205-.362.547-.44.928-.371 2.099.371 3.915 1.27 5.262 2.98.03.04.069.069.147.157.117-.137.214-.274.332-.4 1.357-1.555 3.095-2.386 5.096-2.737.38-.069.713.029.918.39.205.372.068.675-.166.988-1.719 2.228-2.363 4.74-1.885 7.525.02.147.069.284.108.46h1.123c.615.01.908.283.908.889 0 2.668.01 5.346 0 8.014 0 .587-.284.85-.88.87H1.218c-.977 0-1.172-.196-1.172-1.163v-7.575c0-.781.244-1.026 1.015-1.036.332.02.654.02 1.045.02zm19.37-.02c.117-1.573.195-3.098.352-4.622.312-3.118 1.005-6.158 2.196-9.07.908-2.228 2.129-4.271 3.837-6.177-.244.108-.36.156-.468.205-4.257 2.131-7.06 5.542-8.68 9.97a1.42 1.42 0 0 0-.03.83c.557 1.945.948 3.92 1.114 5.933.078.967.146 1.935.215 2.922.498.01.976.01 1.464.01zm-11.189-7.173c-2.548.713-4.266 4.349-3.417 7.154h2.402c-.468-2.512-.117-4.877 1.015-7.154zm29.505-.04c1.152 2.327 1.513 4.692 1.045 7.194h2.44c.47-3.548-.78-6.177-3.485-7.193zm5.223 7.204h1.27c0-1.242-.127-2.473.039-3.665.166-1.193.615-2.346.927-3.49-.82.382-1.591.93-2.206 1.691-.4.499-.733.997-.362 1.662.069.127.088.283.098.42.078 1.114.156 2.228.234 3.382zm-39.795 0c-.02-.186-.048-.342-.039-.499.059-1.045-.048-2.15.235-3.137.263-.919.01-1.525-.567-2.072-.527-.498-1.142-.9-1.718-1.33-.098-.077-.234-.097-.44-.185 1.163 2.346 1.514 4.711 1.045 7.213.518.01.977.01 1.484.01zm-3.602 3.157a.788.788 0 0 0-.771.782c0 .42.351.772.78.772.42 0 .772-.362.772-.782a.795.795 0 0 0-.781-.772zm3.895.782a.767.767 0 0 0-.771-.773.788.788 0 0 0-.781.773c0 .42.351.781.771.781a.797.797 0 0 0 .781-.782zm3.125-.02a.788.788 0 0 0-.791-.762.788.788 0 0 0-.762.791c.01.42.371.772.791.763a.782.782 0 0 0 .762-.792zm2.362-.753a.773.773 0 0 0-.78.763c-.01.42.35.782.77.782.42 0 .781-.352.781-.773a.78.78 0 0 0-.77-.772zm3.886.792a.78.78 0 0 0-.752-.792.789.789 0 0 0-.8.753c-.01.42.332.782.751.801.43 0 .791-.342.801-.762zm29.68 1.955a.78.78 0 0 0-.752-.792.78.78 0 0 0-.79.753c-.01.42.341.791.751.801.42 0 .781-.342.791-.762zm-23.431-1.965a.788.788 0 0 0-.762-.791.788.788 0 0 0-.79.762c-.01.42.34.782.76.792.42.01.782-.333.792-.763zm2.372.763a.789.789 0 0 0 .752-.802.789.789 0 0 0-.8-.752.789.789 0 0 0-.753.801c.02.42.381.762.8.753zm3.876-.802a.789.789 0 0 0-.8-.752.782.782 0 0 0-.752.801c.01.42.38.762.8.753a.776.776 0 0 0 .752-.802zm2.372.802a.788.788 0 0 0 .762-.792.782.782 0 0 0-.79-.762.788.788 0 0 0-.762.791c0 .43.36.772.79.763zm3.125-1.554a.788.788 0 0 0-.791.762c-.01.42.332.782.761.792.42.01.781-.333.791-.763a.795.795 0 0 0-.761-.791zm3.876.772a.788.788 0 0 0-.782-.772.788.788 0 0 0-.77.782c0 .42.35.772.78.772.42 0 .781-.362.772-.782zm3.124-.02a.789.789 0 0 0-.8-.752.789.789 0 0 0-.752.801c.01.41.38.762.8.753a.77.77 0 0 0 .752-.802zm2.382.802a.789.789 0 0 0 .752-.802.795.795 0 0 0-.8-.752.789.789 0 0 0-.752.801c.01.42.37.772.8.753zm3.866-.792a.782.782 0 0 0-.79-.762.788.788 0 0 0-.762.791c0 .42.37.763.79.763.42 0 .772-.372.762-.792zm2.363-.753a.775.775 0 0 0-.79.763c-.01.42.34.782.76.791.42.01.782-.332.791-.762a.77.77 0 0 0-.761-.792zm-45.292 3.5a.782.782 0 0 0 .762-.792.782.782 0 0 0-.8-.753.78.78 0 0 0-.752.792.78.78 0 0 0 .79.752zm3.086 0c.43.009.78-.333.79-.763a.782.782 0 0 0-.761-.792.788.788 0 0 0-.79.763c0 .42.35.791.76.791zm3.104 0c.42.019.791-.323.81-.734a.78.78 0 0 0-.732-.81.78.78 0 0 0-.81.732c-.03.42.313.792.732.811zm3.154 0c.42 0 .771-.343.78-.773a.788.788 0 0 0-.77-.782.782.782 0 0 0-.781.772c0 .42.351.782.77.782zm3.905-.792a.788.788 0 0 0-.79-.763.788.788 0 0 0-.762.792c.01.42.37.772.79.762a.776.776 0 0 0 .762-.791zm2.343-.763a.788.788 0 0 0-.761.792c.01.42.37.772.79.762a.776.776 0 0 0 .762-.791.795.795 0 0 0-.79-.763zm3.906.782a.782.782 0 0 0-.782-.772.786.786 0 0 0-.77.772c0 .42.35.772.78.772.42 0 .781-.352.772-.772zm3.124-.01a.782.782 0 0 0-.791-.762.788.788 0 0 0-.762.792c.01.42.372.772.791.762a.788.788 0 0 0 .762-.792zm2.343-.772a.788.788 0 0 0-.762.792c.01.42.371.772.791.762a.788.788 0 0 0 .762-.791.788.788 0 0 0-.791-.763zm3.915.782a.788.788 0 0 0-.781-.772.788.788 0 0 0-.771.782c0 .42.36.782.78.772a.795.795 0 0 0 .772-.782zm2.324.772c.43.01.78-.332.79-.762a.782.782 0 0 0-.761-.792.788.788 0 0 0-.79.763c0 .42.34.781.76.791zm3.124-1.554a.788.788 0 0 0-.762.792c.01.42.381.772.791.762a.774.774 0 0 0 .752-.791.767.767 0 0 0-.781-.763zm3.915.792c0-.42-.342-.782-.762-.782a.775.775 0 0 0-.78.772c-.01.42.35.782.77.782a.786.786 0 0 0 .772-.772zm-24.184-2.746a.795.795 0 0 0-.8.752c-.02.42.332.782.752.802.42.01.78-.333.8-.753a.782.782 0 0 0-.752-.801zM47.69 42.24a.782.782 0 0 0-.761-.792.788.788 0 0 0-.79.763c-.01.41.34.781.76.791.43.01.782-.332.791-.762zM25 9.392h-4.09c-.733 0-.987-.283-.958-1.026.108-2.629 2.5-4.681 5.331-4.574 2.617.098 4.765 2.082 4.882 4.535.039.801-.215 1.065-1.016 1.065H25z" fill="#4D4D4D"/><path d="M23.34 15.393c-.908.762-1.718 1.447-2.43 2.033-1.124-.772-2.207-1.525-3.3-2.277-.333-.235-.47-.547-.333-.929.156-.44.508-.606.937-.498.957.225 1.924.45 2.861.752.762.235 1.474.587 2.265.92zM19.649 6.02c-.02.675-.488 1.046-.996.9a15.913 15.913 0 0 1-1.738-.606.758.758 0 0 1-.42-.968.748.748 0 0 1 .938-.479c.585.176 1.181.362 1.728.616.244.117.39.43.488.537zM33.64 5.6c-.097.118-.254.42-.488.538-.517.264-1.084.44-1.63.625-.42.147-.82-.039-.977-.41-.166-.4-.02-.84.4-1.026a16.66 16.66 0 0 1 1.69-.636c.517-.166 1.005.196 1.005.91zM25.83 1.652c0 .293.02.586 0 .87a.743.743 0 0 1-.781.703c-.42 0-.752-.293-.772-.713-.02-.596-.02-1.202 0-1.799.02-.43.352-.713.772-.713.41 0 .732.293.77.723.02.313.01.626.01.929zM18.947 2.238c.644-.01 2.196 1.33 2.177 1.798-.01.245-.137.577-.322.694-.206.127-.625.176-.801.05a8.701 8.701 0 0 1-1.484-1.33c-.146-.166-.146-.567-.059-.801.088-.206.39-.333.489-.41zM29.735 4.965c-.186-.156-.479-.293-.586-.518-.098-.205-.088-.606.049-.752.439-.49.947-.939 1.464-1.34.313-.244.693-.175.967.137.283.323.302.714.02 1.017-.44.46-.928.86-1.407 1.26-.107.089-.273.108-.507.196zM27.801 3.616c-.693-.01-1.064-.557-.859-1.085.205-.518.44-1.016.693-1.505a.755.755 0 0 1 .996-.371c.39.166.586.596.41 1.016-.205.508-.43 1.026-.703 1.496-.127.215-.41.351-.537.45zM22.354 3.597c-.108-.098-.381-.225-.498-.44-.264-.46-.479-.958-.684-1.456-.185-.45-.01-.89.4-1.066.391-.166.811-.01 1.026.41.234.46.459.939.644 1.418.225.596-.156 1.153-.888 1.134z" fill="#4D4D4D"/></svg>