<svg width="184" height="334" fill="none" xmlns="http://www.w3.org/2000/svg"><g opacity=".2" fill-rule="evenodd" clip-rule="evenodd" fill="#fff"><path d="M23.286 278.952c46.068-39.238 58.787.754 99.005 13.057-39.683 24.771-70.578 31.178-99.005-13.057zM71.037 231.66c29.882-52.771 55.537-19.299 97.765-21.566-29.167 36.734-55.981 53.374-97.765 21.566zM121.474 177.949c-13.781-54.197 30.54-59.828 57.868-84.754 2.175 44.607-8.941 79.075-57.868 84.754zM128.162 101.998c-48.213-34.535-12.477-66.316-12.574-99.704 29.513 30.273 44.563 65.75 12.574 99.704zM71.261 182.15c-38.252-44.066-3.522-62.268 6.56-103.344 21.998 41.508 36.465 72.07-6.56 103.344zM46.683 221.836c-21.942-13.723-22.947-36.909-14.377-57.117 11.895 24.635 35.93 34.995 14.377 57.117zM38.304 245.884c-13.385 4.828-29.382-14.461-29.988-27.973 12.373 9.748 33.423 6.504 29.988 27.973z"/></g></svg>