<svg width="100" height="37" fill="none" xmlns="http://www.w3.org/2000/svg"><path fill-rule="evenodd" clip-rule="evenodd" d="M18.421 0c10.185 0 18.422 8.184 18.422 18.316 0 10.105-8.237 18.316-18.422 18.316C8.237 36.632 0 28.448 0 18.316 0 8.211 8.263 0 18.421 0z" fill="#B01116"/><path d="M85.79 16.29c1.157 0 2.026-.29 2.605-.842.579-.579.868-1.29.868-2.158 0-.868-.29-1.605-.868-2.158-.58-.579-1.448-.842-2.605-.842h-3.764v6.027h3.764v-.027zm-9.316 14.132V5h9.131c1.316 0 2.527.21 3.632.605a8.88 8.88 0 0 1 2.868 1.684A7.24 7.24 0 0 1 94 9.895a8.283 8.283 0 0 1 .684 3.369A8.283 8.283 0 0 1 94 16.632a7.242 7.242 0 0 1-1.895 2.606 8.88 8.88 0 0 1-2.868 1.684 10.728 10.728 0 0 1-3.632.605h-3.579v8.895h-5.552zM63.658 31c-2.369 0-4.448-.632-6.158-1.895-1.737-1.263-2.948-3.079-3.658-5.447l5.263-2.053c.316 1.21.816 2.21 1.526 2.974.71.79 1.737 1.158 3.027 1.158.42 0 .842-.053 1.237-.132.394-.105.736-.237 1.026-.447.29-.21.552-.448.737-.764.184-.315.29-.657.29-1.052s-.08-.763-.238-1.105c-.157-.343-.42-.658-.763-.948-.368-.29-.842-.579-1.42-.895a27.109 27.109 0 0 0-2.264-.947l-1.579-.579a11.971 11.971 0 0 1-2.053-.974 9.675 9.675 0 0 1-1.92-1.5c-.58-.579-1.027-1.263-1.395-2.052-.369-.763-.527-1.632-.527-2.58 0-1.025.21-1.973.605-2.868a6.484 6.484 0 0 1 1.711-2.315c.737-.658 1.632-1.158 2.684-1.553a10.45 10.45 0 0 1 3.474-.58c1.342 0 2.474.185 3.421.527.948.342 1.763.79 2.421 1.316a6.724 6.724 0 0 1 1.58 1.79c.394.657.683 1.289.92 1.92l-4.816 2.027c-.263-.763-.684-1.368-1.237-1.816-.579-.474-1.315-.684-2.21-.684-.947 0-1.71.184-2.263.579-.553.395-.842.895-.842 1.5 0 .632.29 1.21.868 1.71.579.5 1.579 1 3.026 1.5l1.58.527c2.157.737 3.841 1.71 5.026 2.947 1.184 1.237 1.79 2.895 1.79 4.974 0 1.316-.264 2.474-.817 3.447-.526.974-1.236 1.764-2.078 2.421-.843.632-1.79 1.106-2.869 1.448-1.053.263-2.079.42-3.105.42zM44.815 5h5.58v25.42h-5.58V5.002z" fill="#000"/><path fill-rule="evenodd" clip-rule="evenodd" d="M7.368 23.79c5.71-.711 4.631 3.13 7.184 6.21-4.447-.105-7.237-1.21-7.184-6.21zM13.633 22.527c5.131-2.632 5.42 1.368 8.895 3.395-4.237 1.394-7.237 1.315-8.895-3.395zM20.447 20.894c1.737-5.026 5.553-3.157 9.027-3.71-2.158 3.658-4.843 5.816-9.027 3.71zM24.947 15.21c-2.027-5.264 2.473-5.922 4.21-8.58.764 3.948.106 7.553-4.21 8.58zM16.237 18.605c-.736-5.5 2.974-5.132 5.922-7.869-.422 4.447-.869 7.632-5.922 7.869zM12.211 20.474c-1.026-2.237.106-4.132 1.843-5.29-.343 2.58 1.026 4.658-1.843 5.29zM10.29 21.947c-1.317-.316-1.58-2.685-.922-3.79.474 1.421 2.316 2.263.921 3.79z" fill="#fff"/><path d="M99.053 2.183a3.286 3.286 0 0 0-2.316-.947c-.869 0-1.684.342-2.316.947a3.225 3.225 0 0 0-.947 2.29c0 .868.342 1.684.947 2.29a3.286 3.286 0 0 0 2.316.946c.868 0 1.684-.342 2.316-.947a3.225 3.225 0 0 0 .947-2.29c0-.868-.342-1.684-.947-2.289zm.342 2.29c0 .71-.263 1.368-.79 1.868-.5.5-1.158.763-1.868.763a2.605 2.605 0 0 1-2.632-2.631c0-.711.263-1.369.79-1.869.5-.5 1.158-.763 1.868-.763.71 0 1.369.263 1.869.763.473.5.763 1.158.763 1.869z" fill="#000"/><path d="M97.422 4.922c-.08-.106-.21-.185-.343-.264.29-.052.5-.131.632-.29a.939.939 0 0 0 .21-.604c0-.185-.052-.369-.131-.5-.105-.158-.21-.264-.368-.316-.158-.053-.421-.08-.764-.08h-1.394v3.238h.658V4.764h.131c.158 0 .263 0 .342.026.08.026.132.079.21.132.053.052.185.21.343.473l.474.71h.79l-.396-.63c-.184-.264-.29-.448-.394-.553zm-1-.685h-.474v-.816h.974c.105.027.184.053.236.132a.444.444 0 0 1 .08.263c0 .106-.027.184-.08.237-.052.053-.105.105-.184.132-.052.026-.237.052-.552.052z" fill="#000"/></svg>