<svg width="24" height="24" fill="none" xmlns="http://www.w3.org/2000/svg"><path d="M15.5 1.5A1.5 1.5 0 0 1 17 3v18a1.5 1.5 0 0 1-1.5 1.5h-9A1.5 1.5 0 0 1 5 21V3a1.5 1.5 0 0 1 1.5-1.5h9zM6.5 0a3 3 0 0 0-3 3v18a3 3 0 0 0 3 3h9a3 3 0 0 0 3-3V3a3 3 0 0 0-3-3h-9z" fill="#fff"/><path d="M11 21a1.5 1.5 0 1 0 0-3 1.5 1.5 0 0 0 0 3z" fill="url(#a)"/><defs><linearGradient id="a" x1="9.5" y1="19.5" x2="12.5" y2="19.5" gradientUnits="userSpaceOnUse"><stop stop-color="#10733E"/><stop offset="1" stop-color="#47A070"/></linearGradient></defs></svg>