<svg width="50" height="50" fill="none" xmlns="http://www.w3.org/2000/svg"><path d="M49.28 18.97a4.875 4.875 0 0 0-4.992-2.22 6.939 6.939 0 0 0-2.255.78 5.936 5.936 0 0 0-1.561-1.784 5.14 5.14 0 0 0-5.775-.387 4.861 4.861 0 0 0-2.216 5c.129.79.393 1.55.78 2.25-.106.064-.219.122-.322.193a7.798 7.798 0 0 0-8.198 4.104 40.093 40.093 0 0 0-1.97-5.046 5.969 5.969 0 0 0 2.77-2.968 5.878 5.878 0 0 0-1.413-6.55 8.776 8.776 0 0 0-2.887-1.96 7.388 7.388 0 0 0 .839-3.317 6.24 6.24 0 0 0-3.775-6.033 5.878 5.878 0 0 0-6.549 1.41 8.743 8.743 0 0 0-1.968 2.887 7.391 7.391 0 0 0-3.313-.839H6.41A6.226 6.226 0 0 0 .442 8.268a5.875 5.875 0 0 0 1.413 6.55 8.718 8.718 0 0 0 2.897 1.945 7.388 7.388 0 0 0-.845 3.332 6.233 6.233 0 0 0 3.774 6.033 5.717 5.717 0 0 0 2.236.465 6.243 6.243 0 0 0 4.31-1.871 8.759 8.759 0 0 0 1.968-2.891 7.378 7.378 0 0 0 3.307.839h.058a48.354 48.354 0 0 1 4.081 13.385 20.209 20.209 0 0 0-14.085-3.994 5.368 5.368 0 0 0-5.059 4.29 4.2 4.2 0 0 0 .845 3.543c2.04 2.452 6.769 2.497 12.25 2.552l1.078.013h.019a1.612 1.612 0 0 0 .633-3.1 1.61 1.61 0 0 0-.617-.126l-1.084-.01c-3.884-.038-8.717-.09-9.8-1.39-.075-.094-.256-.31-.146-.93.148-.858.961-1.419 2.416-1.66 4.275-.724 11.634 1.877 13.805 5.81.127.223.308.411.526.548.2 1.858.355 3.852.451 5.997a1.613 1.613 0 0 0 1.614 1.54h.07a1.615 1.615 0 0 0 1.54-1.685A88.532 88.532 0 0 0 26.26 32.63c.577-3.12 1.442-5.878 4.332-6.504a4.921 4.921 0 0 0 .5 3.817 4.733 4.733 0 0 0 4.178 2.274c.273 0 .546-.018.817-.055a6.935 6.935 0 0 0 2.252-.78 5.94 5.94 0 0 0 1.56 1.783 5.427 5.427 0 0 0 3.22 1.097c.901.002 1.785-.244 2.556-.71a4.859 4.859 0 0 0 2.216-4.99 6.959 6.959 0 0 0-.768-2.23 6.027 6.027 0 0 0 1.775-1.59 5.13 5.13 0 0 0 .38-5.772zM13.984 4.773a2.758 2.758 0 0 1 3.059-.767 3.133 3.133 0 0 1 1.81 3.032 3.384 3.384 0 0 1-1.59 3.071l-3.382 1.368-1.361-3.355a4.16 4.16 0 0 1 1.464-3.349zM3.413 9.527a3.126 3.126 0 0 1 3.01-1.807h.03a3.371 3.371 0 0 1 3.064 1.59l1.371 3.381-.355.145L7.54 14.05a4.171 4.171 0 0 1-3.355-1.462 2.771 2.771 0 0 1-.77-3.061zm8.585 12.859a2.765 2.765 0 0 1-3.058.771 3.13 3.13 0 0 1-1.807-3.036 3.375 3.375 0 0 1 1.59-3.071l3.378-1.368 1.362 3.355a4.162 4.162 0 0 1-1.465 3.349zm4.465-4.533-1.368-3.387 2.1-.852 1.252-.507a4.168 4.168 0 0 1 3.349 1.462 2.772 2.772 0 0 1 .774 3.062 3.126 3.126 0 0 1-3.01 1.806h-.032a3.316 3.316 0 0 1-3.065-1.59v.006zm28.316 2.09a1.646 1.646 0 0 1 1.742.698 1.926 1.926 0 0 1-.223 2.19 2.171 2.171 0 0 1-1.897 1.01l-2.258-.561.239-.975.31-1.248a2.92 2.92 0 0 1 2.087-1.113zm-8.414-1.816a1.943 1.943 0 0 1 2.194.22 2.161 2.161 0 0 1 1.01 1.893l-.562 2.265-2.226-.548a2.928 2.928 0 0 1-1.11-2.084 1.63 1.63 0 0 1 .694-1.746zm-.768 10.847a1.635 1.635 0 0 1-1.742-.697 1.929 1.929 0 0 1 .216-2.187 2.393 2.393 0 0 1 1.694-1.036c.07 0 .139.007.206.023l2.262.56-.242.975-.31 1.249a2.92 2.92 0 0 1-2.084 1.113zm8.41 1.816a1.933 1.933 0 0 1-2.193-.22 2.155 2.155 0 0 1-1.01-1.893l.562-2.265 2.22.549a2.93 2.93 0 0 1 1.116 2.09 1.626 1.626 0 0 1-.694 1.74z" fill="#4D4D4D"/></svg>