<svg width="40" height="50" fill="none" xmlns="http://www.w3.org/2000/svg"><path d="M13.504.031c-.52.086-1.205.45-1.533.822-.428.494-.6.901-.628 1.566-.028.551-.014.644.514 2.36.3.98.613 1.924.699 2.095.142.3.613.78 1.269 1.316.185.143.385.38.45.522.12.25.12.265-.022.565l-.15.3.214.673c.114.371.2.686.185.7-.014.008-.442.15-.94.3-1.413.43-1.448.53-.864 1.982.6 1.494 1.398 2.753 2.603 4.083.45.5.52.607.435.686-.057.05-.706.58-1.44 1.18l-1.341 1.087-.52.014c-.407.015-.578.058-.842.208-.806.479-1.013 1-.97 2.51.029 1.158.107 1.387.635 1.88l.292.28-.043.75c-.064 1.101-.22 1.91-.613 3.11-.45 1.395-.578 2.024-.62 3.083-.043.93.035 1.694.27 2.617.072.3.136.558.136.58 0 .02-.15.056-.335.085-1.205.179-2.282 1.08-2.66 2.224-.164.486-.143.472-.749.565-.513.086-1.184.465-1.647.922a3.43 3.43 0 0 0-.956 1.83l-.078.473-.342.121c-.935.33-1.69 1.316-1.833 2.389-.043.343-.05.35-.492.586-1.106.572-1.762 1.852-1.548 3.018.214 1.144.927 1.988 1.997 2.345.442.15.492.15 8.95.136l8.5-.021.478-.23c.927-.435 1.533-1.23 1.704-2.223.136-.751-.142-1.724-.634-2.245-.1-.108-.172-.215-.15-.23.014-.014.542.008 1.17.044 1.312.078 3.223.035 5.526-.13 1.37-.092 1.983-.178 4.136-.578 2.888-.537 3.659-.587 4.778-.344.335.072.899.136 1.255.136.585 0 .692-.014 1.07-.207.307-.165.47-.3.62-.544.521-.85.214-1.644-.962-2.474-.314-.221-.67-.536-.785-.693-.342-.472-.77-1.38-.927-1.967-.178-.694-.192-1.866-.028-2.438.634-2.167.741-3.433.428-5.099-.057-.307-.264-1.058-.457-1.652-.385-1.201-.528-1.902-.635-3.11l-.078-.816.314-.278c.178-.15.392-.43.485-.615.15-.308.164-.43.164-1.445 0-1.015-.015-1.137-.171-1.487-.307-.68-1.049-1.13-1.762-1.073l-.328.022-4.214-3.483c-3.702-3.06-4.3-3.532-4.864-3.804-.45-.222-.799-.343-1.177-.4-1.012-.144-2.16.15-2.988.765-.3.236-.363.157-.363-.494 0-.643-.114-1.43-.335-2.381-.143-.615-.229-.822-.386-.98-.106-.107-.25-.2-.32-.2-.1 0-1.633.436-1.919.55-.064.022-.164-.2-.314-.686-.213-.68-.242-.73-.499-.858-.335-.172-.406-.465-.256-1.03.378-1.373.406-1.523.37-1.837-.064-.508-1.084-3.805-1.305-4.227-.47-.865-1.576-1.365-2.624-1.2zm1.22 1.402c.15.114.328.307.392.429.192.321 1.127 3.475 1.127 3.79 0 .15-.1.593-.214.98-.257.843-.264 1.236-.057 2.002.156.586.413.972.656.972.085 0 .256.38.256.586 0 .072-1.17.415-1.22.358a1.438 1.438 0 0 1-.12-.279c-.065-.193-.05-.279.078-.515l.157-.279-.171-.529c-.264-.822-.464-1.151-.949-1.566-1.112-.965-1.034-.83-1.626-2.746-.62-1.995-.656-2.33-.335-2.817.435-.658 1.455-.851 2.025-.386zm4.92 9.79c.157.771.257 2.144.2 2.83l-.05.666-1.476 1.194-1.47 1.194-.549-.558a11.724 11.724 0 0 1-2.31-3.453c-.136-.322-.235-.587-.228-.594.078-.05 5.67-1.73 5.726-1.723.036.014.107.207.157.443zM25 14.082c.328.15 1.476 1.05 4.264 3.353 3.566 2.946 3.801 3.147 3.616 3.197-.307.078-2.432.329-3.623.429-.727.064-2.51.093-5.562.093-3.73 0-4.714-.029-5.812-.129-1.213-.114-3.28-.379-3.323-.422-.015-.021 2.531-2.102 6.667-5.442 1.455-1.187 1.804-1.351 2.753-1.316.456.022.663.065 1.02.236zM14.246 21.82c2.838.493 4.735.615 9.52.615 4.85 0 7.124-.15 9.984-.68 1.44-.264 1.618-.264 1.811-.021.136.171.15.286.15 1.044 0 1.015-.079 1.23-.485 1.337-1.12.3-3.366.65-5.363.844-1.94.186-10.183.186-12.123 0-2.11-.2-4.229-.536-5.355-.837-.443-.121-.493-.257-.493-1.316 0-.865.015-.936.164-1.1.193-.208.378-.2 2.19.114zm-.428 3.868c2.88.544 6.311.758 11.153.694 2.988-.036 4.072-.093 6.033-.3.941-.1 3.352-.472 3.644-.565.1-.036.121.05.164.586.086 1.08.314 2.202.642 3.19.506 1.508.578 1.923.57 3.232 0 1.194-.014 1.287-.527 3.146-.164.615-.186 1.86-.043 2.538.335 1.58 1.163 3.004 2.104 3.626 1.447.958 1.062 1.323-.992.944-1.29-.236-2.153-.179-4.991.357-1.277.236-2.71.465-3.174.508-2.924.243-4.899.286-7.202.143a37.454 37.454 0 0 1-1.505-.107c-.1-.022-.192-.143-.278-.358-.128-.343-.542-.915-.92-1.258-.121-.115-.45-.322-.72-.458l-.5-.243-.092-.486a3.427 3.427 0 0 0-.934-1.774c-.457-.457-1.213-.872-1.719-.936l-.342-.043-.122-.422c-.25-.83-.934-1.63-1.718-2.017-.285-.136-.3-.164-.478-.794-.52-1.844-.45-3.54.228-5.527.157-.465.335-1.059.4-1.316.1-.436.32-2.13.32-2.445 0-.093.036-.122.129-.093.064.021.456.1.87.178zM11.8 36.822c.649.315 1.04.901 1.162 1.723.086.644.257.809.849.809.57 0 1.012.171 1.44.557.507.458.706.901.706 1.573 0 .666.121.909.485 1.009.143.043.314.078.378.078.214 0 .849.372 1.07.63.32.364.499.815.563 1.401.064.544.186.723.564.801.399.086.741.286 1.012.587.592.679.564 1.58-.078 2.245-.578.6.007.565-9.278.543l-8.158-.021-.285-.157c-1.52-.823-1.17-2.925.542-3.197a.954.954 0 0 0 .42-.221c.15-.165.171-.25.171-.851.008-.63.022-.694.222-.98.313-.443.705-.694 1.212-.78.627-.1.77-.271.756-.9-.015-.744.157-1.202.627-1.681.485-.48.877-.636 1.62-.636.705 0 .87-.136.948-.787.2-1.566 1.683-2.417 3.052-1.745z" fill="#4D4D4D"/><path d="M23.367 14.819c-.114.114-.207.279-.207.364a.63.63 0 0 0 1.105.43c.592-.623-.292-1.402-.898-.794zM25.506 16.22a.59.59 0 0 0-.235.787c.214.45.727.493 1.07.086.449-.537-.207-1.216-.835-.873zM21.263 16.357c-.414.35-.143 1.044.406 1.044.464 0 .8-.458.635-.858-.05-.122-.15-.25-.22-.287-.23-.128-.614-.078-.821.1zM22.832 17.644c-.406.35-.156 1.044.378 1.044.321 0 .492-.1.628-.358.15-.286.136-.386-.078-.636-.236-.286-.635-.308-.928-.05zM27.931 17.565c-.492.38-.27 1.123.335 1.123.578 0 .885-.651.492-1.037-.192-.2-.627-.243-.827-.086zM19.259 17.965c-.563.35-.221 1.245.428 1.123a.796.796 0 0 0 .57-.493c.072-.2-.135-.615-.342-.694-.27-.1-.4-.086-.656.064zM24.907 19.224c-.485.48.014 1.273.634 1.008.478-.2.592-.6.286-.965a.606.606 0 0 0-.92-.043zM16.934 19.446c-.2.107-.335.35-.335.607 0 .222.378.565.627.565.243 0 .57-.228.656-.471.093-.236-.05-.587-.292-.708-.25-.136-.4-.13-.656.007zM30.413 19.546c-.57.45-.043 1.323.627 1.044.286-.122.485-.465.421-.722-.107-.422-.692-.601-1.048-.322zM22.368 19.753a.61.61 0 0 0 .713.98c.606-.315.421-1.187-.242-1.187-.193 0-.314.057-.47.207zM27.995 19.803c-.4.215-.456.644-.136.965.143.143.279.208.435.208.321 0 .642-.336.642-.665 0-.193-.05-.293-.22-.436-.243-.208-.436-.23-.721-.072zM19.765 19.932c-.378.322-.185.958.328 1.08.229.05.62-.186.714-.436.228-.601-.542-1.08-1.042-.644zM16.207 29.306c-.079.015-.364.05-.635.072-.414.043-.528.086-.699.25-.342.343-.285.55.343 1.23.456.5.613.744 1.062 1.66.285.593.699 1.594.92 2.223.47 1.366.635 1.76 1.077 2.51 1.09 1.845 2.581 2.882 4.5 3.118.47.057.82.057 1.24 0 .728-.093.863-.208 1.049-.901l.135-.494 1.034-.014c.87-.007 1.113-.036 1.598-.186 1.248-.386 2.253-1.201 2.91-2.353 1.24-2.173 1.532-2.681 1.925-3.253.235-.358.62-.894.848-1.209.442-.6.507-.836.3-1.151-.121-.179-.485-.315-1.562-.58-.756-.178-2.539-.22-3.352-.07-1.519.278-2.86.922-4.072 1.944l-.356.3-.52-.564c-1.17-1.28-2.789-2.081-4.822-2.396-.684-.1-2.624-.193-2.923-.136zm3.244 1.466c1.434.344 2.225.708 3.067 1.409 1.24 1.037 1.918 2.417 1.925 3.904 0 .608-.164 1.666-.278 1.788-.035.036-.2-.157-.363-.429-.82-1.301-2.696-3.511-3.217-3.776-.335-.178-.599-.136-.813.122-.306.365-.22.536.7 1.48a18.083 18.083 0 0 1 2.68 3.49l.214.379h-.335c-1.176 0-2.567-.851-3.43-2.103-.463-.679-.663-1.115-1.205-2.66-.535-1.501-.956-2.481-1.39-3.203-.186-.3-.336-.572-.336-.594 0-.1 2.19.05 2.781.193zm12.416.651.406.093-.549.822a39.934 39.934 0 0 0-1.86 3.118c-.878 1.609-1.92 2.253-3.63 2.253h-.728l.05-.25c.021-.137.064-.408.092-.601.036-.3.108-.43.507-.88a10.185 10.185 0 0 1 3.066-2.41c.3-.157.592-.343.65-.407.149-.186.113-.572-.08-.78-.235-.25-.541-.229-1.162.079a10.738 10.738 0 0 0-2.66 1.902l-.435.422-.085-.38a4.06 4.06 0 0 0-.207-.628l-.121-.244.32-.314c.942-.915 2.425-1.645 3.816-1.88.47-.08 2.11-.022 2.61.085zM11.821 39.976c-.377.064-.841.25-.97.386-.185.207-.163.594.05.822.143.158.214.18.457.144 1.034-.136 1.077-.136 1.405.014.178.078.413.264.527.407.464.601.485.622.77.63.215.007.314-.036.443-.193.228-.265.22-.58-.029-.98-.556-.873-1.676-1.395-2.653-1.23zM7.863 41.742c-1.162.372-1.96 1.394-1.96 2.517 0 .329.028.393.22.558.271.236.492.236.763.007.172-.143.222-.258.257-.565.1-.758.62-1.266 1.405-1.366.42-.05.663-.293.663-.658 0-.522-.585-.736-1.348-.493zM13.974 43.823a.579.579 0 0 0-.206.93c.12.143.256.2.591.25.778.107 1.17.443 1.313 1.13.107.472.256.65.584.708.229.035.293.007.492-.186.214-.215.222-.25.186-.63-.057-.521-.4-1.222-.77-1.558-.614-.55-1.683-.866-2.19-.644z" fill="#4D4D4D"/></svg>