<svg width="60" height="60" fill="none" xmlns="http://www.w3.org/2000/svg"><path d="M45.077 37.354c-.314 0-.63-.011-.941-.033.835 6.542 2.825 9.824 2.914 9.969.01.017.012.037.022.056a.898.898 0 0 1 .101.298c.014.087.016.17.006.258l-.009.048a.902.902 0 0 1-.092.274l-.013.02c-.038.068-.069.14-.125.198a.934.934 0 0 1-.677.289.931.931 0 0 1-.492-.16c-.04-.024-.083-.039-.12-.07-11.248-9.408-13.218-19.123-13.54-22.843-.018-.163-.03-.31-.04-.44l-.004-.063a2.934 2.934 0 0 1-.016-.332 4.454 4.454 0 0 1-.01-.518c.006-7.189 5.852-13.036 13.036-13.036 7.195 0 13.048 5.853 13.048 13.048 0 7.188-5.853 13.037-13.048 13.037zm0-24.21c-6.154 0-11.161 5.012-11.163 11.228-.001.027-.005.148.01.356l.002.063c0 .045-.002.096.008.186l.007.101c.009.111.019.238.035.398.272 3.13 1.786 10.739 9.731 18.71-.617-1.925-1.238-4.531-1.569-7.838a.937.937 0 0 1 1.085-1.019c.605.1 1.229.15 1.854.15 6.16 0 11.173-5.008 11.173-11.162 0-6.16-5.013-11.173-11.173-11.173zm-30.162-1.875c7.194 0 13.047 5.853 13.047 13.048 0 7.188-5.853 13.037-13.047 13.037-.315 0-.63-.011-.941-.033.834 6.541 2.825 9.824 2.914 9.969.015.024.018.052.03.077a.902.902 0 0 1 .076.193.892.892 0 0 1 .017.1.912.912 0 0 1 .006.25c-.002.015-.007.028-.01.043a.918.918 0 0 1-.258.518.935.935 0 0 1-.648.26.94.94 0 0 1-.324-.065h-.002c-.056-.021-.104-.058-.155-.09-.044-.025-.091-.041-.131-.074C4.24 39.092 2.27 29.378 1.949 25.662c-.02-.184-.033-.35-.044-.507a2.928 2.928 0 0 1-.016-.331 4.373 4.373 0 0 1-.011-.518c.005-7.19 5.852-13.037 13.037-13.037zM3.76 24.726a.792.792 0 0 1 .003.065c0 .045-.002.096.005.154l.008.094c.008.118.017.258.037.437.272 3.13 1.788 10.74 9.731 18.71-.618-1.925-1.239-4.532-1.569-7.838a.937.937 0 0 1 1.085-1.019c.604.1 1.228.15 1.854.15 6.16 0 11.172-5.008 11.172-11.162 0-6.16-5.012-11.173-11.172-11.173-6.155 0-11.162 5.012-11.164 11.228-.001.027-.004.148.01.354z" fill="url(#a)"/><defs><linearGradient id="a" x1="58.125" y1="30" x2="1.875" y2="30" gradientUnits="userSpaceOnUse"><stop stop-color="#10733E"/><stop offset="1" stop-color="#47A070"/></linearGradient></defs></svg>