<svg width="50" height="50" fill="none" xmlns="http://www.w3.org/2000/svg"><path d="M8.525 24.192c-1.49 2.893-1.341 6.031.44 8.703 1.917 2.868 5.48 4.764 9.078 4.83 2.227.04 4.22.658 5.804 1.776H.829v.758c0 3.4 2.766 6.166 6.167 6.166h36.152c3.4 0 6.166-2.766 6.166-6.166V39.5H39.157c2.428-.954 4.238-3.143 4.642-5.896a7.432 7.432 0 0 0-4.61-7.988 7.653 7.653 0 0 0-2.927-.52c2.95-1.789 5.326-3.442 5.357-3.463a.78.78 0 0 0 .102-.085c2.416-2.41 2.873-4.77 1.395-7.19l5.298-4.724.082-.081c1.23-1.232 1.061-3.33-.386-4.778-1.427-1.427-3.658-1.662-4.888-.275l-4.668 5.212c-.774-.51-1.764-.97-2.937-.97-1.866 0-3.948 1.489-4.553 2.335-.035.052-3.356 4.823-5.693 9.283-1.646-1.767-4.105-2.83-7.065-2.653 2.792-5.72.264-9.328-2.766-9.328-.445 0-.888.085-1.308.242-1.422-1.142-3.322-1.3-4.862-.232-1.713-.638-3.587-.25-4.782 1.019-.747.794-1.162 1.84-1.195 2.98-1.493.964-2.143 2.778-1.633 4.556-2.766 2.954-.107 7.632 6.765 7.247zm39.212 16.824a4.66 4.66 0 0 1-4.59 3.894H6.997a4.66 4.66 0 0 1-4.59-3.894h45.331zM26.138 35.72c.473.172 2.949.633 5.713 2.757.557.43 1.172.77 1.83 1.025h-6.914c.165-1.03-.614-1.675-.629-3.782zm12.494-8.692c2.593 1.036 4.067 3.593 3.668 6.36-.69 4.691-6.05 6.569-9.524 3.889-3.142-2.414-5.827-2.855-7.117-3.273-5.266-1.688-6.15-4.915-5.057-7.145l.002-.004c.084-.173.197-.357.346-.564 2.146-2.961 8.117 1.563 14.387.407a6.06 6.06 0 0 1 3.295.33zm5.72-21.518c.66-.742 1.923-.425 2.686.338.833.833 1.007 2.015.387 2.635l-5 4.476a21.54 21.54 0 0 0-.692-.737l3.675-3.676a.757.757 0 1 0-1.07-1.07l-3.675 3.674a30.845 30.845 0 0 0-.73-.702l4.42-4.938zM32.27 12.001c1.17-1.157 2.297-1.743 3.348-1.743.884 0 1.776.394 2.814 1.247.697.56 2.367 2.22 2.892 2.939a.73.73 0 0 0 .082.092c1.123 1.449 1.88 3.28-.708 5.893-.49.339-4.178 2.871-7.928 4.947-2.28-.042-3.854-.585-5.199-.91a10.28 10.28 0 0 0-.877-2.234c-.043-.08-.09-.159-.134-.238-.057-.1-.11-.204-.17-.302 2.161-4.281 5.487-9.123 5.88-9.691zM24.886 22.16l.015.02c.02.03.035.061.055.091.337.513.641 1.107.896 1.808-2.401-.518-4.715-.63-6.129 1.322-.062.085-.119.168-.172.25l-.388-.1a1.609 1.609 0 0 0-1.931 1.137l-.265 1.031a1.588 1.588 0 0 0 1.136 1.929l.704.18c.087.122.276 3.407 5.822 5.424a8.762 8.762 0 0 0 .466 3.279c-1.894-1.47-4.318-2.271-7.024-2.322-3.117-.057-6.197-1.688-7.846-4.155-2.823-4.235-.391-9.174 4.335-11.715 4.512-2.232 8.452-.918 10.326 1.82zm-5.98 4.89c-.061.206-.108.415-.145.626-.01.054-.012.11-.02.164-.02.131-.04.262-.05.394l-.21-.054c-.037-.009-.057-.046-.046-.085l.264-1.029c.008-.03.039-.044.074-.045.004 0 .008-.003.012-.002l.12.03zm-.98-13.224c-.16 1.374-.66 2.77-1.486 4.157a8.974 8.974 0 0 0-.203.052c.53-2.684.508-5.909-.878-8.132.85-.073 2.888 1.177 2.567 3.923zm-3.122 3.64c-.37-2.877-1.641-6.373-3.872-8.181 3.156-.93 4.785 3.664 3.871 8.18zM7.714 9.582c3.626 0 5.565 5.797 5.712 9.653-.37.214-1.063.66-1.556 1.038C3.394 16.361 3.59 9.582 7.715 9.582zM3.63 14.159c.807 2.753 3.547 5.265 6.113 6.726-2.27-.452-5.53-1.875-6.419-4.007-.415-.987-.274-2.005.306-2.72zm-1.128 4.33c1.505 2.113 4.579 3.448 7.18 3.928-.041.053-.083.106-.123.16-5.171.751-8.264-1.752-7.057-4.088z" fill="#4D4D4D"/><path d="M37.798 19.517a.758.758 0 0 0 1.071-1.071l-.69-.692a.758.758 0 0 0-1.072 1.072l.69.691zm-4.337-2.92a.758.758 0 0 0 1.071-1.073l-.691-.691a.758.758 0 0 0-1.072 1.072l.692.691zm.09 4.046a.758.758 0 0 0 0 1.072l.691.691a.758.758 0 0 0 1.072-1.072l-.692-.691a.758.758 0 0 0-1.071 0zm-3.668-.4a.757.757 0 1 0 1.072-1.072l-.692-.692a.757.757 0 1 0-1.071 1.072l.691.691zm-.24 4.07c.759-.76-.485-1.455-.693-1.764a.757.757 0 1 0-1.07 1.071c.389.345 1.07 1.385 1.762.692z" fill="#4D4D4D"/></svg>