<svg width="25" height="24" fill="none" xmlns="http://www.w3.org/2000/svg"><path d="M20.262 4H4.739A2.745 2.745 0 0 0 2 6.737v9.525A2.745 2.745 0 0 0 4.737 19h15.525A2.745 2.745 0 0 0 23 16.262V6.739A2.745 2.745 0 0 0 20.262 4zM21.5 16.262a1.237 1.237 0 0 1-1.238 1.238H4.739A1.237 1.237 0 0 1 3.5 16.262V6.739A1.237 1.237 0 0 1 4.737 5.5h15.525A1.237 1.237 0 0 1 21.5 6.737v9.525z" fill="#4D4D4D"/><path d="M19.617 7.778 12.5 12.045 5.383 7.778a.75.75 0 1 0-.75 1.29l7.5 4.5a.75.75 0 0 0 .75 0l7.5-4.5a.75.75 0 0 0-.75-1.29h-.015z" fill="url(#a)"/><defs><linearGradient id="a" x1="4.191" y1="10.651" x2="20.691" y2="10.651" gradientUnits="userSpaceOnUse"><stop stop-color="#10733E"/><stop offset="1" stop-color="#47A070"/></linearGradient></defs></svg>