<svg width="37" height="36" fill="none" xmlns="http://www.w3.org/2000/svg"><rect x="2.489" y="2.23" width="31.582" height="31.582" rx="4" fill="#fff"/><path d="M36.151 10.579c-.087-1.916-.392-3.225-.836-4.37a8.825 8.825 0 0 0-2.076-3.188A8.823 8.823 0 0 0 30.05.944C28.905.5 27.597.196 25.681.11 23.761.02 23.148 0 18.26 0c-4.889 0-5.502.021-7.421.108C8.923.196 7.614.5 6.469.945a8.825 8.825 0 0 0-3.188 2.076A8.822 8.822 0 0 0 1.204 6.21C.76 7.354.456 8.663.37 10.58.28 12.498.259 13.111.259 18c0 4.889.022 5.502.11 7.422.087 1.915.391 3.224.836 4.369a8.823 8.823 0 0 0 2.076 3.188 8.816 8.816 0 0 0 3.189 2.076c1.145.445 2.453.749 4.369.837 1.92.087 2.533.108 7.421.108 4.889 0 5.502-.02 7.421-.108 1.916-.088 3.225-.392 4.37-.837a9.201 9.201 0 0 0 5.264-5.264c.445-1.145.749-2.454.836-4.37.088-1.92.109-2.533.109-7.421s-.021-5.502-.109-7.421zm-3.24 14.695c-.08 1.755-.373 2.708-.62 3.342a5.96 5.96 0 0 1-3.415 3.416c-.634.247-1.587.54-3.343.62-1.897.087-2.467.105-7.273.105-4.807 0-5.376-.018-7.274-.105-1.755-.08-2.708-.373-3.342-.62a5.582 5.582 0 0 1-2.07-1.346 5.578 5.578 0 0 1-1.347-2.07c-.246-.634-.54-1.587-.62-3.342-.086-1.898-.104-2.468-.104-7.274s.018-5.376.105-7.274c.08-1.755.373-2.708.62-3.342a5.58 5.58 0 0 1 1.346-2.07 5.574 5.574 0 0 1 2.07-1.346c.634-.247 1.587-.54 3.343-.62 1.897-.086 2.466-.105 7.273-.105 4.806 0 5.375.019 7.273.105 1.755.08 2.708.374 3.342.62a5.586 5.586 0 0 1 2.07 1.346 5.574 5.574 0 0 1 1.346 2.07c.247.634.54 1.588.62 3.343.087 1.898.105 2.467.105 7.273 0 4.807-.018 5.376-.105 7.274z" fill="url(#a)"/><path d="M18.26 8.757a9.243 9.243 0 1 0 0 18.486 9.243 9.243 0 0 0 0-18.486zm0 15.243a6 6 0 1 1 0-12 6 6 0 0 1 0 12z" fill="url(#b)"/><path d="M30.028 8.391a2.16 2.16 0 1 1-4.32 0 2.16 2.16 0 0 1 4.32 0z" fill="url(#c)"/><defs><linearGradient id="a" x1="3.281" y1="32.979" x2="33.239" y2="3.021" gradientUnits="userSpaceOnUse"><stop stop-color="#FFD600"/><stop offset=".5" stop-color="#FF0100"/><stop offset="1" stop-color="#D800B9"/></linearGradient><linearGradient id="b" x1="11.724" y1="24.536" x2="24.796" y2="11.464" gradientUnits="userSpaceOnUse"><stop stop-color="#FF6400"/><stop offset=".5" stop-color="#FF0100"/><stop offset="1" stop-color="#FD0056"/></linearGradient><linearGradient id="c" x1="26.34" y1="9.919" x2="29.395" y2="6.864" gradientUnits="userSpaceOnUse"><stop stop-color="#F30072"/><stop offset="1" stop-color="#E50097"/></linearGradient></defs></svg>