<svg width="25" height="24" fill="none" xmlns="http://www.w3.org/2000/svg"><path d="M16 1.5A1.5 1.5 0 0 1 17.5 3v18a1.5 1.5 0 0 1-1.5 1.5H7A1.5 1.5 0 0 1 5.5 21V3A1.5 1.5 0 0 1 7 1.5h9zM7 0a3 3 0 0 0-3 3v18a3 3 0 0 0 3 3h9a3 3 0 0 0 3-3V3a3 3 0 0 0-3-3H7z" fill="#4D4D4D"/><path d="M11.5 21a1.5 1.5 0 1 0 0-3 1.5 1.5 0 0 0 0 3z" fill="url(#a)"/><defs><linearGradient id="a" x1="10" y1="19.5" x2="13" y2="19.5" gradientUnits="userSpaceOnUse"><stop stop-color="#10733E"/><stop offset="1" stop-color="#47A070"/></linearGradient></defs></svg>