<svg width="37" height="26" fill="none" xmlns="http://www.w3.org/2000/svg"><path d="M36.181 4.724a4.51 4.51 0 0 0-3.183-3.183C30.191.789 18.934.789 18.934.789s-11.258 0-14.065.752a4.51 4.51 0 0 0-3.183 3.183C.934 7.53.934 13.389.934 13.389s0 5.857.752 8.664a4.51 4.51 0 0 0 3.183 3.183c2.807.753 14.065.753 14.065.753s11.257 0 14.064-.753a4.51 4.51 0 0 0 3.183-3.183c.753-2.807.753-8.664.753-8.664s0-5.858-.753-8.665z" fill="red"/><path d="m15.334 18.788 9.352-5.4-9.352-5.4v10.8z" fill="#fff"/></svg>