<svg width="51" height="51" fill="none" xmlns="http://www.w3.org/2000/svg"><path d="M46.196 34.786a2.852 2.852 0 0 0-2.773-.157l-8.028 3.85a2.854 2.854 0 0 0-.834-1.844 2.89 2.89 0 0 0-2.052-.845h-4.64a14.2 14.2 0 0 0-1.141-.87v-2.757c.295.029.662.053 1.076.053 0 0 .001 0 0 0 1.367 0 3.26-.264 4.512-1.516 2.129-2.128 1.397-6.128 1.365-6.297a.76.76 0 0 0-.603-.603c-1.99-.402-4.837-.149-6.35 1.427v-3.11c.376.043.895.084 1.491.084 1.616 0 3.851-.309 5.321-1.778 2.504-2.503 1.637-7.239 1.6-7.439a.758.758 0 0 0-.603-.603c-.088-.018-4.885-.954-7.438 1.6a4.835 4.835 0 0 0-.371.425v-.988c.87-.656 3.663-2.984 3.663-5.896 0-3.369-3.759-5.964-3.918-6.073a.759.759 0 0 0-.853 0c-.16.109-3.92 2.704-3.92 6.073 0 2.757 2.506 4.992 3.513 5.78v2.028c-2.094-1.944-5.819-1.221-5.887-1.208a.759.759 0 0 0-.603.603c-.03.16-.727 3.967 1.303 5.996 1.284 1.284 3.36 1.56 5.187 1.408v1.934c-1.809-2.26-5.43-2.614-8.19-2.102a.759.759 0 0 0-.604.603c-.04.21-.951 5.192 1.679 7.822 1.542 1.542 3.892 1.866 5.59 1.866.606 0 1.133-.04 1.525-.083v1.826c-3.316-1.744-5.371-1.53-11.328-1.559v-1.325H4.411v15.434h9.474v-1.756c2.701 1.54 9.148 5.013 12.32 5.013.075 0 .149-.001.22-.006 5.607-.312 18.778-9.508 19.68-10.143 1.859-1.075 1.904-3.728.091-4.867zm-18.343-8.55c1.193-1.191 3.411-1.117 4.41-1.018.402 3.992-1.24 5.477-4.41 5.483 1.325-1.577 3.113-2.419 2.23-3.302a.757.757 0 0 0-1.071 0l-2.229 2.229c.003-1.098.2-2.52 1.07-3.391zm.317-11.183c1.533-1.535 4.392-1.385 5.556-1.257.56 4.975-1.514 6.992-5.755 6.887l2.867-2.722a.758.758 0 0 0-1.043-1.1l-2.952 2.803c-.047-1.382.12-3.404 1.327-4.611zm-2.986 14.64c-2.677-2.282-3.498-4.137-4.403-3.205-.901.934.964 1.68 3.298 4.243-4.555.158-6.858-1.96-6.245-7.356 5.358-.617 7.528 1.655 7.35 6.317zM12.37 45.028H5.926V32.627h6.444V45.03zM23.216 7.523c0-1.995 1.953-3.79 2.834-4.5 1.06.848 2.826 2.648 2.826 4.5 0 1.53-1.14 2.94-2.072 3.836V7.944a.757.757 0 1 0-1.515 0v3.414c-.932-.896-2.073-2.305-2.073-3.836zM23.21 17.54a.757.757 0 1 0-1.07 1.071l2.038 2.039c-1.012-.014-2.288-.206-3.081-.999-1.096-1.096-1.05-3.141-.956-4.109.953-.095 3.004-.148 4.109.956.63.63.878 1.57.962 2.442v.602l-2.002-2.002zM45.33 38.351a.686.686 0 0 0-.067.042c-.137.096-13.668 9.598-18.923 9.891-2.642.128-9.563-3.554-12.455-5.245v-9.087c1.139.005 3.437.023 5.988.084 2.423.057 5.117 1.207 7.205 3.077l.216.193h5.214c.372 0 .723.143.985.404.262.26.407.605.407.972 0 .759-.625 1.377-1.393 1.377h-9.512v1.515h9.512c.932 0 1.753-.446 2.286-1.126l9.286-4.453a1.353 1.353 0 0 1 1.31.074c.875.55.807 1.797-.06 2.282z" fill="url(#a)"/><path d="M8.39 39.64v1.325h1.516v-1.324a1.93 1.93 0 0 0-.758-3.708 1.93 1.93 0 0 0-.757 3.708zm.758-2.192c.23 0 .417.184.417.41a.42.42 0 0 1-.417.424.426.426 0 0 1-.416-.423c0-.223.19-.411.416-.411z" fill="url(#b)"/><defs><linearGradient id="a" x1="4.411" y1="25.56" x2="47.528" y2="25.56" gradientUnits="userSpaceOnUse"><stop stop-color="#10733E"/><stop offset="1" stop-color="#47A070"/></linearGradient><linearGradient id="b" x1="7.217" y1="38.449" x2="11.08" y2="38.449" gradientUnits="userSpaceOnUse"><stop stop-color="#10733E"/><stop offset="1" stop-color="#47A070"/></linearGradient></defs></svg>