<svg width="79" height="81" fill="none" xmlns="http://www.w3.org/2000/svg"><mask id="a" fill="#fff"><path d="M.98 7.69a7 7 0 0 1 7-7h64a7 7 0 0 1 7 7v66a7 7 0 0 1-7 7h-64a7 7 0 0 1-7-7v-66z"/></mask><path d="M.98 7.69a7 7 0 0 1 7-7h64a7 7 0 0 1 7 7v66a7 7 0 0 1-7 7h-64a7 7 0 0 1-7-7v-66z" fill="#3AB44C"/><path d="M.98.69h78-78zm78 73c0 6.075-4.924 11-11 11h-56c-6.075 0-11-4.925-11-11 0 1.657 3.134 3 7 3h64c3.867 0 7-1.343 7-3zm-78 7v-80 80zm78-80v80-80z" fill="#3AB44C" mask="url(#a)"/><path d="M37.884 47.74h5.072l-1.594-8.842c.822-.241 1.51-.712 2.066-1.413.555-.7.833-1.485.833-2.355 0-1.062-.375-1.968-1.123-2.717-.75-.749-1.655-1.123-2.718-1.123s-1.968.374-2.717 1.123c-.749.749-1.123 1.655-1.123 2.717 0 .87.278 1.655.833 2.355.556.701 1.244 1.172 2.065 1.413l-1.594 8.841zM40.42 66c-5.555-1.74-10.18-5.17-13.877-10.29C22.849 50.59 21 44.792 21 38.32V23.246L40.42 16l19.42 7.246V38.32c0 6.473-1.847 12.27-5.543 17.391-3.696 5.12-8.321 8.55-13.877 10.29zm0-2.174c5.024-1.594 9.179-4.782 12.464-9.565 3.285-4.783 4.928-10.097 4.928-15.942V24.623l-17.392-6.45-17.391 6.45V38.32c0 5.845 1.643 11.16 4.927 15.942 3.285 4.782 7.44 7.97 12.464 9.565z" fill="#fff"/></svg>