<svg width="79" height="80" fill="none" xmlns="http://www.w3.org/2000/svg"><mask id="a" fill="#fff"><path d="M.96 7a7 7 0 0 1 7-7h64a7 7 0 0 1 7 7v66a7 7 0 0 1-7 7h-64a7 7 0 0 1-7-7V7z"/></mask><path d="M.96 7a7 7 0 0 1 7-7h64a7 7 0 0 1 7 7v66a7 7 0 0 1-7 7h-64a7 7 0 0 1-7-7V7z" fill="#3AB44C"/><path d="M.96 0h78-78zm78 73c0 6.075-4.925 11-11 11h-56c-6.075 0-11-4.925-11-11 0 1.657 3.134 3 7 3h64c3.866 0 7-1.343 7-3zm-78 7V0v80zm78-80v80V0z" fill="#3AB44C" mask="url(#a)"/><g clip-path="url(#b)" fill="#fff"><path d="m64.156 56.348-3.799-3.346-2.045-4.87a4.546 4.546 0 0 0 2.691-4.029c.192-7.524-3.86-13.461-4.036-13.705a4.354 4.354 0 0 0-5.152-1.602c.054-.298.085-.597.085-.91C51.9 25.19 49.754 23 47.117 23c-2.637 0-4.782 2.191-4.782 4.885 0 .299.03.597.084.88v.023c.4 2.184 2.23 3.849 4.452 3.967l-2.86 7.304-1.338.824a1.898 1.898 0 0 0-.723 2.396c.123.275.308.51.53.691l-1.66 4.233-2.883-1.178a.58.58 0 0 0-.754.33l-1.876 4.783a4.418 4.418 0 0 0 .038 3.33 4.27 4.27 0 0 0 2.33 2.325 4.15 4.15 0 0 0 1.576.314c1.692 0 3.291-1.037 3.96-2.733l1.876-4.783a.6.6 0 0 0-.323-.77l-2.883-1.178 1.668-4.257c.023 0 .047.008.062.008.261 0 .523-.055.769-.173l6.182-2.89c.4-.196.722-.51.915-.895l.123-.244c.3 1.265.546 2.64.553 3.574-.3.62-2.076 4.005-3.19 6.126-.2.377-.308.8-.308 1.225v9.33c0 .495.146.966.407 1.375H45.68a.587.587 0 0 0-.577.589c0 .322.262.589.577.589h9.904a.587.587 0 0 0 .576-.589.587.587 0 0 0-.576-.59h-2.369c.277-.431.439-.942.439-1.483V51.76l.407-.762 1.915 4.555c.146.354.376.676.66.927l4.238 3.73c.453.401 1.03.621 1.63.621.73 0 1.414-.322 1.891-.887a2.58 2.58 0 0 0 .6-1.854 2.431 2.431 0 0 0-.838-1.743zM42.15 54.926c-.638 1.618-2.445 2.411-4.037 1.767a3.11 3.11 0 0 1-1.699-1.696 3.232 3.232 0 0 1-.03-2.427l1.66-4.233 2.876 1.178 2.875 1.178-1.645 4.233zm4.975-30.748c1.215 0 2.283.62 2.945 1.555-1.415 1.147-2.322 1.186-3.353 1.225-.884.032-1.876.071-3.206.747.1-1.956 1.676-3.527 3.614-3.527zm-3.453 4.775c1.292-.754 2.169-.793 3.084-.824 1.091-.032 2.214-.079 3.829-1.312.1.338.169.691.169 1.06 0 .825-.277 1.587-.723 2.2-.061.07-.123.14-.177.211-.669.786-1.637 1.288-2.73 1.288-1.63.008-2.998-1.1-3.452-2.623zm4.498 3.692c.293-.063.577-.158.846-.275-.061.44-.061.895.008 1.35l-1.192 3.998-2.168 1.335 2.506-6.408zM49.831 51.1c0-.227.062-.455.17-.66 3.329-6.306 3.329-6.353 3.329-6.542.038-1.665-.654-4.343-.908-5.27l1.377-2.678a.592.592 0 0 0-.246-.793.568.568 0 0 0-.777.251L51.3 38.284l-.792 1.54-.039.07a.81.81 0 0 1-.376.361l-6.175 2.882a.71.71 0 0 1-.538.024.72.72 0 0 1-.115-1.272l5.336-3.283a.592.592 0 0 0 .254-.33l1.292-4.336v-.03c.007-.024 0-.04.007-.064a.65.65 0 0 0 0-.172v-.016a3.39 3.39 0 0 1 .538-2.545 5.93 5.93 0 0 0 .27-.346c.153-.172.322-.337.522-.479a3.222 3.222 0 0 1 4.537.794c.161.235 4.006 5.859 3.821 12.998-.046 1.79-1.507 3.251-3.26 3.251h-.1c-1.053.008-2.03.527-2.514 1.422l-1.392 2.584a.614.614 0 0 0-.07.283v8.71c0 .762-.53 1.413-1.206 1.476a1.353 1.353 0 0 1-1.046-.345 1.389 1.389 0 0 1-.446-1.021V51.1h.023zm13.71 8.082c-.47.55-1.354.62-1.9.141l-4.236-3.73a1.29 1.29 0 0 1-.354-.503l-2.26-5.395.2-.377c.276-.519.845-.817 1.507-.817h.1c.207 0 .407-.024.6-.047l2.152 5.136c.03.078.085.157.154.212l3.898 3.432c.27.236.438.574.461.943.031.369-.084.722-.322 1.005z"/><path d="M29.168 63a2.556 2.556 0 0 0 2.556-2.552v-9.327c0-.416-.11-.84-.314-1.225-1.14-2.112-2.957-5.496-3.264-6.117.008-.879.33-2.536.912-4.656l1.33 1.524.062.07c.283.322.676.558 1.148.652l5.803.95c.055.008.118.008.173.016v.73c-.983-.165-2.681-.196-3.868 1.107a.585.585 0 0 0 .039.832.581.581 0 0 0 .833-.039c.779-.856 1.966-.856 2.713-.746-.731.542-1.934 1.594-2.154 2.842a.589.589 0 0 0 .582.691.596.596 0 0 0 .581-.486c.134-.738.936-1.508 1.573-2.003a.561.561 0 0 0 .299.095c.322 0 .59-.267.59-.59v-.439c.566.487 1.156 1.13 1.266 1.75a.59.59 0 0 0 .582.488c.031 0 .07 0 .102-.008a.589.589 0 0 0 .48-.683c-.252-1.413-1.77-2.583-2.422-3.03v-.778c.023-.016.047-.016.07-.032.417-.282.7-.706.787-1.193a1.88 1.88 0 0 0-.857-1.963v-8.315a9.306 9.306 0 0 0 2.767-4.946.584.584 0 0 0-.463-.691.585.585 0 0 0-.692.463 8.047 8.047 0 0 1-1.612 3.447v-1.924c0-1.397.605-2.724 1.659-3.643l1.368-1.185a.586.586 0 0 0 .055-.833.588.588 0 0 0-.833-.055l-1.369 1.186a5.803 5.803 0 0 0-.448.432c-.165-.487-.338-1.201-.432-2.175a9.323 9.323 0 0 0 2.76-4.939.584.584 0 0 0-.464-.69.585.585 0 0 0-.692.463 8.097 8.097 0 0 1-1.667 3.517c0-.314.015-.636.039-.99a.595.595 0 0 0-.55-.627.6.6 0 0 0-.63.55c-.22 3.407.464 5.276.818 5.998a6.001 6.001 0 0 0-.802 2.991v.518c-.802-.533-1.376-1.17-1.612-1.821a.59.59 0 0 0-1.108.4c.393 1.068 1.352 2.042 2.72 2.78v9.641l-4.112-1.248-2.076-3.533a4.516 4.516 0 0 0-1.872-4.318l-.118-.071a4.887 4.887 0 0 0 4.412-3.957v-.024a4.7 4.7 0 0 0 .086-.88 4.893 4.893 0 0 0-4.89-4.883 4.893 4.893 0 0 0-4.892 4.884c0 1.75.928 3.282 2.32 4.145a4.488 4.488 0 0 0-3.2 1.861c-.174.252-4.318 6.172-4.129 13.701.047 1.798 1.18 3.353 2.752 4.028l-2.091 4.868-3.885 3.345a2.557 2.557 0 0 0-.88 1.743 2.52 2.52 0 0 0 .613 1.853 2.547 2.547 0 0 0 3.61.282l4.332-3.73c.29-.25.527-.572.684-.926l1.95-4.553.417.761v8.55c0 1.359 1.006 2.52 2.296 2.654.086.016.173.016.26.016zm-.157-42.296a3.71 3.71 0 0 1 3.696 3.525c-1.36-.683-2.375-.722-3.28-.746-1.053-.031-1.973-.078-3.427-1.225a3.716 3.716 0 0 1 3.011-1.554zm-3.703 3.706c0-.37.07-.723.172-1.06 1.652 1.232 2.8 1.28 3.916 1.31.936.032 1.833.064 3.154.825-.464 1.516-1.864 2.63-3.531 2.63a3.71 3.71 0 0 1-3.711-3.705zm-2.147 30.7a1.439 1.439 0 0 1-.37.502l-4.332 3.73c-.551.478-1.463.407-1.943-.142a1.351 1.351 0 0 1-.33-.997c.023-.37.197-.7.472-.943l3.986-3.43a.678.678 0 0 0 .158-.213l2.201-5.134c.205.03.41.047.614.047h.165c.637 0 1.195.306 1.47.816l.22.37-2.311 5.393zm4.631 5.228v-8.707a.58.58 0 0 0-.07-.283l-1.424-2.583c-.495-.903-1.486-1.452-2.571-1.421h-.102c-1.793 0-3.287-1.46-3.334-3.25-.181-7.145 3.743-12.76 3.908-12.995 1.053-1.492 3.137-1.845 4.64-.793a3.334 3.334 0 0 1 1.36 3.369v.03a.752.752 0 0 0 0 .19l.023.07c.016.04.016.078.04.118l2.295 3.91c.08.125.197.22.339.267l5.08 1.539c.345.11.55.455.48.816a.687.687 0 0 1-.292.448.683.683 0 0 1-.558.102l-5.796-.95a.82.82 0 0 1-.463-.26l-3.342-3.823a.588.588 0 0 0-.834-.055.593.593 0 0 0-.055.832l1.014 1.154c-.487 1.704-1.195 4.437-1.163 5.842 0 .196 0 .251 3.405 6.556.11.212.172.44.172.66v9.327a1.374 1.374 0 0 1-1.525 1.366c-.684-.07-1.227-.714-1.227-1.476z"/><path d="M22.093 61.382h-6.51c-.32 0-.583.284-.583.626 0 .343.264.627.582.627h6.511c.319 0 .582-.284.582-.627 0-.342-.264-.626-.582-.626zm12.293 1.287h-6.511c-.318 0-.582.284-.582.626 0 .343.264.627.582.627h6.511c.318 0 .582-.284.582-.627 0-.342-.264-.627-.582-.627zm8.739 1.078h-5.23c-.32 0-.583.284-.583.626 0 .343.264.627.582.627h5.23c.319 0 .583-.284.583-.627 0-.342-.256-.627-.582-.627zm19.293-1.588h-3.252c-.318 0-.582.284-.582.627 0 .342.264.626.582.626h3.252c.318 0 .582-.284.582-.627 0-.342-.264-.626-.582-.626zm-22.506-.953a6.76 6.76 0 0 0 2.429-.46c.877-.334 1.653-.492 2.383-.492h.939c.318 0 .582-.285.582-.627 0-.343-.264-.627-.582-.627h-.94c-.86 0-1.769.184-2.77.568-1.374.518-2.709.518-4.082 0C36.87 59.184 35.96 59 35.1 59h-2.67c-.319 0-.582.284-.582.627 0 .342.263.627.582.627h2.67c.729 0 1.505.158 2.382.492a6.76 6.76 0 0 0 2.429.46z"/></g><defs><clipPath id="b"><path fill="#fff" transform="translate(15 15)" d="M0 0h50v50H0z"/></clipPath></defs></svg>