<svg width="78" height="80" fill="none" xmlns="http://www.w3.org/2000/svg"><mask id="a" fill="#fff"><path d="M0 7a7 7 0 0 1 7-7h64a7 7 0 0 1 7 7v66a7 7 0 0 1-7 7H7a7 7 0 0 1-7-7V7z"/></mask><path d="M0 7a7 7 0 0 1 7-7h64a7 7 0 0 1 7 7v66a7 7 0 0 1-7 7H7a7 7 0 0 1-7-7V7z" fill="#3AB44C"/><path d="M0 0h78H0zm78 73c0 6.075-4.925 11-11 11H11C4.925 84 0 79.075 0 73c0 1.657 3.134 3 7 3h64c3.866 0 7-1.343 7-3zM0 80V0v80zM78 0v80V0z" fill="#3AB44C" mask="url(#a)"/><path d="M50.059 46.386a.624.624 0 0 0-.358-1.148 3.415 3.415 0 0 1-2.9-1.408 2.987 2.987 0 0 1-.379-2.82.625.625 0 0 0-.953-.724 3.532 3.532 0 0 1-3.193.487c-1.04-.343-1.812-1.11-2.12-2.105a.625.625 0 0 0-1.195 0c-.308.995-1.081 1.762-2.12 2.105a3.529 3.529 0 0 1-3.193-.487.625.625 0 0 0-.954.724c.357.953.22 1.98-.379 2.82a3.41 3.41 0 0 1-2.9 1.408.624.624 0 0 0-.357 1.149c.925.601 1.456 1.553 1.456 2.61 0 1.058-.53 2.01-1.456 2.612a.624.624 0 0 0-.256.709c.083.267.346.421.613.44a3.393 3.393 0 0 1 2.9 1.407c.598.84.736 1.867.379 2.82a.625.625 0 0 0 .954.724 3.534 3.534 0 0 1 3.193-.488c1.039.344 1.812 1.111 2.12 2.106a.625.625 0 0 0 1.194 0c.309-.995 1.082-1.762 2.12-2.106a3.537 3.537 0 0 1 3.194.488.626.626 0 0 0 .953-.724 2.987 2.987 0 0 1 .38-2.82 3.4 3.4 0 0 1 2.9-1.408c.26-.017.53-.172.613-.439a.624.624 0 0 0-.256-.71c-.926-.602-1.456-1.553-1.456-2.611 0-1.057.53-2.009 1.456-2.61zm-4.276 7.053a4.248 4.248 0 0 0-.805 2.617 4.829 4.829 0 0 0-3.095-.022 4.555 4.555 0 0 0-2.325 1.703 4.556 4.556 0 0 0-2.325-1.703 4.836 4.836 0 0 0-3.094.022 4.248 4.248 0 0 0-.806-2.617 4.607 4.607 0 0 0-2.519-1.755c.609-.761.95-1.702.95-2.687 0-.985-.341-1.925-.95-2.686a4.61 4.61 0 0 0 2.52-1.755c.562-.79.835-1.699.805-2.617.984.343 2.074.36 3.094.022a4.56 4.56 0 0 0 2.325-1.703 4.559 4.559 0 0 0 2.325 1.703c1.02.337 2.11.321 3.095-.022-.03.918.243 1.827.805 2.617a4.61 4.61 0 0 0 2.519 1.755 4.297 4.297 0 0 0-.95 2.686c0 .985.342 1.926.95 2.687a4.61 4.61 0 0 0-2.519 1.755z" fill="#fff"/><path d="M39.559 43.822a5.182 5.182 0 0 0-5.176 5.176 5.182 5.182 0 0 0 5.176 5.175 5.182 5.182 0 0 0 5.176-5.175 5.182 5.182 0 0 0-5.176-5.176zm0 9.101a3.93 3.93 0 0 1-3.926-3.925 3.93 3.93 0 0 1 3.926-3.926 3.93 3.93 0 0 1 3.926 3.926 3.93 3.93 0 0 1-3.926 3.925z" fill="#fff"/><path d="M59.832 56.247 58.6 34.927a3.011 3.011 0 0 0 1.403-2.541v-3.637a3.02 3.02 0 0 0-3.016-3.017h-.048c-.15-3.036-2.659-5.463-5.731-5.463-.804 0-1.595.17-2.326.495A8.19 8.19 0 0 0 41.073 15a8.133 8.133 0 0 0-6.939 3.866 8.131 8.131 0 0 0-3.953-1.021c-4.41 0-8.005 3.513-8.157 7.887h-.047a3.02 3.02 0 0 0-3.017 3.017v3.637a3.01 3.01 0 0 0 1.404 2.54l-1.233 21.321-1.073 2.22A3.848 3.848 0 0 0 17 61.126c0 1.035.403 2.008 1.135 2.74a3.879 3.879 0 0 0 5.479 0l.674-.674c2.374.55 16.366 3.49 30.391.003l.67.671A3.86 3.86 0 0 0 58.09 65a3.86 3.86 0 0 0 2.74-1.133 3.85 3.85 0 0 0 1.135-2.74c0-.998-.375-1.939-1.058-2.66l-1.074-2.22zM30.181 19.095a6.89 6.89 0 0 1 3.833 1.16.626.626 0 0 0 .903-.235 6.897 6.897 0 0 1 6.156-3.77 6.933 6.933 0 0 1 6.786 5.564.624.624 0 0 0 .947.405 4.482 4.482 0 0 1 2.402-.7 4.498 4.498 0 0 1 4.481 4.213H23.274c.151-3.684 3.187-6.637 6.907-6.637zm-9.97 9.654c0-.974.792-1.767 1.766-1.767h35.01c.974 0 1.766.793 1.766 1.767v3.637c0 .974-.792 1.767-1.766 1.767h-35.01a1.769 1.769 0 0 1-1.766-1.767v-3.637zm39.734 34.234a2.608 2.608 0 0 1-1.855.769c-.702 0-1.36-.273-1.857-.769l-.92-.921a.626.626 0 0 0-.598-.164c-15.111 3.871-30.314.039-30.466 0a.62.62 0 0 0-.598.163l-.92.922a2.608 2.608 0 0 1-1.857.769c-.7 0-1.36-.273-1.855-.769a2.608 2.608 0 0 1-.769-1.856c0-.7.273-1.36.768-1.855a.63.63 0 0 0 .121-.17l1.172-2.422a.625.625 0 0 0 .061-.236l1.219-21.08c.127.017.254.039.386.039h35.01c.132 0 .258-.023.386-.04l1.218 21.08a.623.623 0 0 0 .061.237l1.172 2.422c.03.063.072.12.121.17.496.495.769 1.154.769 1.855 0 .701-.273 1.36-.769 1.856z" fill="#fff"/></svg>