<svg width="78" height="80" fill="none" xmlns="http://www.w3.org/2000/svg"><mask id="a" fill="#fff"><path d="M0 7a7 7 0 0 1 7-7h64a7 7 0 0 1 7 7v66a7 7 0 0 1-7 7H7a7 7 0 0 1-7-7V7z"/></mask><path d="M0 7a7 7 0 0 1 7-7h64a7 7 0 0 1 7 7v66a7 7 0 0 1-7 7H7a7 7 0 0 1-7-7V7z" fill="#3AB44C"/><path d="M0 0h78H0zm78 73c0 6.075-4.925 11-11 11H11C4.925 84 0 79.075 0 73c0 1.657 3.134 3 7 3h64c3.866 0 7-1.343 7-3zM0 80V0v80zM78 0v80V0z" fill="#3AB44C" mask="url(#a)"/><path d="M64 58.675a.625.625 0 0 0-1.25 0c0 2.343-1.761 4.28-4.036 4.585v-6.093a.625.625 0 0 0-1.25 0v6.093c-2.275-.305-4.036-2.242-4.036-4.585a.625.625 0 0 0-1.25 0c0 2.34 1.384 4.36 3.378 5.306H41.533c1.993-.947 3.378-2.966 3.378-5.306a.625.625 0 0 0-1.25 0c0 2.343-1.761 4.28-4.036 4.585v-6.093a.625.625 0 1 0-1.25 0v6.093c-2.275-.305-4.036-2.242-4.036-4.585a.625.625 0 1 0-1.25 0c0 2.34 1.384 4.36 3.378 5.306H22.444c1.994-.947 3.378-2.966 3.378-5.306a.625.625 0 1 0-1.25 0c0 2.343-1.761 4.28-4.036 4.585v-6.093a.625.625 0 1 0-1.25 0v6.093c-2.275-.305-4.036-2.242-4.036-4.585a.625.625 0 0 0-1.25 0c0 2.34 1.384 4.36 3.378 5.306h-2.753a.625.625 0 0 0 0 1.25h48.75a.625.625 0 0 0 0-1.25h-2.753C62.615 63.034 64 61.015 64 58.675zM64 44.904a.625.625 0 0 0-1.25 0c0 2.343-1.761 4.28-4.036 4.585v-6.093a.625.625 0 0 0-1.25 0v6.093c-2.275-.305-4.036-2.242-4.036-4.585a.625.625 0 0 0-1.25 0c0 2.34 1.384 4.36 3.378 5.306H41.532c1.994-.946 3.379-2.966 3.379-5.306a.625.625 0 0 0-1.25 0c0 2.343-1.761 4.28-4.036 4.585v-6.093a.625.625 0 1 0-1.25 0v6.093c-2.275-.305-4.036-2.242-4.036-4.585a.625.625 0 1 0-1.25 0c0 2.34 1.385 4.36 3.378 5.306H22.443c1.994-.946 3.379-2.966 3.379-5.306a.625.625 0 1 0-1.25 0c0 2.343-1.761 4.28-4.036 4.585v-6.093a.625.625 0 1 0-1.25 0v6.093c-2.275-.305-4.036-2.242-4.036-4.585a.625.625 0 0 0-1.25 0c0 2.34 1.384 4.36 3.378 5.306h-2.753a.625.625 0 0 0 0 1.25h48.75a.625.625 0 0 0 0-1.25H60.62C62.615 49.264 64 47.244 64 44.904zM64 31.135a.625.625 0 0 0-1.25 0c0 2.342-1.761 4.28-4.036 4.585v-6.093a.625.625 0 0 0-1.25 0v6.093c-2.275-.305-4.036-2.242-4.036-4.585a.625.625 0 0 0-1.25 0c0 2.34 1.384 4.36 3.378 5.306H41.533c1.993-.947 3.378-2.966 3.378-5.306a.625.625 0 0 0-1.25 0c0 2.342-1.761 4.28-4.036 4.585v-6.093a.625.625 0 1 0-1.25 0v6.093c-2.275-.305-4.036-2.242-4.036-4.585a.625.625 0 0 0-1.25 0c0 2.34 1.384 4.36 3.378 5.306H22.444c1.994-.947 3.378-2.966 3.378-5.306a.625.625 0 0 0-1.25 0c0 2.342-1.761 4.28-4.036 4.585v-6.093a.625.625 0 1 0-1.25 0v6.093c-2.275-.305-4.036-2.242-4.036-4.585a.625.625 0 0 0-1.25 0c0 2.34 1.384 4.36 3.378 5.306h-2.753a.625.625 0 1 0 0 1.25h48.75a.625.625 0 0 0 0-1.25h-2.753C62.615 35.494 64 33.475 64 31.135zM64 17.364a.625.625 0 0 0-1.25 0c0 2.343-1.761 4.28-4.036 4.585v-6.093a.625.625 0 0 0-1.25 0v6.093c-2.275-.305-4.036-2.242-4.036-4.585a.625.625 0 0 0-1.25 0c0 2.34 1.384 4.36 3.378 5.306H41.533c1.993-.946 3.378-2.966 3.378-5.306a.625.625 0 0 0-1.25 0c0 2.343-1.761 4.28-4.036 4.585v-6.093a.625.625 0 1 0-1.25 0v6.093c-2.275-.305-4.036-2.242-4.036-4.585a.625.625 0 0 0-1.25 0c0 2.34 1.384 4.36 3.378 5.306H22.444c1.994-.946 3.378-2.966 3.378-5.306a.625.625 0 0 0-1.25 0c0 2.343-1.761 4.28-4.036 4.585v-6.093a.625.625 0 1 0-1.25 0v6.093c-2.275-.305-4.036-2.242-4.036-4.585a.625.625 0 0 0-1.25 0c0 2.34 1.384 4.36 3.378 5.306h-2.753a.625.625 0 1 0 0 1.25h48.75a.625.625 0 0 0 0-1.25h-2.753C62.615 21.724 64 19.704 64 17.364z" fill="#fff"/></svg>