<svg width="78" height="80" fill="none" xmlns="http://www.w3.org/2000/svg"><mask id="a" fill="#fff"><path d="M0 7a7 7 0 0 1 7-7h64a7 7 0 0 1 7 7v66a7 7 0 0 1-7 7H7a7 7 0 0 1-7-7V7z"/></mask><path d="M0 7a7 7 0 0 1 7-7h64a7 7 0 0 1 7 7v66a7 7 0 0 1-7 7H7a7 7 0 0 1-7-7V7z" fill="#3AB44C"/><path d="M0 0h78H0zm78 73c0 6.075-4.925 11-11 11H11C4.925 84 0 79.075 0 73c0 1.657 3.134 3 7 3h64c3.866 0 7-1.343 7-3zM0 80V0v80zM78 0v80V0z" fill="#3AB44C" mask="url(#a)"/><path d="M14.184 63.769a.623.623 0 0 0 .883 0c6.205-6.205 13.84-11.218 22.7-14.92v5.006c-4.756 2.296-9.616 5.23-14.234 8.988a.626.626 0 0 0 .789.97c14.136-11.502 30.59-15.196 39.139-16.375a.625.625 0 0 0-.171-1.238c-5.645.778-14.686 2.64-24.272 7.064V51.83c.243.021.556.04.92.04 1.315 0 3.247-.247 4.516-1.515 1.247-1.247 1.506-3.132 1.515-4.446 9.856-2.974 17.358-3.324 17.433-3.328a.625.625 0 0 0 .598-.65.618.618 0 0 0-.65-.598c-.049.002-3.068.142-7.776.987v-1.165c.198.016.44.028.714.028 1.158 0 2.861-.219 3.983-1.34 1.799-1.8 1.276-5.095 1.252-5.235a.624.624 0 0 0-.514-.514c-.139-.023-3.435-.547-5.234 1.252-.072.072-.136.151-.2.228v-3.205c.216.02.503.038.837.038 1.157 0 2.862-.219 3.984-1.34 1.799-1.8 1.275-5.095 1.252-5.235a.624.624 0 0 0-.514-.514c-.14-.023-3.435-.547-5.235 1.252a3.73 3.73 0 0 0-.325.375v-3.858c.7-.568 2.554-2.272 2.554-4.384 0-2.544-2.7-4.504-2.815-4.586a.624.624 0 0 0-.727 0c-.115.082-2.816 2.042-2.816 4.586 0 2.112 1.855 3.816 2.554 4.384v.806c-.03-.033-.056-.069-.088-.1-1.8-1.8-5.095-1.276-5.235-1.253a.624.624 0 0 0-.513.514c-.023.14-.547 3.435 1.252 5.235 1.121 1.121 2.825 1.34 3.983 1.34.225 0 .425-.009.6-.02v3.201c-.068-.082-.135-.165-.212-.242-1.799-1.799-5.095-1.275-5.235-1.252a.624.624 0 0 0-.513.514c-.023.14-.547 3.435 1.252 5.234 1.121 1.122 2.825 1.34 3.983 1.34.28 0 .526-.013.726-.028v4.178a89.45 89.45 0 0 0-8.426 2.07c-.014-.12-.027-.195-.03-.215a.624.624 0 0 0-.514-.514 9.993 9.993 0 0 0-2.718-.016c-.015-.008-.025-.022-.04-.03a82.782 82.782 0 0 0-3.579-1.49v-.648c.255.027.622.055 1.063.055 1.316 0 3.248-.248 4.516-1.516 2.038-2.038 1.442-5.786 1.415-5.945a.624.624 0 0 0-.513-.513c-.16-.027-3.907-.622-5.945 1.415-.207.207-.38.435-.536.671v-4.794c.764-.613 2.941-2.573 2.941-5.002 0-2.882-3.072-5.111-3.202-5.205a.624.624 0 0 0-.727 0c-.13.093-3.203 2.323-3.203 5.205 0 2.429 2.178 4.389 2.942 5.002v1.224a4.062 4.062 0 0 0-.263-.3c-2.038-2.038-5.786-1.44-5.945-1.415a.624.624 0 0 0-.513.514c-.027.159-.623 3.906 1.415 5.944 1.269 1.27 3.2 1.517 4.516 1.517.301 0 .57-.013.79-.03v3.35c-.46-.172-.915-.355-1.379-.52-.021-.007-.043-.003-.064-.008a6.13 6.13 0 0 0-1.705-.598 88.121 88.121 0 0 0-11.741-3.027v-1.01c.142.01.299.017.48.017.978 0 2.424-.185 3.38-1.142 1.53-1.53 1.087-4.313 1.068-4.43a.624.624 0 0 0-.514-.515c-.118-.019-2.88-.457-4.415 1.053v-2.263c.166.013.356.024.584.024.979 0 2.425-.186 3.38-1.142 1.53-1.53 1.088-4.313 1.068-4.431a.624.624 0 0 0-.513-.514c-.119-.02-2.902-.462-4.432 1.068-.03.031-.056.066-.087.099v-2.86c.62-.513 2.117-1.931 2.117-3.684 0-2.163-2.28-3.818-2.378-3.888a.624.624 0 0 0-.727 0c-.096.07-2.378 1.725-2.378 3.888 0 1.753 1.497 3.172 2.116 3.684v.362c-1.548-1.409-4.206-.99-4.321-.971a.624.624 0 0 0-.514.514c-.02.117-.462 2.901 1.067 4.43.957.957 2.402 1.143 3.381 1.143.14 0 .27-.005.387-.01v2.258c-1.53-1.524-4.307-1.083-4.425-1.063a.624.624 0 0 0-.514.514c-.02.117-.462 2.902 1.068 4.431.956.956 2.401 1.142 3.38 1.142.186 0 .346-.008.49-.017v3.089c-4.26-.722-6.931-.832-6.98-.834a.636.636 0 0 0-.647.602.625.625 0 0 0 .602.647c.076.003 6.998.287 16.418 3.022a.613.613 0 0 0-.118.262c-.02.123-.374 2.372.394 4.33-6.738-2.328-12.675-3.456-16.585-3.995a.625.625 0 0 0-.17 1.238c4.157.573 10.638 1.82 17.931 4.502.816.738 1.859 1.1 2.842 1.263a78.25 78.25 0 0 0-5.228 2.58 88.524 88.524 0 0 0-15.342-4.433.625.625 0 0 0-.237 1.227c4.846.94 9.599 2.288 14.15 4.001a72.252 72.252 0 0 0-4.745 2.95 88.908 88.908 0 0 0-9.137-2.788.624.624 0 1 0-.3 1.213 87.65 87.65 0 0 1 8.172 2.455 66.09 66.09 0 0 0-8.464 7.13.627.627 0 0 0 0 .886zm42.474-27.54c1.01-1.01 2.834-1.013 3.684-.951.074.99-.012 2.736-.956 3.68-1.009 1.01-2.826 1.014-3.68.952-.062-.853-.057-2.672.952-3.68zm-2.354-7.872c-.855.062-2.672.056-3.68-.952-1.011-1.01-1.015-2.833-.953-3.684.991-.072 2.737.013 3.68.956 1.01 1.008 1.015 2.827.953 3.68zm-.125 8.775c-.855.06-2.671.056-3.68-.952-1.011-1.01-1.015-2.833-.953-3.685.99-.073 2.737.013 3.68.957 1.01 1.009 1.015 2.827.953 3.68zm2.603-9.677c1.012-1.01 2.834-1.015 3.685-.952.073.99-.013 2.736-.956 3.68-1.01 1.01-2.826 1.014-3.68.952-.062-.853-.057-2.672.951-3.68zm-3.762-8.751c0-1.43 1.286-2.72 1.931-3.279.752.648 1.926 1.944 1.926 3.279 0 1.426-1.281 2.716-1.928 3.275-.647-.56-1.93-1.849-1.93-3.275zM40.438 36.09c1.222-1.221 3.435-1.194 4.393-1.117.08.957.108 3.165-1.118 4.392-1.222 1.221-3.435 1.196-4.393 1.118-.08-.957-.11-3.166 1.118-4.393zm-4.361-10.009c0-1.727 1.583-3.273 2.316-3.896.732.623 2.316 2.17 2.316 3.896 0 1.727-1.583 3.273-2.316 3.896-.733-.622-2.316-2.17-2.316-3.896zm1.661 11.204c-.96.077-3.172.103-4.393-1.118-1.221-1.221-1.195-3.434-1.117-4.392.96-.078 3.172-.104 4.393 1.117.913.913 1.129 2.38 1.147 3.463v.06c.003.34-.011.642-.03.87zm-13.993-4.678c.771-.772 2.15-.808 2.872-.765.04.723.003 2.109-.762 2.875-.772.771-2.15.808-2.875.764-.042-.722-.007-2.102.765-2.874zm.104-7.273c.77-.772 2.149-.808 2.872-.765.04.723.003 2.109-.763 2.875-.77.77-2.15.806-2.872.764-.04-.723-.003-2.108.763-2.874zm-2.335 7.843c-.723.038-2.109.003-2.874-.763-.771-.771-.807-2.15-.765-2.872.722-.042 2.108-.004 2.875.762.772.772.807 2.15.764 2.873zm-.753-15.172c0-1.091.951-2.092 1.492-2.572.54.48 1.492 1.48 1.492 2.572s-.951 2.093-1.492 2.573c-.54-.48-1.492-1.48-1.492-2.573zm.857 7.9c-.724.04-2.109.002-2.874-.763-.772-.772-.807-2.15-.765-2.873.721-.042 2.108-.004 2.875.763.653.653.776 1.738.774 2.495v.103a6.879 6.879 0 0 1-.01.274zm10.466 15.973c.96-.076 3.172-.103 4.393 1.118 1.221 1.221 1.195 3.434 1.118 4.392-.959.08-3.172.105-4.393-1.117-1.222-1.222-1.195-3.434-1.118-4.393zm12.602 3.2c.078.958.104 3.17-1.117 4.392-1.221 1.22-3.434 1.193-4.393 1.118-.078-.96-.104-3.172 1.117-4.393 1.222-1.222 3.432-1.195 4.393-1.118zm-3.965-.665c-.475.22-.924.51-1.311.898-.145.145-.273.3-.393.46v-2.076c.578.23 1.138.477 1.704.718zM34.426 63.952a.616.616 0 0 0 .338-.1c10.461-6.745 21.398-9.855 28.731-11.276a.626.626 0 0 0-.237-1.227c-7.441 1.442-18.542 4.6-29.17 11.452a.624.624 0 0 0 .338 1.15zM63.982 57.197a.624.624 0 0 0-.757-.457c-5.95 1.472-11.635 3.515-16.895 6.073a.626.626 0 0 0 .547 1.124c5.181-2.52 10.782-4.533 16.648-5.984a.624.624 0 0 0 .457-.756z" fill="#fff"/></svg>