<svg width="51" height="51" fill="none" xmlns="http://www.w3.org/2000/svg"><path d="M25.166 29.989a.78.78 0 0 0 1.16 0L40.39 14.364a.781.781 0 0 0 .089-.925L35.79 5.626a.782.782 0 0 0-.67-.378H16.37a.781.781 0 0 0-.669.378l-4.687 7.813a.78.78 0 0 0 .089.925l14.063 15.625zm4.217-15.366-3.637 12.125-3.638-12.125h7.275zm-6.945-1.563 3.308-5.512 3.308 5.512h-6.616zm8.577 1.563h7.04l-10.56 11.732 3.52-11.732zm-3.89-7.813h6.616l-3.308 5.513-3.307-5.513zm-6.067 5.513L17.751 6.81h6.615l-3.308 5.513zm-1.38.737h-6.615l3.308-5.512 3.308 5.512zm.8 1.563 3.515 11.732-10.556-11.732h7.04zm17.95-1.563h-6.615l3.308-5.512 3.308 5.512z" fill="url(#a)"/><path d="M49.184 13.06h-6.25v1.563h6.25V13.06z" fill="url(#b)"/><path d="m48.094 6.09-5.468 2.346.616 1.436 5.468-2.345-.616-1.436z" fill="url(#c)"/><path d="m43.242 17.81-.616 1.437 5.469 2.344.615-1.437-5.468-2.343z" fill="url(#d)"/><path d="M8.559 13.06h-6.25v1.563h6.25V13.06z" fill="url(#e)"/><path d="m3.398 6.092-.616 1.436 5.47 2.344.615-1.436-5.47-2.344z" fill="url(#f)"/><path d="m8.25 17.81-5.468 2.345.616 1.436 5.468-2.345-.615-1.436z" fill="url(#g)"/><path d="M46.176 33.294a3.14 3.14 0 0 0-4.274-1.148l-6.82 3.938c.021-.122.034-.245.04-.368a3.123 3.123 0 0 0-3.126-3.125h-5.32l-2.36-.945a8.596 8.596 0 0 0-3.203-.617h-1.015a8.532 8.532 0 0 0-4.422 1.226l-1.867 1.118h-.563a.782.782 0 0 0-.781-.782h-6.25a.781.781 0 0 0-.781.782H2.309v1.562h3.125v8.867l-3.25.516.25 1.547 3.054-.492a.792.792 0 0 0 .727.5h6.25a.781.781 0 0 0 .781-.782v-.53l3.11-.25 9.913 1.1c.496.06.994.09 1.493.087a13.24 13.24 0 0 0 6.617-1.782l10.648-6.148a3.125 3.125 0 0 0 1.149-4.274zM11.684 44.31H6.996V34.154h4.688V44.31zm33.297-9.047a1.539 1.539 0 0 1-.735.946l-10.648 6.148a11.647 11.647 0 0 1-7.157 1.508l-9.984-1.11a.944.944 0 0 0-.148-.007l-3.063.25v-8.063h.781c.14 0 .278-.038.399-.11L16.48 33.6a6.94 6.94 0 0 1 3.618-1.008h1.015a6.94 6.94 0 0 1 2.617.508l2.508 1c.092.038.19.056.29.055h5.468a1.575 1.575 0 0 1 1.563 1.562 1.567 1.567 0 0 1-1.563 1.563h-7.812v1.562h8.21a3.828 3.828 0 0 0 1.954-.523l8.336-4.813a1.569 1.569 0 0 1 2.297 1.758z" fill="url(#h)"/><path d="M10.121 41.966H8.56v1.563h1.562v-1.563z" fill="url(#i)"/><defs><linearGradient id="a" x1="10.902" y1="17.747" x2="40.59" y2="17.747" gradientUnits="userSpaceOnUse"><stop stop-color="#10733E"/><stop offset="1" stop-color="#47A070"/></linearGradient><linearGradient id="b" x1="42.934" y1="13.841" x2="49.184" y2="13.841" gradientUnits="userSpaceOnUse"><stop stop-color="#10733E"/><stop offset="1" stop-color="#47A070"/></linearGradient><linearGradient id="c" x1="42.934" y1="9.154" x2="48.402" y2="6.809" gradientUnits="userSpaceOnUse"><stop stop-color="#10733E"/><stop offset="1" stop-color="#47A070"/></linearGradient><linearGradient id="d" x1="45.36" y1="20.419" x2="45.976" y2="18.983" gradientUnits="userSpaceOnUse"><stop stop-color="#10733E"/><stop offset="1" stop-color="#47A070"/></linearGradient><linearGradient id="e" x1="2.309" y1="13.841" x2="8.559" y2="13.841" gradientUnits="userSpaceOnUse"><stop stop-color="#10733E"/><stop offset="1" stop-color="#47A070"/></linearGradient><linearGradient id="f" x1="5.517" y1="8.7" x2="6.132" y2="7.264" gradientUnits="userSpaceOnUse"><stop stop-color="#10733E"/><stop offset="1" stop-color="#47A070"/></linearGradient><linearGradient id="g" x1="3.09" y1="20.873" x2="8.559" y2="18.528" gradientUnits="userSpaceOnUse"><stop stop-color="#10733E"/><stop offset="1" stop-color="#47A070"/></linearGradient><linearGradient id="h" x1="2.184" y1="38.451" x2="46.595" y2="38.451" gradientUnits="userSpaceOnUse"><stop stop-color="#10733E"/><stop offset="1" stop-color="#47A070"/></linearGradient><linearGradient id="i" x1="8.559" y1="42.748" x2="10.121" y2="42.748" gradientUnits="userSpaceOnUse"><stop stop-color="#10733E"/><stop offset="1" stop-color="#47A070"/></linearGradient></defs></svg>