<svg width="51" height="51" fill="none" xmlns="http://www.w3.org/2000/svg"><path d="M48.249 25.076c-.406-.524-10.172-12.797-22.492-12.797S3.679 24.552 3.265 25.076a.786.786 0 0 0 0 .96c.406.524 10.172 12.797 22.492 12.797S47.835 26.56 48.249 26.038a.785.785 0 0 0 0-.961zm-10.773.484c0 6.461-5.258 11.719-11.72 11.719-6.46 0-11.718-5.258-11.718-11.719 0-6.46 5.258-11.719 11.719-11.719 6.46 0 11.719 5.258 11.719 11.72zm-32.579 0c1.282-1.5 5.54-6.156 11.235-9.125-2.258 2.383-3.656 5.594-3.656 9.125 0 3.531 1.398 6.742 3.656 9.125-5.696-2.969-9.953-7.625-11.235-9.125zm30.485 9.125c2.258-2.383 3.656-5.594 3.656-9.125 0-3.531-1.398-6.742-3.656-9.125 5.695 2.969 9.953 7.625 11.234 9.125-1.281 1.5-5.539 6.156-11.234 9.125zm-18.938-9.32c.032 1.617 1.196 3.265 2.961 4.195.906.477 1.867.711 2.781.711.665 0 1.29-.125 1.844-.375.485.398.836.797 1.024 1.172v2.203c0 .43.351.781.781.781.43 0 .781-.351.781-.781v-2.164c.29-.383.703-.875 1.047-1.219a4.418 4.418 0 0 0 1.648.305c.97 0 2-.274 2.946-.82 1.726-.993 2.828-2.68 2.805-4.305a.784.784 0 0 0-.375-.656c-1.383-.844-3.399-.743-5.125.25-1.586.914-2.633 2.406-2.774 3.898-.055.055-.117.11-.172.164v-2.703c1.18-.883 1.93-2.508 1.93-4.305 0-1.992-.914-3.789-2.336-4.57a.756.756 0 0 0-.75 0c-1.422.781-2.336 2.578-2.336 4.57 0 1.797.75 3.422 1.93 4.305v2.68c-.063-.055-.133-.11-.203-.164-.196-1.485-1.297-2.946-2.922-3.797-1.766-.93-3.781-.946-5.133-.055a.767.767 0 0 0-.352.664v.016zm13.899.664c1.047-.602 2.234-.766 3.117-.469-.18.914-.93 1.86-1.977 2.461-1.047.602-2.242.766-3.117.469.18-.914.93-1.86 1.977-2.461zm-4.508-7.235c.703.61 1.148 1.727 1.148 2.938 0 1.21-.445 2.328-1.148 2.937-.703-.609-1.149-1.726-1.149-2.937 0-1.211.446-2.328 1.149-2.938zm-4.633 7.344c1.07.563 1.852 1.477 2.07 2.383-.867.336-2.07.219-3.132-.344-1.07-.562-1.852-1.476-2.07-2.383.866-.335 2.062-.218 3.132.344zm3.774-16.984V4.466c0-.43.351-.78.78-.78.43 0 .782.35.782.78v4.688c0 .43-.352.781-.781.781a.783.783 0 0 1-.781-.781zM14.53 7.685a.782.782 0 0 1 .29-1.07.782.782 0 0 1 1.07.289l2.343 4.062a.782.782 0 0 1-.68 1.172.786.786 0 0 1-.679-.39L14.53 7.685zm18.75 3.281 2.344-4.062a.79.79 0 0 1 1.07-.29.79.79 0 0 1 .29 1.071l-2.344 4.063a.786.786 0 0 1-1.07.289.79.79 0 0 1-.29-1.07zm-6.742 31.008v4.688c0 .43-.352.78-.781.78a.784.784 0 0 1-.781-.78v-4.688c0-.43.351-.781.78-.781.43 0 .782.351.782.781zm-8.305-1.805-2.343 4.063a.786.786 0 0 1-1.07.289.79.79 0 0 1-.29-1.07l2.344-4.063a.79.79 0 0 1 1.07-.289.79.79 0 0 1 .29 1.07zm18.75 3.282a.782.782 0 0 1-.68 1.172.787.787 0 0 1-.679-.391l-2.344-4.063a.782.782 0 0 1 .29-1.07.782.782 0 0 1 1.07.29l2.343 4.062z" fill="url(#a)"/><defs><linearGradient id="a" x1="3.101" y1="25.564" x2="48.413" y2="25.564" gradientUnits="userSpaceOnUse"><stop stop-color="#10733E"/><stop offset="1" stop-color="#47A070"/></linearGradient></defs></svg>