<svg width="16" height="16" viewBox="0 0 16 16" fill="none" xmlns="http://www.w3.org/2000/svg">
<g clip-path="url(#clip0_229_75)">
<path d="M15.391 12.5156L12.2503 9.375C12.0733 9.19792 11.8519 9.10938 11.5863 9.10938C11.3207 9.10938 11.0941 9.19792 10.9066 9.375L10.0785 10.2031C9.95347 10.3281 9.87014 10.4766 9.82847 10.6484C9.7868 10.8203 9.79201 10.9844 9.84409 11.1406L9.53159 11.4531C9.42743 11.5573 9.07066 11.4948 8.46128 11.2656C7.85191 11.0365 7.13576 10.5104 6.31284 9.6875C5.48993 8.86458 4.96389 8.14844 4.73472 7.53906C4.50555 6.92969 4.44305 6.57292 4.54722 6.46875L4.85972 6.15625C4.90139 6.16667 4.94566 6.17708 4.99253 6.1875C5.03941 6.19792 5.08368 6.20312 5.12534 6.20312C5.25034 6.20312 5.37014 6.17969 5.48472 6.13281C5.5993 6.08594 5.70347 6.01562 5.79722 5.92188L6.62534 5.09375C6.80243 4.90625 6.89097 4.67969 6.89097 4.41406C6.89097 4.14844 6.80243 3.92708 6.62534 3.75L3.48472 0.609375C3.39097 0.515625 3.2868 0.445312 3.17222 0.398438C3.05764 0.351562 2.93264 0.328125 2.79722 0.328125C2.67222 0.328125 2.55243 0.351562 2.43784 0.398438C2.32326 0.445312 2.21909 0.515625 2.12534 0.609375L1.31284 1.42188C1.18784 1.54688 1.10451 1.69531 1.06284 1.86719C1.02118 2.03906 1.02118 2.20833 1.06284 2.375C1.06284 2.375 1.01857 2.41927 0.930031 2.50781C0.84149 2.59635 0.797219 2.64062 0.797219 2.64062C0.359719 3.13021 0.101906 3.74219 0.0237814 4.47656C-0.0543436 5.21094 0.0524272 6.03125 0.344094 6.9375C0.479511 7.38542 0.656594 7.83854 0.875344 8.29688C1.09409 8.74479 1.3493 9.19271 1.64097 9.64062C1.93264 10.0885 2.25555 10.5312 2.60972 10.9688C2.96389 11.4062 3.34409 11.8333 3.75034 12.25C4.16701 12.6562 4.59409 13.0365 5.03159 13.3906C5.46909 13.7448 5.9118 14.0677 6.35972 14.3594C6.80764 14.651 7.25555 14.9062 7.70347 15.125C8.1618 15.3438 8.61493 15.5208 9.06284 15.6562C9.41701 15.7708 9.76076 15.8568 10.0941 15.9141C10.4274 15.9714 10.7451 16 11.0472 16C11.5472 16 12.0003 15.9245 12.4066 15.7734C12.8128 15.6224 13.1618 15.401 13.4535 15.1094L13.6253 14.9375C13.6774 14.9479 13.7243 14.9557 13.766 14.9609C13.8076 14.9661 13.8493 14.9688 13.891 14.9688C14.0264 14.9688 14.1514 14.9453 14.266 14.8984C14.3806 14.8516 14.4847 14.7812 14.5785 14.6875L15.391 13.875C15.5785 13.6875 15.6722 13.4609 15.6722 13.1953C15.6722 12.9297 15.5785 12.7031 15.391 12.5156ZM2.79722 1.28125L5.93784 4.42188L5.12534 5.23438L1.98472 2.09375L2.79722 1.28125ZM12.7816 14.4219C12.4378 14.7656 11.9691 14.9661 11.3753 15.0234C10.7816 15.0807 10.1045 14.9896 9.34409 14.75C8.93784 14.6146 8.52639 14.4479 8.10972 14.25C7.69305 14.0417 7.27639 13.8047 6.85972 13.5391C6.44305 13.2734 6.03159 12.974 5.62534 12.6406C5.21909 12.3073 4.82326 11.9479 4.43784 11.5625C4.05243 11.1771 3.69305 10.7812 3.35972 10.375C3.02639 9.96875 2.72691 9.55729 2.46128 9.14062C2.19566 8.72396 1.95868 8.30729 1.75034 7.89062C1.55243 7.47396 1.38576 7.0625 1.25034 6.65625C1.01076 5.89583 0.919615 5.21875 0.976906 4.625C1.0342 4.03125 1.23472 3.5625 1.57847 3.21875L1.65659 3.125L4.09409 5.5625L3.87534 5.78125C3.64618 6.02083 3.53159 6.31771 3.53159 6.67188C3.54201 7.02604 3.63576 7.41146 3.81284 7.82812C3.98993 8.24479 4.23993 8.67708 4.56284 9.125C4.88576 9.5625 5.23993 9.97917 5.62534 10.375C6.21909 10.9583 6.85191 11.4531 7.52378 11.8594C8.19566 12.2656 8.79722 12.4688 9.32847 12.4688C9.49514 12.4688 9.65399 12.4401 9.80503 12.3828C9.95607 12.3255 10.0941 12.2396 10.2191 12.125L10.4378 11.9062L12.8753 14.3438L12.7816 14.4219ZM13.9066 14.0156L10.766 10.875L11.5785 10.0625L14.7191 13.2031C14.7191 13.2031 14.5837 13.3385 14.3128 13.6094C14.042 13.8802 13.9066 14.0156 13.9066 14.0156ZM12.1566 3.84375C11.6983 3.39583 11.1748 3.04948 10.5863 2.80469C9.99774 2.5599 9.38055 2.4375 8.73472 2.4375C8.5993 2.4375 8.48472 2.48438 8.39097 2.57812C8.29722 2.67188 8.25034 2.78125 8.25034 2.90625C8.25034 3.04167 8.29722 3.15625 8.39097 3.25C8.48472 3.34375 8.5993 3.39062 8.73472 3.39062C9.25555 3.39062 9.75034 3.48958 10.2191 3.6875C10.6878 3.88542 11.1045 4.16667 11.4691 4.53125C11.8337 4.89583 12.1149 5.3125 12.3128 5.78125C12.5108 6.25 12.6097 6.74479 12.6097 7.26562C12.6097 7.40104 12.6566 7.51562 12.7503 7.60938C12.8441 7.70312 12.9587 7.75 13.0941 7.75C13.2191 7.75 13.3285 7.70312 13.4222 7.60938C13.516 7.51562 13.5628 7.40104 13.5628 7.26562C13.5628 6.61979 13.4404 6.0026 13.1957 5.41406C12.9509 4.82552 12.6045 4.30208 12.1566 3.84375ZM13.8753 2.125C13.5316 1.78125 13.1618 1.47917 12.766 1.21875C12.3701 0.947917 11.9535 0.723958 11.516 0.546875C11.0785 0.369792 10.6253 0.234375 10.1566 0.140625C9.69826 0.046875 9.2243 0 8.73472 0C8.5993 0 8.48472 0.046875 8.39097 0.140625C8.29722 0.234375 8.25034 0.348958 8.25034 0.484375C8.25034 0.609375 8.29722 0.71875 8.39097 0.8125C8.48472 0.90625 8.5993 0.953125 8.73472 0.953125C9.57847 0.953125 10.3832 1.11198 11.1488 1.42969C11.9144 1.7474 12.5941 2.20833 13.1878 2.8125C13.792 3.40625 14.2529 4.08594 14.5707 4.85156C14.8884 5.61719 15.0472 6.42188 15.0472 7.26562C15.0472 7.40104 15.0941 7.51562 15.1878 7.60938C15.2816 7.70312 15.391 7.75 15.516 7.75C15.6514 7.75 15.766 7.70312 15.8597 7.60938C15.9535 7.51562 16.0003 7.40104 16.0003 7.26562C16.0003 6.77604 15.9535 6.30208 15.8597 5.84375C15.766 5.375 15.6306 4.92188 15.4535 4.48438C15.2764 4.04688 15.0524 3.63021 14.7816 3.23438C14.5212 2.83854 14.2191 2.46875 13.8753 2.125ZM10.4222 5.57812C10.1931 5.33854 9.93524 5.16146 9.64878 5.04688C9.36232 4.93229 9.05764 4.875 8.73472 4.875C8.5993 4.875 8.48472 4.92188 8.39097 5.01562C8.29722 5.10938 8.25034 5.21875 8.25034 5.34375C8.25034 5.47917 8.29722 5.59375 8.39097 5.6875C8.48472 5.78125 8.5993 5.82812 8.73472 5.82812C8.93264 5.82812 9.11753 5.86458 9.28941 5.9375C9.46128 6.01042 9.61493 6.11458 9.75034 6.25C9.88576 6.38542 9.98993 6.53906 10.0628 6.71094C10.1358 6.88281 10.1722 7.06771 10.1722 7.26562C10.1722 7.40104 10.2191 7.51562 10.3128 7.60938C10.4066 7.70312 10.5212 7.75 10.6566 7.75C10.7816 7.75 10.891 7.70312 10.9847 7.60938C11.0785 7.51562 11.1253 7.40104 11.1253 7.26562C11.1253 6.94271 11.0681 6.63802 10.9535 6.35156C10.8389 6.0651 10.6618 5.80729 10.4222 5.57812Z" fill="white"/>
</g>
<defs>
<clipPath id="clip0_229_75">
<rect width="16" height="16" fill="white" transform="matrix(1 0 0 -1 0 16)"/>
</clipPath>
</defs>
</svg>
