<svg width="54" height="54" viewBox="0 0 54 54" fill="none" xmlns="http://www.w3.org/2000/svg">
<path d="M38.3464 45.533H15.5937C15.2665 45.533 15.001 45.268 15.001 44.9402V34.6C15.001 30.3607 18.4501 26.9116 22.6893 26.9116H31.2502C35.4894 26.9116 38.9391 30.3607 38.9391 34.6V44.9402C38.9391 45.268 38.6742 45.533 38.3464 45.533ZM16.1864 44.3475H37.7537V34.6C37.7537 31.0139 34.8362 28.0965 31.2502 28.0965H22.6893C19.1039 28.0965 16.1864 31.0139 16.1864 34.6V44.3475Z" fill="white"/>
<path d="M21.4736 45.533C21.1464 45.533 20.8809 45.2681 20.8809 44.9403V36.0825C20.8809 35.7547 21.1464 35.4897 21.4736 35.4897C21.8008 35.4897 22.0663 35.7547 22.0663 36.0825V44.9403C22.0663 45.2681 21.8008 45.533 21.4736 45.533Z" fill="white"/>
<path d="M32.4668 45.533C32.139 45.533 31.874 45.2681 31.874 44.9403V36.0825C31.874 35.7547 32.139 35.4897 32.4668 35.4897C32.7945 35.4897 33.0595 35.7547 33.0595 36.0825V44.9403C33.0595 45.2681 32.7945 45.533 32.4668 45.533Z" fill="white"/>
<path d="M27.2778 24.4457H26.6626C23.0161 24.4457 20.0488 21.4791 20.0488 17.832V15.0195C20.0488 11.373 23.0155 8.40576 26.6626 8.40576H27.2778C30.9249 8.40576 33.8915 11.3724 33.8915 15.0195V17.832C33.8915 21.4791 30.9249 24.4457 27.2778 24.4457ZM26.6626 9.59182C23.6692 9.59182 21.2343 12.0268 21.2343 15.0201V17.8326C21.2343 20.8259 23.6692 23.2609 26.6626 23.2609H27.2778C30.2705 23.2609 32.7061 20.8259 32.7061 17.8326V15.0201C32.7061 12.0268 30.2711 9.59182 27.2778 9.59182H26.6626Z" fill="white"/>
<path d="M53.0504 38.6584H42.0866C41.7588 38.6584 41.4939 38.3935 41.4939 38.0657C41.4939 37.7379 41.7588 37.4729 42.0866 37.4729H52.4577V29.7028C52.4577 26.8654 50.149 24.5567 47.3122 24.5567H40.3884C39.168 24.5567 37.9849 24.9911 37.0573 25.7801C36.8095 25.9917 36.4349 25.9626 36.2221 25.7125C36.0105 25.463 36.0401 25.0889 36.2897 24.8767C37.4313 23.9053 38.8871 23.3706 40.3884 23.3706H47.3128C50.8034 23.3718 53.6432 26.2122 53.6432 29.7028V38.0657C53.6432 38.3929 53.3782 38.6584 53.0504 38.6584Z" fill="white"/>
<path d="M48.2949 38.6583C47.9671 38.6583 47.7021 38.3934 47.7021 38.0656V30.9018C47.7021 30.574 47.9671 30.3091 48.2949 30.3091C48.6227 30.3091 48.8876 30.574 48.8876 30.9018V38.0656C48.8876 38.3928 48.6221 38.6583 48.2949 38.6583Z" fill="white"/>
<path d="M44.0986 21.6041H43.6007C40.589 21.6041 38.1387 19.1543 38.1387 16.1426V13.8683C38.1387 10.8566 40.589 8.40625 43.6007 8.40625H44.0986C47.1097 8.40625 49.5601 10.8566 49.5601 13.8683V16.1426C49.5601 19.1543 47.1103 21.6041 44.0986 21.6041ZM43.6013 9.59172C41.2428 9.59172 39.3247 11.5098 39.3247 13.8683V16.1426C39.3247 18.5005 41.2428 20.4186 43.6013 20.4186H44.0992C46.4571 20.4186 48.3752 18.5005 48.3752 16.1426V13.8683C48.3752 11.5098 46.4571 9.59172 44.0992 9.59172H43.6013Z" fill="white"/>
<path d="M11.8534 38.6583H0.889609C0.56242 38.6583 0.296875 38.3934 0.296875 38.0656V29.7027C0.296875 26.2115 3.13726 23.3711 6.62787 23.3711H13.5516C15.0524 23.3711 16.5082 23.9057 17.651 24.8772C17.8999 25.0888 17.9307 25.4634 17.7185 25.713C17.5069 25.9619 17.1329 25.9928 16.8828 25.7806C15.9551 24.9916 14.7715 24.5572 13.5516 24.5572H6.62787C3.79104 24.5572 1.48234 26.8653 1.48234 29.7027V37.4728H11.8534C12.1806 37.4728 12.4462 37.7378 12.4462 38.0656C12.4462 38.3934 12.1806 38.6583 11.8534 38.6583Z" fill="white"/>
<path d="M5.64449 38.6583C5.3173 38.6583 5.05176 38.3934 5.05176 38.0656V30.9018C5.05176 30.574 5.3173 30.3091 5.64449 30.3091C5.97168 30.3091 6.23723 30.574 6.23723 30.9018V38.0656C6.23723 38.3928 5.97227 38.6583 5.64449 38.6583Z" fill="white"/>
<path d="M10.3383 21.6041H9.84095C6.82927 21.6041 4.37891 19.1543 4.37891 16.1426V13.8683C4.37891 10.8566 6.82927 8.40625 9.84095 8.40625H10.3383C13.3499 8.40625 15.7997 10.8566 15.7997 13.8683V16.1426C15.8003 19.1543 13.3499 21.6041 10.3383 21.6041ZM9.84095 9.59172C7.48246 9.59172 5.56438 11.5098 5.56438 13.8683V16.1426C5.56438 18.5005 7.48246 20.4186 9.84095 20.4186H10.3383C12.6962 20.4186 14.6142 18.5005 14.6142 16.1426V13.8683C14.6142 11.5098 12.6962 9.59172 10.3383 9.59172H9.84095Z" fill="white"/>
</svg>
