<svg width="37" height="37" viewBox="0 0 37 37" fill="none" xmlns="http://www.w3.org/2000/svg">
<path fill-rule="evenodd" clip-rule="evenodd" d="M18.4212 0C28.6056 0 36.8425 8.18429 36.8425 18.316C36.8425 28.4213 28.6056 36.632 18.4212 36.632C8.23693 36.632 0 28.4477 0 18.316C0 8.21061 8.26324 0 18.4212 0Z" fill="#B01116"/>
<path fill-rule="evenodd" clip-rule="evenodd" d="M7.36792 23.7893C13.0785 23.0787 11.9995 26.9209 14.5522 29.9998C10.1048 29.8946 7.31529 28.7893 7.36792 23.7893Z" fill="white"/>
<path fill-rule="evenodd" clip-rule="evenodd" d="M13.6328 22.5267C18.7644 19.8951 19.0539 23.8952 22.5276 25.9215C18.2908 27.3162 15.2907 27.2373 13.6328 22.5267Z" fill="white"/>
<path fill-rule="evenodd" clip-rule="evenodd" d="M20.4473 20.8944C22.1841 15.868 26 17.7365 29.4737 17.1838C27.3158 20.8418 24.6315 22.9997 20.4473 20.8944Z" fill="white"/>
<path fill-rule="evenodd" clip-rule="evenodd" d="M24.9467 15.2092C22.9204 9.94595 27.4204 9.28805 29.1573 6.63013C29.9205 10.5775 29.2626 14.1828 24.9467 15.2092Z" fill="white"/>
<path fill-rule="evenodd" clip-rule="evenodd" d="M16.2378 18.6046C15.501 13.1045 19.2115 13.473 22.1589 10.7361C21.7379 15.1835 21.2905 18.3677 16.2378 18.6046Z" fill="white"/>
<path fill-rule="evenodd" clip-rule="evenodd" d="M12.2115 20.4736C11.1852 18.2367 12.3168 16.342 14.0536 15.1841C13.7115 17.7631 15.08 19.842 12.2115 20.4736Z" fill="white"/>
<path fill-rule="evenodd" clip-rule="evenodd" d="M10.2892 21.9465C8.97342 21.6307 8.71025 19.2623 9.36816 18.157C9.84184 19.578 11.684 20.4202 10.2892 21.9465Z" fill="white"/>
</svg>
