<svg width="51" height="47" viewBox="0 0 51 47" fill="none" xmlns="http://www.w3.org/2000/svg">
<path d="M2.10496 36.3671C2.54431 34.5199 2.45644 32.7216 1.76325 31.0113C1.39225 30.0828 0.82598 29.2325 0.30853 28.3822C0.113266 28.0499 -0.0429465 27.7567 0.152318 27.3951C0.367109 27.0041 0.728347 26.9455 1.11888 27.0139C3.19844 27.3951 5.00463 28.2747 6.34219 29.9753C6.38125 30.0241 6.40077 30.0926 6.44959 30.2001C7.30875 29.0859 8.28508 28.2551 9.49571 27.7567C10.2572 27.4439 11.0578 27.2289 11.8584 27.0139C12.2392 26.9064 12.6199 26.9846 12.8347 27.3755C13.0495 27.7567 12.9031 28.0694 12.659 28.4017C10.9211 30.6692 10.3061 33.22 10.8137 36.0348C10.8333 36.1325 10.8723 36.2205 10.9114 36.3378C11.4386 36.3378 11.9658 36.3378 12.5711 36.3378C12.5125 35.3116 12.4833 34.3049 12.3954 33.308C12.288 31.9984 12.8835 30.9428 13.4889 29.8873C13.5474 29.8971 13.6158 29.8971 13.6744 29.9069C13.8501 32.0375 14.0161 34.1681 14.1918 36.328C15.5391 36.328 16.9353 36.328 18.3998 36.328C18.3705 35.6243 18.3509 34.9109 18.3021 34.2072C18.0776 31.3533 17.5601 28.5679 16.4666 25.9095C14.8557 21.961 12.2489 18.8824 8.47058 16.8398C8.33389 16.7616 8.18744 16.7029 8.02147 16.6638C10.2084 19.2147 11.6339 22.1565 12.5809 25.3915C12.3075 25.4111 12.083 25.4111 11.8584 25.4306C10.9992 25.5186 10.9895 25.5284 10.6966 24.6878C9.67145 21.7851 8.26555 19.1072 6.01025 16.9668C5.31706 16.312 4.50671 15.7842 3.72565 15.2369C3.28631 14.9242 3.08128 14.6017 3.22773 14.2009C3.37418 13.8002 3.74518 13.6243 4.28216 13.722C6.83036 14.1912 9.14424 15.2272 11.2531 16.7225C14.0161 18.6772 16.0175 21.2574 17.4527 24.3067C17.5308 24.4728 17.6089 24.6292 17.7261 24.8735C17.8433 24.6292 17.9311 24.4533 18.019 24.2676C20.5672 18.9802 24.5896 15.4617 30.2914 13.9371C30.7112 13.8198 31.1505 13.7416 31.5801 13.683C32.0097 13.6243 32.3221 13.8296 32.4393 14.24C32.5564 14.631 32.41 14.9437 32.0585 15.149C29.647 16.4977 27.997 18.5697 26.6594 20.9251C24.9899 23.8669 24.0624 27.0628 23.6036 30.3858C23.34 32.3307 23.213 34.2951 23.0178 36.3085C24.4041 36.3085 25.6734 36.3085 27.0109 36.3085C26.9621 35.3604 26.9816 34.4124 26.8449 33.4839C26.552 31.412 26.1908 29.34 25.8589 27.2778C25.8393 27.1801 25.81 27.0726 25.8393 26.9944C26.0737 26.1832 26.3275 25.3818 26.5911 24.5217C27.0402 25.1765 27.8115 28.1183 28.0751 30.3467C28.3094 32.3111 28.4656 34.2951 28.6609 36.3182C29.9789 36.3182 31.3848 36.3182 32.8688 36.3182C32.8005 35.292 32.7614 34.2658 32.6443 33.2591C32.3416 30.4933 31.7656 27.786 30.5159 25.284C29.8813 24.0135 29.071 22.8211 28.3094 21.619C28.1825 21.4137 28.1239 21.2769 28.2704 21.0619C28.5145 20.7198 28.7292 20.3582 29.0026 19.938C30.3206 21.4528 31.2774 23.1241 32.1268 24.9322C32.449 24.3067 32.7419 23.7007 33.0641 23.1143C35.7588 18.2276 39.8007 15.1099 45.2388 13.8198C45.4732 13.7611 45.7172 13.722 45.9613 13.6927C46.4007 13.6341 46.7424 13.81 46.8791 14.24C47.0157 14.6505 46.84 14.973 46.4592 15.1783C44.9752 15.9895 43.8036 17.1525 42.7687 18.4622C41.2066 20.4462 40.1424 22.6745 39.3419 25.0495C39.3028 25.157 39.2735 25.2645 39.2345 25.372C39.2149 25.4306 39.1856 25.4893 39.1564 25.5577C38.6389 25.4893 38.1312 25.4306 37.5845 25.3622C38.0336 23.7594 38.5901 22.1761 39.4297 20.7296C40.2596 19.2831 41.2066 17.9051 42.1146 16.4684C41.2457 16.9961 40.3182 17.4946 39.4688 18.1005C36.3738 20.3093 34.3236 23.3 33.0739 26.8575C33.0153 27.0139 33.0055 27.2094 33.0543 27.3658C33.933 30.2001 34.3138 33.1125 34.4114 36.0641C34.4114 36.1423 34.4212 36.2205 34.431 36.328C34.9679 36.328 35.4756 36.328 35.9833 36.328C36.1493 34.2072 36.3153 32.0863 36.4812 29.9753C36.53 29.9655 36.5691 29.9655 36.6179 29.9557C36.6863 30.0535 36.7741 30.1414 36.8229 30.2392C37.4673 31.3924 37.8969 32.5945 37.7309 33.9531C37.6333 34.7252 37.6431 35.507 37.604 36.3182C38.1507 36.3182 38.6487 36.3182 39.1856 36.3182C39.4883 35.2138 39.5176 34.0899 39.3614 32.9562C39.1173 31.2458 38.4729 29.7016 37.399 28.3431C37.1451 28.0304 37.0573 27.7176 37.2623 27.356C37.4673 26.9944 37.809 26.9162 38.1898 26.9846C40.2889 27.356 42.1048 28.2551 43.4522 29.9655C43.4815 30.0046 43.5205 30.0339 43.5986 30.1219C43.7158 29.985 43.8134 29.8482 43.9306 29.7212C45.2877 28.1672 47.0255 27.3364 49.027 26.9846C49.4077 26.9162 49.7397 27.0139 49.9447 27.3755C50.1497 27.7469 50.013 28.0499 49.7787 28.3626C48.0604 30.591 47.416 33.1028 47.8944 35.8882C47.914 36.0348 47.9628 36.1716 48.0018 36.3475C48.3826 36.3475 48.7536 36.3475 49.1246 36.3475C49.7397 36.3573 50.0326 36.631 50.0326 37.2369C50.0326 39.9051 50.0423 42.583 50.0326 45.2511C50.0326 45.8376 49.7494 46.1014 49.1539 46.121C49.027 46.121 48.8903 46.121 48.7634 46.121C32.9177 46.121 17.0622 46.121 1.21651 46.121C0.240186 46.121 0.0449219 45.9255 0.0449219 44.9579C0.0449219 42.4364 0.0449219 39.9051 0.0449219 37.3835C0.0449219 36.6017 0.289003 36.3573 1.0603 36.3475C1.39225 36.3671 1.71443 36.3671 2.10496 36.3671ZM21.4752 36.3475C21.5923 34.774 21.6704 33.2494 21.8267 31.7247C22.1391 28.607 22.8323 25.5674 24.0234 22.655C24.9314 20.4266 26.1518 18.384 27.8603 16.4782C27.6162 16.5857 27.4991 16.6345 27.3917 16.6834C23.1349 18.814 20.3329 22.2249 18.7122 26.6523C18.6243 26.9064 18.6048 27.2289 18.6829 27.483C19.2394 29.428 19.6299 31.4022 19.7959 33.4155C19.874 34.3831 19.9424 35.3507 20.0107 36.3378C20.5086 36.3475 20.987 36.3475 21.4752 36.3475ZM10.2865 29.1738C7.73833 29.8873 6.02001 33.523 6.86941 36.328C7.66023 36.328 8.44129 36.328 9.27116 36.328C8.80252 33.8162 9.154 31.4511 10.2865 29.1738ZM39.791 29.1348C40.943 31.4608 41.3043 33.826 40.8356 36.328C41.685 36.328 42.4856 36.328 43.2764 36.328C43.7451 32.7802 42.4954 30.1512 39.791 29.1348ZM45.0143 36.3378C45.4048 36.3378 45.8734 36.3378 46.2835 36.3378C46.2835 35.0965 46.1566 33.8651 46.3226 32.6727C46.4885 31.4804 46.9376 30.3271 47.2501 29.1836C46.43 29.5648 45.6587 30.1121 45.0436 30.8744C44.6433 31.3729 44.3113 31.8713 44.6823 32.5359C44.7507 32.663 44.7702 32.8193 44.78 32.9562C44.8581 34.0703 44.9362 35.1845 45.0143 36.3378ZM5.21942 36.3378C5.1999 36.1521 5.17061 35.9957 5.18037 35.8393C5.23895 34.7936 5.13156 33.6892 5.41469 32.7021C5.6783 31.7834 5.42445 31.1774 4.84842 30.6301C4.32121 30.1316 3.70613 29.7309 3.1301 29.3009C3.03247 29.2227 2.89578 29.2032 2.69075 29.1152C3.85258 31.4608 4.20405 33.826 3.73542 36.328C4.25287 36.3378 4.71174 36.3378 5.21942 36.3378ZM1.6168 39.4946C1.19698 39.4946 0.845507 39.8562 0.845507 40.2765C0.845507 40.6967 1.19698 41.0486 1.62656 41.0486C2.04638 41.0486 2.39786 40.687 2.39786 40.2667C2.38809 39.8464 2.03662 39.4946 1.6168 39.4946ZM5.51232 40.2765C5.51232 39.8464 5.16085 39.4946 4.74103 39.5044C4.32121 39.5044 3.95997 39.8562 3.95997 40.2765C3.95997 40.6967 4.31145 41.0583 4.73126 41.0583C5.16085 41.0486 5.51232 40.6967 5.51232 40.2765ZM8.63655 40.2569C8.62679 39.8367 8.26555 39.4848 7.84573 39.4946C7.42591 39.5044 7.07444 39.866 7.0842 40.2862C7.09396 40.7065 7.4552 41.0583 7.87502 41.0486C8.3046 41.0388 8.64631 40.6772 8.63655 40.2569ZM10.9992 39.5044C10.5794 39.4946 10.2182 39.8464 10.2182 40.2667C10.2084 40.687 10.5697 41.0486 10.9895 41.0486C11.4093 41.0486 11.7705 40.6967 11.7705 40.2765C11.7705 39.8562 11.4191 39.5044 10.9992 39.5044ZM14.885 40.296C14.8948 39.8758 14.5531 39.5141 14.1332 39.5044C13.7134 39.4946 13.3424 39.8367 13.3327 40.2569C13.3229 40.6772 13.6646 41.0388 14.0844 41.0583C14.514 41.0583 14.8752 40.7163 14.885 40.296ZM44.5652 42.2507C44.5749 41.8304 44.2332 41.4688 43.8134 41.4591C43.3936 41.4493 43.0323 41.7914 43.0226 42.2116C43.0128 42.6319 43.3643 43.0033 43.7744 43.013C44.1942 43.013 44.5554 42.671 44.5652 42.2507ZM21.1335 40.2862C21.1432 39.866 20.7918 39.5044 20.3719 39.4946C19.9521 39.4848 19.5909 39.8367 19.5811 40.2569C19.5713 40.6772 19.9228 41.0388 20.3426 41.0486C20.7625 41.0583 21.1237 40.7163 21.1335 40.2862ZM23.5059 41.0486C23.9257 41.0388 24.2675 40.6674 24.2577 40.2471C24.2479 39.8269 23.8769 39.4848 23.4571 39.4946C23.0373 39.5044 22.6956 39.8758 22.7053 40.296C22.7249 40.7163 23.0861 41.0583 23.5059 41.0486ZM27.3819 40.2471C27.3722 39.8269 27.0012 39.4848 26.5813 39.4946C26.1615 39.5044 25.81 39.8758 25.8296 40.296C25.8393 40.7163 26.2103 41.0583 26.6302 41.0486C27.05 41.0388 27.4014 40.6772 27.3819 40.2471ZM29.7544 41.0486C30.1742 41.0388 30.5257 40.6772 30.5159 40.2569C30.5061 39.8269 30.1449 39.4848 29.7251 39.4946C29.3053 39.5044 28.9538 39.866 28.9636 40.2862C28.9636 40.7163 29.3248 41.0583 29.7544 41.0486ZM32.8786 39.4946C32.4588 39.4848 32.0976 39.8367 32.0878 40.2569C32.078 40.6772 32.4197 41.0388 32.8493 41.0486C33.2691 41.0583 33.6304 40.7163 33.6401 40.2862C33.6401 39.866 33.2984 39.5044 32.8786 39.4946ZM36.7546 40.2667C36.7546 39.8464 36.3934 39.4946 35.9735 39.4946C35.5537 39.4946 35.2023 39.8562 35.2023 40.2765C35.2023 40.6967 35.5537 41.0486 35.9833 41.0486C36.4031 41.0486 36.7644 40.687 36.7546 40.2667ZM39.8788 40.2471C39.8691 39.8269 39.4981 39.4848 39.0783 39.4946C38.6584 39.5044 38.3167 39.8758 38.3265 40.296C38.3362 40.7065 38.7072 41.0583 39.1271 41.0486C39.5566 41.0388 39.8984 40.6772 39.8788 40.2471ZM42.2611 41.0486C42.6809 41.0388 43.0226 40.6674 43.0128 40.2471C42.9933 39.8269 42.6321 39.4848 42.2122 39.4946C41.7924 39.5141 41.4507 39.866 41.4605 40.296C41.4702 40.7163 41.8315 41.0681 42.2611 41.0486ZM46.1273 40.2569C46.1175 39.8367 45.766 39.4848 45.3365 39.4946C44.9166 39.5044 44.5652 39.866 44.5749 40.2862C44.5749 40.7065 44.9459 41.0486 45.3658 41.0486C45.7856 41.0486 46.1371 40.6772 46.1273 40.2569ZM48.49 39.5044C48.0604 39.4946 47.7089 39.8367 47.6992 40.2667C47.6894 40.687 48.0409 41.0486 48.4607 41.0583C48.8805 41.0681 49.2418 40.726 49.2515 40.296C49.2613 39.866 48.9196 39.5044 48.49 39.5044ZM3.19844 43.0033C3.62802 42.9935 3.96973 42.6319 3.95997 42.2116C3.95021 41.7914 3.58897 41.4493 3.15939 41.4591C2.73957 41.4688 2.39786 41.8304 2.40762 42.2507C2.41738 42.671 2.77862 43.013 3.19844 43.0033ZM6.28362 43.0033C6.7132 43.013 7.06467 42.671 7.07444 42.2409C7.0842 41.8207 6.74249 41.4591 6.31291 41.4493C5.89309 41.4395 5.53185 41.7914 5.52209 42.2116C5.52209 42.6319 5.87356 43.0033 6.28362 43.0033ZM9.38832 43.0033C9.80814 43.0228 10.1791 42.6807 10.1987 42.2703C10.2182 41.85 9.88624 41.4786 9.46642 41.4591C9.0466 41.4395 8.6756 41.7718 8.65608 42.1921C8.62679 42.6123 8.9685 42.9837 9.38832 43.0033ZM12.5418 43.0033C12.9617 43.0033 13.3131 42.6612 13.3229 42.2312C13.3229 41.8109 12.9812 41.4591 12.5516 41.4493C12.1318 41.4395 11.7705 41.8011 11.7705 42.2214C11.7705 42.6416 12.122 43.0033 12.5418 43.0033ZM16.4471 42.2116C16.4374 41.7914 16.0761 41.4395 15.6563 41.4493C15.2365 41.4591 14.885 41.8207 14.8948 42.2409C14.9045 42.6612 15.2658 43.013 15.6856 43.0033C16.1152 42.9935 16.4569 42.6416 16.4471 42.2116ZM18.7903 41.4493C18.3705 41.4591 18.019 41.8207 18.0288 42.2409C18.0385 42.6612 18.3998 43.013 18.8196 43.0033C19.2492 42.9935 19.5909 42.6416 19.5811 42.2116C19.5713 41.7914 19.2101 41.4493 18.7903 41.4493ZM22.6956 42.2312C22.6956 41.8109 22.3441 41.4591 21.9145 41.4591C21.4947 41.4591 21.1432 41.8207 21.1432 42.2312C21.1432 42.6514 21.4947 43.0033 21.9243 43.0033C22.3441 43.0033 22.7053 42.6514 22.6956 42.2312ZM25.8198 42.2214C25.81 41.8011 25.4586 41.4493 25.029 41.4591C24.6092 41.4688 24.2577 41.8304 24.2675 42.2507C24.2772 42.671 24.6385 43.0228 25.0583 43.013C25.4879 42.9935 25.8296 42.6416 25.8198 42.2214ZM28.163 41.4493C27.7432 41.4591 27.3917 41.8207 27.4014 42.2409C27.4112 42.6612 27.7724 43.013 28.1923 43.0033C28.6121 42.9935 28.9636 42.6319 28.9538 42.2116C28.944 41.7914 28.5828 41.4395 28.163 41.4493ZM32.078 42.2312C32.078 41.8109 31.7168 41.4591 31.297 41.4591C30.8771 41.4591 30.5257 41.8207 30.5257 42.2409C30.5257 42.6612 30.8869 43.0228 31.3067 43.013C31.7265 43.0033 32.078 42.6514 32.078 42.2312ZM34.4017 43.0033C34.8312 43.013 35.1827 42.671 35.1925 42.2409C35.2023 41.8207 34.8605 41.4591 34.431 41.4493C34.0111 41.4395 33.6499 41.7914 33.6401 42.2116C33.6401 42.6319 33.9818 42.9935 34.4017 43.0033ZM37.5259 41.4493C37.1061 41.4591 36.7546 41.8207 36.7644 42.2409C36.7741 42.6612 37.1451 43.013 37.5552 43.0033C37.9848 42.9935 38.3167 42.6319 38.307 42.2116C38.307 41.7816 37.9555 41.4493 37.5259 41.4493ZM41.4409 42.2409C41.4409 41.8207 41.0992 41.4591 40.6794 41.4591C40.2596 41.4493 39.8984 41.8011 39.8984 42.2312C39.8886 42.6514 40.2498 43.013 40.6697 43.013C41.0895 43.0033 41.4409 42.6612 41.4409 42.2409ZM17.2575 39.4946C16.8377 39.4848 16.4764 39.8269 16.4569 40.2471C16.4374 40.6674 16.7888 41.029 17.2087 41.0486C17.6285 41.0583 17.9897 40.7163 18.0092 40.296C18.0288 39.8758 17.687 39.5141 17.2575 39.4946ZM47.6894 42.2409C47.6992 41.8207 47.3575 41.4591 46.9279 41.4493C46.5081 41.4395 46.1468 41.7914 46.1371 42.2116C46.1273 42.6221 46.4788 42.9935 46.8986 43.0033C47.3282 43.013 47.6796 42.671 47.6894 42.2409Z" fill="#4D4D4D"/>
<path d="M25 9.3923C23.6332 9.3923 22.2663 9.3923 20.9092 9.3923C20.177 9.3923 19.9232 9.10887 19.9524 8.36609C20.0598 5.73704 22.4518 3.68462 25.2832 3.79212C27.8997 3.88986 30.0476 5.87386 30.1648 8.327C30.2038 9.12842 29.95 9.3923 29.1494 9.3923C27.763 9.3923 26.3766 9.3923 25 9.3923Z" fill="#4D4D4D"/>
<path d="M23.3401 15.3931C22.4321 16.1554 21.6218 16.8396 20.9091 17.426C19.7863 16.6539 18.7026 15.9013 17.6091 15.1488C17.2772 14.9142 17.1405 14.6015 17.2772 14.2203C17.4334 13.7805 17.7848 13.6144 18.2144 13.7219C19.1712 13.9467 20.1378 14.1714 21.075 14.4744C21.8366 14.709 22.5493 15.0608 23.3401 15.3931Z" fill="#4D4D4D"/>
<path d="M19.649 6.02047C19.6295 6.69483 19.1608 7.06622 18.6532 6.91962C18.0674 6.75347 17.4816 6.54823 16.9153 6.31367C16.5248 6.15729 16.3588 5.71749 16.4955 5.3461C16.6322 4.96494 17.0227 4.74015 17.4327 4.8672C18.0185 5.04312 18.6141 5.22882 19.1608 5.48293C19.4049 5.60021 19.5514 5.91296 19.649 6.02047Z" fill="#4D4D4D"/>
<path d="M33.6403 5.60024C33.5427 5.71752 33.3865 6.0205 33.1522 6.13778C32.6347 6.40166 32.0685 6.57758 31.5217 6.76328C31.1019 6.90988 30.7016 6.72419 30.5454 6.3528C30.3794 5.95208 30.5259 5.51228 30.9457 5.32658C31.4924 5.09202 32.0587 4.86723 32.6347 4.69131C33.1522 4.52516 33.6403 4.88678 33.6403 5.60024Z" fill="#4D4D4D"/>
<path d="M25.8297 1.65171C25.8297 1.94491 25.8492 2.23812 25.8297 2.52155C25.8004 2.9418 25.4685 3.23501 25.0486 3.22523C24.6288 3.22523 24.2969 2.93203 24.2773 2.51177C24.2578 1.91559 24.2578 1.30964 24.2773 0.713461C24.2969 0.28343 24.6288 0 25.0486 0C25.4587 0 25.7809 0.293203 25.8199 0.723234C25.8395 1.03598 25.8297 1.34873 25.8297 1.65171Z" fill="#4D4D4D"/>
<path d="M18.9466 2.23809C19.5909 2.22832 21.1433 3.56728 21.1238 4.0364C21.114 4.28074 20.9871 4.61304 20.8016 4.73032C20.5965 4.85737 20.1767 4.90624 20.001 4.77918C19.464 4.39802 18.9563 3.94844 18.517 3.45C18.3705 3.28385 18.3705 2.88314 18.4584 2.64858C18.5463 2.44333 18.8489 2.31628 18.9466 2.23809Z" fill="#4D4D4D"/>
<path d="M29.7346 4.96504C29.5491 4.80867 29.2562 4.67184 29.1488 4.44705C29.0512 4.24181 29.061 3.8411 29.1976 3.6945C29.637 3.20583 30.1447 2.75625 30.6621 2.35554C30.9745 2.1112 31.3553 2.17962 31.6287 2.49237C31.9118 2.81489 31.9313 3.20583 31.6482 3.5088C31.2089 3.96815 30.7207 4.36886 30.2423 4.76958C30.1349 4.85754 29.9689 4.87708 29.7346 4.96504Z" fill="#4D4D4D"/>
<path d="M27.8012 3.61611C27.108 3.60633 26.737 3.05902 26.942 2.53126C27.147 2.01326 27.3813 1.51482 27.6352 1.02615C27.8402 0.625437 28.2503 0.498382 28.631 0.654757C29.0216 0.820906 29.2168 1.25094 29.0411 1.67119C28.8361 2.17941 28.6115 2.6974 28.3381 3.16653C28.2112 3.38155 27.9281 3.51837 27.8012 3.61611Z" fill="#4D4D4D"/>
<path d="M22.3537 3.59665C22.2463 3.49892 21.973 3.37186 21.8558 3.15685C21.5922 2.6975 21.3774 2.19905 21.1724 1.70061C20.9869 1.25103 21.1626 0.811223 21.5727 0.635301C21.9632 0.469153 22.383 0.625528 22.5978 1.04579C22.8321 1.50514 23.0567 1.98404 23.2422 2.46293C23.4667 3.05911 23.086 3.6162 22.3537 3.59665Z" fill="#4D4D4D"/>
</svg>
