<svg width="60" height="60" viewBox="0 0 60 60" fill="none" xmlns="http://www.w3.org/2000/svg">
<path d="M45.0769 37.3538C44.7629 37.3538 44.4479 37.3428 44.1357 37.3208C44.9707 43.8632 46.9611 47.1454 47.0499 47.2896C47.0607 47.3072 47.0623 47.3274 47.0718 47.3455C47.1087 47.4122 47.1336 47.4795 47.153 47.5517C47.161 47.5827 47.1683 47.6126 47.173 47.644C47.1871 47.7308 47.189 47.8148 47.1786 47.9022C47.1765 47.9186 47.1732 47.9341 47.1702 47.9504C47.1537 48.0461 47.1248 48.136 47.0782 48.224C47.0744 48.2312 47.0692 48.2374 47.0652 48.2445C47.0271 48.3122 46.9963 48.3831 46.94 48.4417C46.756 48.634 46.5097 48.7306 46.2634 48.7306C46.09 48.7306 45.9238 48.6666 45.7714 48.5707C45.7316 48.5465 45.6876 48.5324 45.6509 48.5017C34.4028 39.0928 32.4326 29.3782 32.1103 25.6579C32.0929 25.4954 32.081 25.3471 32.0718 25.218L32.0673 25.1553C32.0535 25.0322 32.0508 24.9214 32.0508 24.8225C32.0306 24.4989 32.0389 24.3112 32.0407 24.3052C32.0471 17.1165 37.8928 11.269 45.0769 11.269C52.272 11.269 58.125 17.122 58.125 24.3167C58.125 31.5054 52.272 37.3538 45.0769 37.3538ZM45.0769 13.144C38.9227 13.144 33.9157 18.1561 33.9139 24.3725C33.913 24.3995 33.9093 24.5204 33.924 24.7282C33.9249 24.7493 33.9258 24.7703 33.9258 24.7914C33.9258 24.8362 33.924 24.8871 33.934 24.9768L33.9413 25.0784C33.9496 25.1892 33.9597 25.3164 33.9761 25.4757C34.248 28.6068 35.7623 36.2149 43.7073 44.1855C43.0902 42.261 42.4695 39.655 42.1381 36.3476C42.1088 36.0574 42.2168 35.7704 42.4292 35.5708C42.6041 35.4065 42.8348 35.3167 43.071 35.3167C43.1213 35.3167 43.1726 35.3209 43.223 35.3291C43.8281 35.4284 44.4516 35.4788 45.0769 35.4788C51.2375 35.4788 56.25 30.4713 56.25 24.3167C56.25 18.1561 51.2375 13.144 45.0769 13.144ZM14.9149 11.269C22.1091 11.269 27.962 17.122 27.962 24.3167C27.962 31.5054 22.1091 37.3538 14.9149 37.3538C14.5999 37.3538 14.2859 37.3428 13.9737 37.3208C14.8077 43.8623 16.799 47.1454 16.8878 47.2896C16.9029 47.3139 16.9056 47.3416 16.9182 47.3668C16.951 47.4299 16.9766 47.4921 16.994 47.5595C17.0024 47.5933 17.0068 47.6261 17.0113 47.6603C17.0234 47.7445 17.0275 47.8257 17.0167 47.9099C17.0147 47.9246 17.01 47.9382 17.0074 47.9529C16.974 48.1428 16.8985 48.327 16.7487 48.4706C16.5665 48.6445 16.3339 48.7306 16.1005 48.7306C15.9902 48.7306 15.8816 48.7043 15.7772 48.6659L15.7747 48.6654C15.7189 48.6446 15.6713 48.6082 15.6196 48.5766C15.5762 48.5509 15.5287 48.535 15.4889 48.5017C4.24072 39.0928 2.27051 29.3782 1.94824 25.662C1.9281 25.478 1.9162 25.3119 1.90521 25.1553C1.89148 25.0326 1.88873 24.9223 1.88873 24.8239C1.86768 24.4993 1.87592 24.3107 1.87775 24.3057C1.88324 17.1156 7.7298 11.269 14.9149 11.269ZM3.76099 24.7255C3.76282 24.7474 3.76373 24.7694 3.76373 24.7914C3.76373 24.8362 3.7619 24.8871 3.76923 24.9447C3.77014 24.9576 3.77563 25.0258 3.77655 25.039C3.78479 25.1571 3.79395 25.2968 3.81409 25.4757C4.086 28.6064 5.60211 36.2153 13.5452 44.1855C12.9272 42.2606 12.3065 39.6541 11.976 36.3476C11.9467 36.0574 12.0547 35.7704 12.2672 35.5708C12.4429 35.4065 12.6727 35.3167 12.9089 35.3167C12.9593 35.3167 13.0106 35.3209 13.0609 35.3291C13.6652 35.4284 14.2886 35.4788 14.9149 35.4788C21.0754 35.4788 26.087 30.4713 26.087 24.3167C26.087 18.1561 21.0754 13.144 14.9149 13.144C8.75977 13.144 3.75275 18.1561 3.75092 24.3721C3.75 24.3995 3.74725 24.5195 3.76099 24.7255Z" fill="url(#paint0_linear_229_147)"/>
<defs>
<linearGradient id="paint0_linear_229_147" x1="58.125" y1="29.9998" x2="1.87463" y2="29.9998" gradientUnits="userSpaceOnUse">
<stop stop-color="#10733E"/>
<stop offset="1" stop-color="#47A070"/>
</linearGradient>
</defs>
</svg>
