<svg width="78" height="80" viewBox="0 0 78 80" fill="none" xmlns="http://www.w3.org/2000/svg">
<mask id="path-1-inside-1_363_149" fill="white">
<path d="M0 7C0 3.13401 3.13401 0 7 0H71C74.866 0 78 3.13401 78 7V73C78 76.866 74.866 80 71 80H7C3.13401 80 0 76.866 0 73V7Z"/>
</mask>
<path d="M0 7C0 3.13401 3.13401 0 7 0H71C74.866 0 78 3.13401 78 7V73C78 76.866 74.866 80 71 80H7C3.13401 80 0 76.866 0 73V7Z" fill="#3AB44C"/>
<path d="M0 0H78H0ZM78 73C78 79.0751 73.0751 84 67 84H11C4.92487 84 0 79.0751 0 73C0 74.6569 3.13401 76 7 76H71C74.866 76 78 74.6569 78 73ZM0 80V0V80ZM78 0V80V0Z" fill="#3AB44C" mask="url(#path-1-inside-1_363_149)"/>
<path d="M50.0585 46.3864C50.2935 46.2344 50.3979 45.9445 50.3148 45.6771C50.2318 45.4098 49.9608 45.2242 49.7014 45.2377C48.549 45.2804 47.4522 44.742 46.8015 43.8301C46.2034 42.9909 46.0654 41.963 46.4225 41.0096C46.5195 40.7508 46.4347 40.4597 46.215 40.2924C45.9952 40.127 45.6919 40.124 45.4685 40.2857C44.5572 40.9516 43.3639 41.1347 42.2756 40.7734C41.2368 40.4298 40.464 39.6625 40.1552 38.6676C40.074 38.4058 39.8323 38.2275 39.5583 38.2275C39.2842 38.2275 39.0425 38.4058 38.9613 38.6676C38.6525 39.6625 37.8797 40.4298 36.8409 40.7734C35.7532 41.1354 34.5599 40.9522 33.648 40.2857C33.4258 40.124 33.1225 40.127 32.9015 40.2924C32.6818 40.4597 32.597 40.7508 32.694 41.0096C33.0511 41.963 32.9131 42.9909 32.315 43.8301C31.6643 44.742 30.5681 45.2822 29.4151 45.2377C29.1484 45.2248 28.8847 45.4098 28.8017 45.6771C28.7187 45.9445 28.823 46.2344 29.058 46.3864C29.9827 46.9882 30.5138 47.9398 30.5138 48.9969C30.5138 50.0547 29.9833 51.0063 29.058 51.6087C28.823 51.7613 28.7187 52.0506 28.8017 52.318C28.8847 52.5853 29.1477 52.7391 29.4151 52.7574C30.5656 52.7056 31.6643 53.2525 32.315 54.165C32.9131 55.0042 33.0511 56.0321 32.694 56.9855C32.597 57.2443 32.6818 57.5354 32.9015 57.7027C33.1225 57.8705 33.4258 57.8718 33.648 57.7094C34.5593 57.0435 35.7532 56.8604 36.8409 57.2211C37.8797 57.5647 38.6525 58.332 38.9613 59.3269C39.0425 59.5887 39.2842 59.767 39.5583 59.767C39.8323 59.767 40.074 59.5887 40.1552 59.3269C40.464 58.332 41.2368 57.5647 42.2756 57.2211C43.3645 56.861 44.5572 57.0441 45.4685 57.7094C45.6919 57.8718 45.9952 57.8693 46.215 57.7027C46.4347 57.5354 46.5195 57.2443 46.4225 56.9855C46.0654 56.0321 46.2034 55.0042 46.8015 54.165C47.4522 53.2525 48.5515 52.708 49.7014 52.7574C49.9614 52.7397 50.2318 52.5853 50.3148 52.318C50.3979 52.0506 50.2935 51.7613 50.0585 51.6087C49.1332 51.0063 48.6027 50.0547 48.6027 48.9969C48.6027 47.9398 49.1338 46.9882 50.0585 46.3864ZM45.7834 53.4392C45.2213 54.2284 44.9472 55.1379 44.9777 56.0559C43.9938 55.7135 42.9037 55.6976 41.8832 56.0339C40.9114 56.3556 40.1082 56.9513 39.5583 57.7369C39.0083 56.9513 38.2051 56.3556 37.2333 56.0339C36.7377 55.8703 36.2256 55.7898 35.7172 55.7898C35.1788 55.7898 34.6448 55.8795 34.1388 56.0559C34.1693 55.1379 33.8952 54.2284 33.3331 53.4392C32.7184 52.5774 31.8267 51.967 30.8141 51.6838C31.4226 50.9227 31.7638 49.9821 31.7638 48.9969C31.7638 48.0124 31.4226 47.0724 30.8147 46.3113C31.8267 46.0281 32.7184 45.4171 33.3331 44.5559C33.8958 43.7661 34.1693 42.8572 34.1388 41.9386C35.1233 42.2822 36.2134 42.2981 37.2333 41.9606C38.2051 41.6389 39.0083 41.0426 39.5583 40.2576C40.1082 41.0426 40.9114 41.6389 41.8832 41.9606C42.9031 42.2981 43.9932 42.2822 44.9777 41.9386C44.9472 42.8572 45.2207 43.7661 45.7834 44.5559C46.3981 45.4171 47.2898 46.0281 48.3018 46.3113C47.6939 47.0724 47.3527 48.0124 47.3527 48.9969C47.3527 49.9821 47.6939 50.9227 48.3024 51.6838C47.2898 51.967 46.3981 52.578 45.7834 53.4392Z" fill="white"/>
<path d="M39.5588 43.8218C36.7047 43.8218 34.3828 46.1436 34.3828 48.9977C34.3828 51.8512 36.7047 54.1731 39.5588 54.1731C42.4129 54.1731 44.7347 51.8512 44.7347 48.9977C44.7347 46.1436 42.4129 43.8218 39.5588 43.8218ZM39.5588 52.923C37.3938 52.923 35.6329 51.1621 35.6329 48.9977C35.6329 46.8327 37.3938 45.0718 39.5588 45.0718C41.7238 45.0718 43.4847 46.8327 43.4847 48.9977C43.4847 51.1621 41.7238 52.923 39.5588 52.923Z" fill="white"/>
<path d="M59.8322 56.2471L58.5996 34.9264C59.4405 34.3904 60.0032 33.4552 60.0032 32.3858V28.7486C60.0032 27.0848 58.65 25.7316 56.9867 25.7316H56.9393C56.7896 22.6956 54.2802 20.2693 51.2077 20.2693C50.4038 20.2693 49.6128 20.439 48.8816 20.7644C47.8403 17.3792 44.6792 15 41.0731 15C38.222 15 35.6206 16.4649 34.1344 18.8655C32.927 18.1959 31.5732 17.8449 30.181 17.8449C25.7712 17.8449 22.176 21.3581 22.0244 25.7316H21.977C20.3137 25.7316 18.9605 27.0848 18.9605 28.7486V32.3858C18.9605 33.4552 19.5231 34.3904 20.3641 34.9264L19.1314 56.2471L18.0578 58.4664C17.3748 59.1885 17 60.1291 17 61.127C17 62.1622 17.4028 63.1352 18.1347 63.867C19.6454 65.3789 22.1045 65.3764 23.614 63.867L24.2878 63.1925C26.6616 63.7431 40.6537 66.6826 54.6795 63.1962L55.3497 63.867C56.1047 64.6226 57.0972 64.9998 58.089 64.9998C59.0815 64.9998 60.074 64.6226 60.829 63.867C61.5608 63.1352 61.9637 62.1622 61.9637 61.127C61.9637 60.1291 61.5889 59.1885 60.9059 58.4664L59.8322 56.2471ZM30.181 19.095C31.55 19.095 32.8758 19.496 34.0141 20.2547C34.1624 20.3536 34.3456 20.3841 34.5183 20.3395C34.6904 20.295 34.8357 20.1784 34.9169 20.0197C36.1101 17.6948 38.4686 16.25 41.0731 16.25C44.3642 16.25 47.2177 18.5896 47.8592 21.8136C47.8995 22.0156 48.0362 22.1847 48.226 22.2659C48.4152 22.3483 48.6325 22.33 48.8065 22.2195C49.5292 21.7617 50.3593 21.5194 51.2077 21.5194C53.591 21.5194 55.5413 23.3849 55.6893 25.7316H23.2744C23.4252 22.0479 26.4609 19.095 30.181 19.095ZM20.2106 28.7486C20.2106 27.7745 21.0028 26.9816 21.977 26.9816H56.9867C57.9608 26.9816 58.7531 27.7745 58.7531 28.7486V32.3858C58.7531 33.36 57.9608 34.1529 56.9867 34.1529H21.977C21.0028 34.1529 20.2106 33.36 20.2106 32.3858V28.7486ZM59.9452 62.9832C59.4495 63.4788 58.7903 63.7516 58.0896 63.7516C57.3883 63.7516 56.7291 63.4788 56.2335 62.9832L55.3124 62.0615C55.1568 61.9059 54.9285 61.843 54.7155 61.8979C39.6039 65.7695 24.4008 61.937 24.2494 61.8985C24.0327 61.8418 23.8069 61.9053 23.6512 62.0615L22.7302 62.9832C22.2346 63.4788 21.5753 63.7516 20.874 63.7516C20.1733 63.7516 19.5141 63.4788 19.0185 62.9832C18.5229 62.4876 18.25 61.8284 18.25 61.127C18.25 60.4263 18.5229 59.7671 19.0185 59.2715C19.0679 59.2221 19.1088 59.1647 19.1394 59.1018L20.3113 56.6799C20.3467 56.606 20.368 56.5254 20.3723 56.4437L21.5906 35.3638C21.7185 35.3805 21.8447 35.4029 21.977 35.4029H56.9867C57.119 35.4029 57.2452 35.3805 57.3731 35.3638L58.5914 56.4437C58.5956 56.5254 58.617 56.606 58.6524 56.6799L59.8243 59.1018C59.8548 59.1647 59.8957 59.2221 59.9452 59.2715C60.4408 59.7671 60.7136 60.4263 60.7136 61.127C60.7136 61.8284 60.4408 62.4876 59.9452 62.9832Z" fill="white"/>
</svg>
