<svg width="79" height="81" viewBox="0 0 79 81" fill="none" xmlns="http://www.w3.org/2000/svg">
<mask id="path-1-inside-1_363_159" fill="white">
<path d="M0.980469 7.68994C0.980469 3.82395 4.11448 0.689941 7.98047 0.689941H71.9805C75.8465 0.689941 78.9805 3.82395 78.9805 7.68994V73.6899C78.9805 77.5559 75.8465 80.6899 71.9805 80.6899H7.98047C4.11448 80.6899 0.980469 77.5559 0.980469 73.6899V7.68994Z"/>
</mask>
<path d="M0.980469 7.68994C0.980469 3.82395 4.11448 0.689941 7.98047 0.689941H71.9805C75.8465 0.689941 78.9805 3.82395 78.9805 7.68994V73.6899C78.9805 77.5559 75.8465 80.6899 71.9805 80.6899H7.98047C4.11448 80.6899 0.980469 77.5559 0.980469 73.6899V7.68994Z" fill="#3AB44C"/>
<path d="M0.980469 0.689941H78.9805H0.980469ZM78.9805 73.6899C78.9805 79.7651 74.0556 84.6899 67.9805 84.6899H11.9805C5.90534 84.6899 0.980469 79.7651 0.980469 73.6899C0.980469 75.3468 4.11448 76.6899 7.98047 76.6899H71.9805C75.8465 76.6899 78.9805 75.3468 78.9805 73.6899ZM0.980469 80.6899V0.689941V80.6899ZM78.9805 0.689941V80.6899V0.689941Z" fill="#3AB44C" mask="url(#path-1-inside-1_363_159)"/>
<path d="M37.8841 47.7391H42.9565L41.3623 38.8985C42.1836 38.657 42.872 38.186 43.4275 37.4855C43.9831 36.785 44.2609 36 44.2609 35.1304C44.2609 34.0676 43.8865 33.1618 43.1377 32.413C42.3889 31.6643 41.4831 31.2899 40.4203 31.2899C39.3575 31.2899 38.4517 31.6643 37.7029 32.413C36.9541 33.1618 36.5797 34.0676 36.5797 35.1304C36.5797 36 36.8575 36.785 37.413 37.4855C37.9686 38.186 38.657 38.657 39.4783 38.8985L37.8841 47.7391ZM40.4203 66C34.8647 64.2609 30.2391 60.8309 26.5435 55.7101C22.8478 50.5894 21 44.7923 21 38.3188V23.2464L40.4203 16L59.8406 23.2464V38.3188C59.8406 44.7923 57.9928 50.5894 54.2971 55.7101C50.6014 60.8309 45.9758 64.2609 40.4203 66ZM40.4203 63.8261C45.4444 62.2319 49.599 59.0435 52.8841 54.2609C56.1691 49.4783 57.8116 44.1643 57.8116 38.3188V24.6232L40.4203 18.1739L23.029 24.6232V38.3188C23.029 44.1643 24.6715 49.4783 27.9565 54.2609C31.2415 59.0435 35.3961 62.2319 40.4203 63.8261Z" fill="white"/>
</svg>
