<svg width="78" height="80" viewBox="0 0 78 80" fill="none" xmlns="http://www.w3.org/2000/svg">
<mask id="path-1-inside-1_363_139" fill="white">
<path d="M0 7C0 3.13401 3.13401 0 7 0H71C74.866 0 78 3.13401 78 7V73C78 76.866 74.866 80 71 80H7C3.13401 80 0 76.866 0 73V7Z"/>
</mask>
<path d="M0 7C0 3.13401 3.13401 0 7 0H71C74.866 0 78 3.13401 78 7V73C78 76.866 74.866 80 71 80H7C3.13401 80 0 76.866 0 73V7Z" fill="#3AB44C"/>
<path d="M0 0H78H0ZM78 73C78 79.0751 73.0751 84 67 84H11C4.92487 84 0 79.0751 0 73C0 74.6569 3.13401 76 7 76H71C74.866 76 78 74.6569 78 73ZM0 80V0V80ZM78 0V80V0Z" fill="#3AB44C" mask="url(#path-1-inside-1_363_139)"/>
<path d="M63.9997 58.6747C63.9997 58.3295 63.7198 58.0497 63.3747 58.0497C63.0295 58.0497 62.7497 58.3295 62.7497 58.6747C62.7497 61.0176 60.9887 62.9547 58.7138 63.2597V57.1665C58.7138 56.8213 58.4339 56.5415 58.0888 56.5415C57.7436 56.5415 57.4638 56.8213 57.4638 57.1665V63.2597C55.1889 62.9547 53.4279 61.0176 53.4279 58.6747C53.4279 58.3295 53.148 58.0497 52.8029 58.0497C52.4577 58.0497 52.1779 58.3295 52.1779 58.6747C52.1779 61.0149 53.5621 63.0344 55.5556 63.9807H41.533C43.5265 63.0344 44.9108 61.0149 44.9108 58.6747C44.9108 58.3295 44.6309 58.0497 44.2858 58.0497C43.9406 58.0497 43.6608 58.3295 43.6608 58.6747C43.6608 61.0176 41.8998 62.9547 39.6248 63.2597V57.1665C39.6248 56.8213 39.345 56.5415 38.9998 56.5415C38.6547 56.5415 38.3749 56.8213 38.3749 57.1665V63.2597C36.0999 62.9547 34.3389 61.0176 34.3389 58.6747C34.3389 58.3295 34.0591 58.0497 33.7139 58.0497C33.3688 58.0497 33.0889 58.3295 33.0889 58.6747C33.0889 61.0149 34.4732 63.0344 36.4667 63.9807H22.444C24.4376 63.0344 25.8218 61.0149 25.8218 58.6747C25.8218 58.3295 25.542 58.0497 25.1968 58.0497C24.8517 58.0497 24.5718 58.3295 24.5718 58.6747C24.5718 61.0176 22.8108 62.9547 20.5359 63.2597V57.1665C20.5359 56.8213 20.2561 56.5415 19.9109 56.5415C19.5658 56.5415 19.2859 56.8213 19.2859 57.1665V63.2597C17.011 62.9547 15.25 61.0176 15.25 58.6747C15.25 58.3295 14.9701 58.0497 14.625 58.0497C14.2798 58.0497 14 58.3295 14 58.6747C14 61.0149 15.3842 63.0344 17.3778 63.9807H14.625C14.2798 63.9807 14 64.2606 14 64.6057C14 64.9509 14.2798 65.2307 14.625 65.2307H63.3747C63.7198 65.2307 63.9997 64.9509 63.9997 64.6057C63.9997 64.2606 63.7198 63.9807 63.3747 63.9807H60.6219C62.6155 63.0344 63.9997 61.0149 63.9997 58.6747Z" fill="white"/>
<path d="M63.9997 44.9039C63.9997 44.5587 63.7198 44.2789 63.3747 44.2789C63.0295 44.2789 62.7497 44.5587 62.7497 44.9039C62.7497 47.2468 60.9887 49.1838 58.7138 49.4889V43.396C58.7138 43.0508 58.4339 42.771 58.0888 42.771C57.7436 42.771 57.4638 43.0508 57.4638 43.396V49.4889C55.1889 49.1838 53.4279 47.2468 53.4279 44.9039C53.4279 44.5587 53.148 44.2789 52.8029 44.2789C52.4577 44.2789 52.1779 44.5587 52.1779 44.9039C52.1779 47.2444 53.5624 49.264 55.5563 50.2102H41.5324C43.5262 49.264 44.9108 47.2444 44.9108 44.9039C44.9108 44.5587 44.6309 44.2789 44.2858 44.2789C43.9406 44.2789 43.6608 44.5587 43.6608 44.9039C43.6608 47.2468 41.8998 49.1838 39.6248 49.4889V43.396C39.6248 43.0508 39.345 42.771 38.9998 42.771C38.6547 42.771 38.3749 43.0508 38.3749 43.396V49.4889C36.0999 49.1838 34.3389 47.2468 34.3389 44.9039C34.3389 44.5587 34.0591 44.2789 33.7139 44.2789C33.3688 44.2789 33.0889 44.5587 33.0889 44.9039C33.0889 47.2444 34.4735 49.264 36.4673 50.2102H22.4434C24.4373 49.264 25.8218 47.2444 25.8218 44.9039C25.8218 44.5587 25.542 44.2789 25.1968 44.2789C24.8517 44.2789 24.5718 44.5587 24.5718 44.9039C24.5718 47.2468 22.8108 49.1838 20.5359 49.4889V43.396C20.5359 43.0508 20.2561 42.771 19.9109 42.771C19.5658 42.771 19.2859 43.0508 19.2859 43.396V49.4889C17.011 49.1838 15.25 47.2468 15.25 44.9039C15.25 44.5587 14.9701 44.2789 14.625 44.2789C14.2798 44.2789 14 44.5587 14 44.9039C14 47.2444 15.3845 49.264 17.3784 50.2102H14.625C14.2798 50.2102 14 50.4901 14 50.8352C14 51.1804 14.2798 51.4602 14.625 51.4602H63.3747C63.7198 51.4602 63.9997 51.1804 63.9997 50.8352C63.9997 50.4901 63.7198 50.2102 63.3747 50.2102H60.6213C62.6152 49.264 63.9997 47.2444 63.9997 44.9039Z" fill="white"/>
<path d="M63.9997 31.1346C63.9997 30.7895 63.7198 30.5096 63.3747 30.5096C63.0295 30.5096 62.7497 30.7895 62.7497 31.1346C62.7497 33.4775 60.9887 35.4146 58.7138 35.7196V29.6265C58.7138 29.2813 58.4339 29.0015 58.0888 29.0015C57.7436 29.0015 57.4638 29.2813 57.4638 29.6265V35.7196C55.1889 35.4146 53.4279 33.4775 53.4279 31.1346C53.4279 30.7895 53.148 30.5096 52.8029 30.5096C52.4577 30.5096 52.1779 30.7895 52.1779 31.1346C52.1779 33.4749 53.5621 35.4943 55.5556 36.4407H41.533C43.5265 35.4943 44.9108 33.4749 44.9108 31.1346C44.9108 30.7895 44.6309 30.5096 44.2858 30.5096C43.9406 30.5096 43.6608 30.7895 43.6608 31.1346C43.6608 33.4775 41.8998 35.4146 39.6248 35.7196V29.6265C39.6248 29.2813 39.345 29.0015 38.9998 29.0015C38.6547 29.0015 38.3749 29.2813 38.3749 29.6265V35.7196C36.0999 35.4146 34.3389 33.4775 34.3389 31.1346C34.3389 30.7895 34.0591 30.5096 33.7139 30.5096C33.3688 30.5096 33.0889 30.7895 33.0889 31.1346C33.0889 33.4749 34.4732 35.4943 36.4667 36.4407H22.444C24.4376 35.4943 25.8218 33.4749 25.8218 31.1346C25.8218 30.7895 25.542 30.5096 25.1968 30.5096C24.8517 30.5096 24.5718 30.7895 24.5718 31.1346C24.5718 33.4775 22.8108 35.4146 20.5359 35.7196V29.6265C20.5359 29.2813 20.2561 29.0015 19.9109 29.0015C19.5658 29.0015 19.2859 29.2813 19.2859 29.6265V35.7196C17.011 35.4146 15.25 33.4775 15.25 31.1346C15.25 30.7895 14.9701 30.5096 14.625 30.5096C14.2798 30.5096 14 30.7895 14 31.1346C14 33.4749 15.3842 35.4943 17.3778 36.4407H14.625C14.2798 36.4407 14 36.7205 14 37.0657C14 37.4108 14.2798 37.6907 14.625 37.6907H63.3747C63.7198 37.6907 63.9997 37.4108 63.9997 37.0657C63.9997 36.7205 63.7198 36.4407 63.3747 36.4407H60.6219C62.6155 35.4943 63.9997 33.4749 63.9997 31.1346Z" fill="white"/>
<path d="M63.9997 17.3641C63.9997 17.019 63.7198 16.7391 63.3747 16.7391C63.0295 16.7391 62.7497 17.019 62.7497 17.3641C62.7497 19.707 60.9887 21.6441 58.7138 21.9491V15.856C58.7138 15.5108 58.4339 15.231 58.0888 15.231C57.7436 15.231 57.4638 15.5108 57.4638 15.856V21.9491C55.1889 21.6441 53.4279 19.707 53.4279 17.3641C53.4279 17.019 53.148 16.7391 52.8029 16.7391C52.4577 16.7391 52.1779 17.019 52.1779 17.3641C52.1779 19.7044 53.5621 21.7238 55.5556 22.6702H41.533C43.5265 21.7238 44.9108 19.7044 44.9108 17.3641C44.9108 17.019 44.6309 16.7391 44.2858 16.7391C43.9406 16.7391 43.6608 17.019 43.6608 17.3641C43.6608 19.707 41.8998 21.6441 39.6248 21.9491V15.856C39.6248 15.5108 39.345 15.231 38.9998 15.231C38.6547 15.231 38.3749 15.5108 38.3749 15.856V21.9491C36.0999 21.6441 34.3389 19.707 34.3389 17.3641C34.3389 17.019 34.0591 16.7391 33.7139 16.7391C33.3688 16.7391 33.0889 17.019 33.0889 17.3641C33.0889 19.7044 34.4732 21.7238 36.4667 22.6702H22.444C24.4376 21.7238 25.8218 19.7044 25.8218 17.3641C25.8218 17.019 25.542 16.7391 25.1968 16.7391C24.8517 16.7391 24.5718 17.019 24.5718 17.3641C24.5718 19.707 22.8108 21.6441 20.5359 21.9491V15.856C20.5359 15.5108 20.2561 15.231 19.9109 15.231C19.5658 15.231 19.2859 15.5108 19.2859 15.856V21.9491C17.011 21.6441 15.25 19.707 15.25 17.3641C15.25 17.019 14.9701 16.7391 14.625 16.7391C14.2798 16.7391 14 17.019 14 17.3641C14 19.7044 15.3842 21.7238 17.3778 22.6702H14.625C14.2798 22.6702 14 22.95 14 23.2952C14 23.6403 14.2798 23.9202 14.625 23.9202H63.3747C63.7198 23.9202 63.9997 23.6403 63.9997 23.2952C63.9997 22.95 63.7198 22.6702 63.3747 22.6702H60.6219C62.6155 21.7238 63.9997 19.7044 63.9997 17.3641Z" fill="white"/>
</svg>
