<svg width="78" height="80" viewBox="0 0 78 80" fill="none" xmlns="http://www.w3.org/2000/svg">
<mask id="path-1-inside-1_363_129" fill="white">
<path d="M0 7C0 3.134 3.13401 0 7 0H71C74.866 0 78 3.13401 78 7V73C78 76.866 74.866 80 71 80H7C3.13401 80 0 76.866 0 73V7Z"/>
</mask>
<path d="M0 7C0 3.134 3.13401 0 7 0H71C74.866 0 78 3.13401 78 7V73C78 76.866 74.866 80 71 80H7C3.13401 80 0 76.866 0 73V7Z" fill="#3AB44C"/>
<path d="M0 0H78H0ZM78 73C78 79.0751 73.0751 84 67 84H11C4.92487 84 0 79.0751 0 73C0 74.6569 3.13401 76 7 76H71C74.866 76 78 74.6569 78 73ZM0 80V0V80ZM78 0V80V0Z" fill="#3AB44C" mask="url(#path-1-inside-1_363_129)"/>
<path d="M14.1835 63.7688C14.3054 63.8907 14.4654 63.9519 14.6254 63.9519C14.7854 63.9519 14.9454 63.8907 15.0673 63.7688C21.2722 57.5638 28.9072 52.5508 37.7677 48.8489V53.8545C33.0109 56.1507 28.1515 59.0851 23.5328 62.8432C23.2653 63.0613 23.2247 63.455 23.4422 63.7225C23.566 63.8744 23.746 63.9532 23.9272 63.9532C24.066 63.9532 24.2053 63.9075 24.3216 63.8132C38.4583 52.3114 54.9113 48.6171 63.4606 47.4383C63.8025 47.3908 64.0412 47.0758 63.9944 46.7339C63.9469 46.3914 63.63 46.1533 63.29 46.2002C57.645 46.9783 48.6039 48.8408 39.0183 53.2639V51.8301C39.2608 51.8514 39.5739 51.8708 39.9377 51.8708C41.2533 51.8708 43.1852 51.6233 44.4539 50.3545C45.7008 49.1077 45.9601 47.2227 45.9689 45.9089C55.8251 42.9352 63.3269 42.5846 63.4019 42.5815C63.7469 42.5671 64.0144 42.2752 64 41.9309C63.9856 41.5859 63.7006 41.3134 63.3494 41.3327C63.3012 41.3346 60.2825 41.4746 55.5744 42.3202V41.1552C55.7719 41.1709 56.0138 41.1827 56.2882 41.1827C57.4457 41.1827 59.1494 40.964 60.2713 39.8421C62.07 38.0428 61.5469 34.7478 61.5231 34.6078C61.4794 34.344 61.2731 34.1378 61.0094 34.094C60.87 34.0709 57.5744 33.5466 55.7751 35.3459C55.7026 35.4184 55.6394 35.4972 55.5744 35.574V32.3691C55.7907 32.3891 56.0776 32.4072 56.4119 32.4072C57.5694 32.4072 59.2738 32.1884 60.3956 31.0666C62.195 29.2672 61.6713 25.9722 61.6475 25.8322C61.6038 25.5685 61.3975 25.3622 61.1338 25.3185C60.9944 25.2947 57.6988 24.771 55.8994 26.5704C55.7807 26.6891 55.6738 26.8147 55.5744 26.9447V23.0866C56.2732 22.5191 58.1282 20.8148 58.1282 18.7029C58.1282 16.1586 55.4276 14.1986 55.3126 14.1167C55.0951 13.9611 54.8032 13.9611 54.5857 14.1167C54.4707 14.1986 51.7701 16.1586 51.7701 18.7029C51.7701 20.8148 53.6251 22.5191 54.3238 23.0866V23.8929C54.2932 23.8598 54.2676 23.8241 54.2357 23.7923C52.4363 21.9929 49.1414 22.5166 49.0014 22.5404C48.7376 22.5841 48.5314 22.7904 48.4876 23.0541C48.4645 23.1935 47.9408 26.4891 49.7395 28.2885C50.8614 29.4103 52.5651 29.6291 53.7226 29.6291C53.9476 29.6291 54.1482 29.6203 54.3238 29.6091V32.8103C54.2551 32.7278 54.1876 32.6447 54.1107 32.5678C52.312 30.7691 49.0164 31.2928 48.8764 31.3159C48.6126 31.3597 48.4064 31.5659 48.3626 31.8297C48.3395 31.9691 47.8158 35.2647 49.6145 37.064C50.7364 38.1859 52.4401 38.4046 53.5982 38.4046C53.8782 38.4046 54.1238 38.3915 54.3238 38.3759V42.554C51.8513 43.0352 48.9926 43.7021 45.8983 44.624C45.8839 44.504 45.8714 44.429 45.8683 44.409C45.8245 44.1452 45.6183 43.939 45.3545 43.8952C45.2658 43.8802 44.0483 43.6871 42.6364 43.879C42.6214 43.8708 42.6114 43.8571 42.5952 43.8496C41.4289 43.3277 40.2296 42.8346 39.0171 42.359V41.7115C39.2715 41.7384 39.6389 41.7659 40.0802 41.7659C41.3958 41.7659 43.3277 41.5184 44.5964 40.2496C46.6339 38.2121 46.0383 34.464 46.0114 34.3053C45.9676 34.0415 45.7614 33.8353 45.4976 33.7916C45.3389 33.7653 41.5914 33.1697 39.5533 35.2072C39.3464 35.414 39.1733 35.6422 39.0171 35.8784V31.0841C39.7808 30.471 41.9583 28.511 41.9583 26.0816C41.9583 23.1998 38.8865 20.971 38.7558 20.8773C38.5383 20.7217 38.2465 20.7217 38.029 20.8773C37.8983 20.9704 34.8265 23.1998 34.8265 26.0816C34.8265 28.511 37.004 30.471 37.7677 31.0841V32.3078C37.684 32.2059 37.5996 32.1034 37.5046 32.0084C35.4671 29.9703 31.719 30.5672 31.5603 30.5935C31.2965 30.6372 31.0903 30.8435 31.0465 31.1072C31.0203 31.2659 30.424 35.0134 32.4621 37.0515C33.7309 38.3203 35.6627 38.5678 36.9783 38.5678C37.279 38.5678 37.5471 38.5546 37.7683 38.5384V41.8884C37.3077 41.7159 36.8527 41.5327 36.389 41.3684C36.3677 41.3609 36.3465 41.3646 36.3252 41.3596C35.7815 41.0671 35.1952 40.8765 34.6202 40.7621C30.1884 39.2859 26.1491 38.3403 22.8785 37.7346V36.7259C23.021 36.7347 23.1778 36.7422 23.3585 36.7422C24.3372 36.7422 25.7828 36.5565 26.7391 35.6003C28.2684 34.0709 27.8259 31.2872 27.8066 31.1691C27.7628 30.9053 27.5566 30.6991 27.2928 30.6553C27.1747 30.636 24.4122 30.1978 22.8785 31.7078V29.4453C23.0435 29.4578 23.2341 29.4691 23.4622 29.4691C24.441 29.4691 25.8866 29.2835 26.8428 28.3272C28.3722 26.7979 27.9297 24.0141 27.9103 23.896C27.8665 23.6323 27.6603 23.426 27.3966 23.3823C27.2784 23.3629 24.4947 22.9204 22.9653 24.4498C22.9341 24.481 22.9085 24.516 22.8785 24.5485V21.6892C23.4985 21.176 24.9953 19.7579 24.9953 18.0054C24.9953 15.8423 22.7141 14.1867 22.6172 14.1173C22.3997 13.9617 22.1078 13.9617 21.8904 14.1173C21.7935 14.1867 19.5116 15.8423 19.5116 18.0054C19.5116 19.7579 21.0085 21.1767 21.6285 21.6892V22.051C20.0797 20.6423 17.4216 21.0604 17.3066 21.0798C17.0429 21.1235 16.8366 21.3298 16.7929 21.5935C16.7735 21.711 16.331 24.4954 17.8604 26.0247C18.8166 26.981 20.2622 27.1666 21.241 27.1666C21.381 27.1666 21.5104 27.1622 21.6285 27.1566V29.4147C20.0972 27.891 17.321 28.3322 17.2029 28.3522C16.9391 28.396 16.7329 28.6022 16.6891 28.866C16.6698 28.9835 16.2273 31.7678 17.7566 33.2972C18.7129 34.2534 20.1585 34.439 21.1372 34.439C21.3229 34.439 21.4829 34.4315 21.6279 34.4222V37.5109C17.3679 36.789 14.696 36.679 14.6479 36.6772C14.3142 36.6703 14.0129 36.9346 14.0004 37.279C13.9879 37.624 14.2573 37.914 14.6023 37.9265C14.6785 37.929 21.6004 38.2128 31.0196 40.9484C30.9634 41.0252 30.9184 41.1115 30.9021 41.2102C30.8815 41.3327 30.5284 43.5821 31.2959 45.5408C24.5578 43.2121 18.621 42.084 14.711 41.5446C14.371 41.499 14.0535 41.7365 14.0067 42.0784C13.9598 42.4202 14.1985 42.7358 14.5404 42.7827C18.6979 43.3558 25.1791 44.6027 32.4721 47.2852C33.2878 48.0233 34.3309 48.3858 35.314 48.5477C33.519 49.3533 31.7753 50.2127 30.0859 51.1277C25.1709 49.207 20.0104 47.7152 14.7442 46.6946C14.4048 46.6308 14.0773 46.8508 14.0117 47.1896C13.946 47.5283 14.1679 47.8564 14.5067 47.9221C19.3529 48.8614 24.106 50.2095 28.6572 51.9233C27.0228 52.8551 25.4397 53.8389 23.9122 54.8739C20.9554 53.7933 17.8835 52.8539 14.7754 52.0851C14.441 52.0014 14.101 52.2064 14.0185 52.5414C13.9354 52.8764 14.1398 53.2158 14.4748 53.2983C17.2485 53.9839 19.9897 54.8132 22.6472 55.7532C19.5947 57.9226 16.766 60.3001 14.1829 62.8832C13.9392 63.1294 13.9392 63.5244 14.1835 63.7688ZM56.6582 36.2297C57.6688 35.2197 59.4919 35.2159 60.3425 35.2778C60.4156 36.2672 60.33 38.014 59.3863 38.9578C58.3775 39.9671 56.5601 39.9715 55.7057 39.9096C55.6444 39.0571 55.6494 37.2384 56.6582 36.2297ZM54.3038 28.3572C53.4495 28.4185 51.632 28.4135 50.6232 27.4054C49.6126 26.3947 49.6095 24.5723 49.6714 23.721C50.662 23.6491 52.4082 23.7341 53.3513 24.6773C54.3601 25.6854 54.3657 27.5041 54.3038 28.3572ZM54.1788 37.1321C53.3238 37.1921 51.5076 37.1884 50.4982 36.1803C49.4876 35.1697 49.4845 33.3472 49.5464 32.4953C50.5364 32.4222 52.2826 32.5078 53.2263 33.4516C54.2357 34.4609 54.2407 36.279 54.1788 37.1321ZM56.7825 27.4547C57.7938 26.4441 59.6163 26.4404 60.4669 26.5029C60.54 27.4922 60.4544 29.2391 59.5107 30.1828C58.5019 31.1922 56.685 31.1972 55.8301 31.1347C55.7688 30.2816 55.7738 28.4635 56.7825 27.4547ZM53.0195 18.7036C53.0195 17.2742 54.3057 15.9836 54.9513 15.4255C55.7026 16.073 56.8775 17.3686 56.8775 18.7036C56.8775 20.1304 55.5957 21.4198 54.9488 21.9792C54.3019 21.4198 53.0195 20.1304 53.0195 18.7036ZM40.4377 36.0903C41.6596 34.869 43.8733 34.8959 44.8314 34.9728C44.9108 35.9297 44.9395 38.1384 43.7133 39.3653C42.4914 40.5865 40.2777 40.5609 39.3196 40.4827C39.2396 39.5259 39.2108 37.3171 40.4377 36.0903ZM36.0765 26.081C36.0765 24.3541 37.6596 22.8079 38.3927 22.1848C39.1252 22.8079 40.7089 24.3541 40.7089 26.081C40.7089 27.8079 39.1258 29.3541 38.3927 29.9772C37.6596 29.3547 36.0765 27.8079 36.0765 26.081ZM37.7383 37.2846C36.7783 37.3621 34.5665 37.3884 33.3453 36.1672C32.124 34.9459 32.1503 32.7334 32.2278 31.7747C33.1871 31.6972 35.3996 31.6709 36.6208 32.8922C37.534 33.8053 37.7496 35.2715 37.7677 36.3547V36.4147C37.7708 36.7547 37.7565 37.0565 37.7383 37.2846ZM23.7447 32.6066C24.516 31.8353 25.8941 31.7991 26.6172 31.8422C26.6578 32.5653 26.6203 33.9509 25.8547 34.7165C25.0828 35.4884 23.7047 35.5247 22.9803 35.4809C22.9378 34.759 22.9728 33.3791 23.7447 32.6066ZM23.8485 25.3335C24.6197 24.5623 25.9978 24.526 26.7209 24.5691C26.7616 25.2922 26.7241 26.6779 25.9584 27.4435C25.1872 28.2147 23.8078 28.2503 23.086 28.2078C23.0453 27.4847 23.0828 26.0997 23.8485 25.3335ZM21.5141 33.1766C20.791 33.2153 19.4054 33.1797 18.6398 32.4141C17.8685 31.6428 17.8329 30.2641 17.8754 29.5416C18.5973 29.5003 19.9835 29.5378 20.7497 30.3041C21.5216 31.0759 21.5566 32.4541 21.5141 33.1766ZM20.761 18.0054C20.761 16.9136 21.7122 15.913 22.2528 15.433C22.7935 15.9136 23.7447 16.9136 23.7447 18.0054C23.7447 19.0973 22.7935 20.0979 22.2528 20.5779C21.7122 20.0979 20.761 19.0973 20.761 18.0054ZM21.6179 25.9041C20.8941 25.9447 19.5091 25.9072 18.7435 25.1416C17.9723 24.3704 17.9366 22.9916 17.9791 22.2691C18.7004 22.2273 20.0872 22.2654 20.8535 23.0316C21.5066 23.6848 21.6304 24.7698 21.6279 25.5266V25.6297C21.626 25.7279 21.6229 25.821 21.6179 25.9041ZM32.084 41.8784C33.0446 41.8021 35.2565 41.7752 36.4771 42.9958C37.6983 44.2171 37.6721 46.4296 37.5946 47.3883C36.6365 47.4671 34.4227 47.4927 33.2015 46.2708C31.9803 45.049 32.0065 42.8371 32.084 41.8784ZM44.6864 45.0771C44.7639 46.0358 44.7902 48.2489 43.5689 49.4702C42.3477 50.6908 40.1352 50.6633 39.1758 50.5877C39.0983 49.6289 39.0721 47.4158 40.2933 46.1946C41.5152 44.9733 43.7252 44.9996 44.6864 45.0771ZM40.7208 44.4133C40.2464 44.6321 39.7971 44.9233 39.4096 45.3108C39.2646 45.4558 39.1365 45.6108 39.0171 45.7708V43.6946C39.5946 43.9252 40.1546 44.1721 40.7208 44.4133Z" fill="white"/>
<path d="M34.4258 63.9516C34.5421 63.9516 34.6596 63.9197 34.764 63.8516C45.2251 57.1073 56.1619 53.9973 63.495 52.5761C63.8337 52.5104 64.055 52.1823 63.99 51.8436C63.9243 51.5048 63.5962 51.2842 63.2575 51.3486C55.8169 52.791 44.7158 55.9485 34.0871 62.801C33.7971 62.9878 33.7134 63.3747 33.9009 63.6647C34.019 63.8503 34.2202 63.9516 34.4258 63.9516Z" fill="white"/>
<path d="M63.982 57.1966C63.8988 56.861 63.5576 56.6554 63.2251 56.7404C57.2745 58.2116 51.5902 60.2553 46.3302 62.8134C46.0196 62.9647 45.8909 63.3384 46.0415 63.6491C46.1496 63.8716 46.3721 64.0003 46.604 64.0003C46.6959 64.0003 46.789 63.9803 46.8771 63.9372C52.0583 61.4172 57.6589 59.4035 63.5251 57.9529C63.8601 57.871 64.0645 57.5322 63.982 57.1966Z" fill="white"/>
</svg>
