<svg width="51" height="51" viewBox="0 0 51 51" fill="none" xmlns="http://www.w3.org/2000/svg">
<path d="M25.1655 29.989C25.2387 30.0703 25.3282 30.1353 25.4282 30.1798C25.5282 30.2243 25.6365 30.2473 25.7459 30.2473C25.8554 30.2473 25.9636 30.2243 26.0636 30.1798C26.1636 30.1353 26.2531 30.0703 26.3264 29.989L40.3889 14.364C40.5008 14.2396 40.5699 14.0827 40.5859 13.9161C40.6019 13.7496 40.5641 13.5824 40.478 13.439L35.7905 5.62646C35.721 5.51091 35.6229 5.41528 35.5056 5.34889C35.3882 5.28249 35.2557 5.24758 35.1209 5.24756H16.3709C16.2361 5.24758 16.1036 5.28249 15.9863 5.34889C15.869 5.41528 15.7708 5.51091 15.7014 5.62646L11.0139 13.439C10.9277 13.5824 10.8899 13.7496 10.9059 13.9161C10.922 14.0827 10.991 14.2396 11.103 14.364L25.1655 29.989ZM29.3834 14.6226L25.7459 26.7476L22.1084 14.6226H29.3834ZM22.4381 13.0601L25.7459 7.54756L29.0537 13.0601H22.4381ZM31.0147 14.6226H38.0545L27.4951 26.3554L31.0147 14.6226ZM27.1256 6.81006H33.7412L30.4334 12.3226L27.1256 6.81006ZM21.0584 12.3226L17.7506 6.81006H24.3662L21.0584 12.3226ZM19.6787 13.0601H13.0631L16.3709 7.54756L19.6787 13.0601ZM20.4772 14.6226L23.9928 26.3554L13.4373 14.6226H20.4772ZM38.4287 13.0601H31.8131L35.1209 7.54756L38.4287 13.0601Z" fill="url(#paint0_linear_449_57)"/>
<path d="M49.1836 13.0601H42.9336V14.6226H49.1836V13.0601Z" fill="url(#paint1_linear_449_57)"/>
<path d="M48.0944 6.09076L42.626 8.43567L43.2418 9.87171L48.7102 7.5268L48.0944 6.09076Z" fill="url(#paint2_linear_449_57)"/>
<path d="M43.2415 17.8107L42.626 19.2468L48.0949 21.5907L48.7104 20.1545L43.2415 17.8107Z" fill="url(#paint3_linear_449_57)"/>
<path d="M8.55859 13.0601H2.30859V14.6226H8.55859V13.0601Z" fill="url(#paint4_linear_449_57)"/>
<path d="M3.39774 6.09192L2.78223 7.52808L8.25112 9.87194L8.86663 8.43578L3.39774 6.09192Z" fill="url(#paint5_linear_449_57)"/>
<path d="M8.25067 17.8099L2.78223 20.1548L3.39801 21.5908L8.86646 19.2459L8.25067 17.8099Z" fill="url(#paint6_linear_449_57)"/>
<path d="M46.1758 33.2944C45.7593 32.5777 45.0763 32.0546 44.2758 31.8395C43.4752 31.6243 42.622 31.7345 41.9023 32.146L35.082 36.0835C35.1032 35.9621 35.1162 35.8394 35.1211 35.7163C35.1216 35.3058 35.0411 34.8992 34.8843 34.5198C34.7274 34.1405 34.4972 33.7958 34.2069 33.5055C33.9167 33.2152 33.572 32.985 33.1926 32.8282C32.8132 32.6713 32.4066 32.5908 31.9961 32.5913H26.6758L24.3164 31.646C23.2979 31.2377 22.2106 31.0282 21.1133 31.0288H20.0977C18.5393 31.0262 17.0101 31.4504 15.6758 32.2554L13.8086 33.3726H13.2461C13.2461 33.1654 13.1638 32.9667 13.0173 32.8201C12.8708 32.6736 12.672 32.5913 12.4648 32.5913H6.21484C6.00764 32.5913 5.80893 32.6736 5.66242 32.8201C5.5159 32.9667 5.43359 33.1654 5.43359 33.3726H2.30859V34.9351H5.43359V43.8023L2.18359 44.3179L2.43359 45.8648L5.48828 45.3726C5.54619 45.5185 5.64618 45.644 5.77554 45.733C5.90491 45.8221 6.05782 45.8706 6.21484 45.8726H12.4648C12.672 45.8726 12.8708 45.7903 13.0173 45.6437C13.1638 45.4972 13.2461 45.2985 13.2461 45.0913V44.5601L16.3555 44.3101L26.2695 45.4116C26.7646 45.4714 27.263 45.5001 27.7617 45.4976C30.0855 45.4948 32.3677 44.8805 34.3789 43.7163L45.0273 37.5679C45.3837 37.3631 45.6962 37.09 45.9469 36.7642C46.1976 36.4384 46.3815 36.0664 46.4882 35.6694C46.5949 35.2725 46.6222 34.8584 46.5686 34.4508C46.515 34.0433 46.3815 33.6503 46.1758 33.2944ZM11.6836 44.3101H6.99609V34.1538H11.6836V44.3101ZM44.9805 35.2632C44.9275 35.4619 44.8352 35.6479 44.7091 35.8103C44.5829 35.9726 44.4255 36.108 44.2461 36.2085L33.5977 42.3569C31.436 43.6149 28.9268 44.1435 26.4414 43.8648L16.457 42.7554C16.4078 42.7489 16.3582 42.7463 16.3086 42.7476L13.2461 42.9976V34.9351H14.0273C14.1676 34.935 14.3052 34.8973 14.4258 34.8257L16.4805 33.5991C17.5707 32.9372 18.8222 32.5885 20.0977 32.5913H21.1133C22.0103 32.5898 22.8991 32.7623 23.7305 33.0991L26.2383 34.0991C26.3299 34.1367 26.4283 34.1553 26.5273 34.1538H31.9961C32.4095 34.1569 32.8052 34.3225 33.0976 34.6149C33.3899 34.9072 33.5555 35.3029 33.5586 35.7163C33.5574 36.1303 33.3923 36.5271 33.0996 36.8198C32.8068 37.1126 32.4101 37.2776 31.9961 37.2788H24.1836V38.8413H32.3945C33.0807 38.845 33.7553 38.6643 34.3477 38.3179L42.6836 33.5054C42.9517 33.3524 43.259 33.2819 43.567 33.3027C43.875 33.3235 44.1701 33.4346 44.4152 33.6223C44.6604 33.8099 44.8447 34.0656 44.9453 34.3575C45.0458 34.6494 45.0581 34.9644 44.9805 35.2632Z" fill="url(#paint7_linear_449_57)"/>
<path d="M10.1211 41.9663H8.55859V43.5288H10.1211V41.9663Z" fill="url(#paint8_linear_449_57)"/>
<defs>
<linearGradient id="paint0_linear_449_57" x1="10.9023" y1="17.7474" x2="40.5895" y2="17.7474" gradientUnits="userSpaceOnUse">
<stop stop-color="#10733E"/>
<stop offset="1" stop-color="#47A070"/>
</linearGradient>
<linearGradient id="paint1_linear_449_57" x1="42.9336" y1="13.8413" x2="49.1836" y2="13.8413" gradientUnits="userSpaceOnUse">
<stop stop-color="#10733E"/>
<stop offset="1" stop-color="#47A070"/>
</linearGradient>
<linearGradient id="paint2_linear_449_57" x1="42.9339" y1="9.15369" x2="48.4023" y2="6.80878" gradientUnits="userSpaceOnUse">
<stop stop-color="#10733E"/>
<stop offset="1" stop-color="#47A070"/>
</linearGradient>
<linearGradient id="paint3_linear_449_57" x1="45.3604" y1="20.4188" x2="45.9759" y2="18.9826" gradientUnits="userSpaceOnUse">
<stop stop-color="#10733E"/>
<stop offset="1" stop-color="#47A070"/>
</linearGradient>
<linearGradient id="paint4_linear_449_57" x1="2.30859" y1="13.8413" x2="8.55859" y2="13.8413" gradientUnits="userSpaceOnUse">
<stop stop-color="#10733E"/>
<stop offset="1" stop-color="#47A070"/>
</linearGradient>
<linearGradient id="paint5_linear_449_57" x1="5.51667" y1="8.70001" x2="6.13218" y2="7.26385" gradientUnits="userSpaceOnUse">
<stop stop-color="#10733E"/>
<stop offset="1" stop-color="#47A070"/>
</linearGradient>
<linearGradient id="paint6_linear_449_57" x1="3.09012" y1="20.8728" x2="8.55856" y2="18.5279" gradientUnits="userSpaceOnUse">
<stop stop-color="#10733E"/>
<stop offset="1" stop-color="#47A070"/>
</linearGradient>
<linearGradient id="paint7_linear_449_57" x1="2.18359" y1="38.4507" x2="46.5953" y2="38.4507" gradientUnits="userSpaceOnUse">
<stop stop-color="#10733E"/>
<stop offset="1" stop-color="#47A070"/>
</linearGradient>
<linearGradient id="paint8_linear_449_57" x1="8.55859" y1="42.7476" x2="10.1211" y2="42.7476" gradientUnits="userSpaceOnUse">
<stop stop-color="#10733E"/>
<stop offset="1" stop-color="#47A070"/>
</linearGradient>
</defs>
</svg>
