<svg width="51" height="51" viewBox="0 0 51 51" fill="none" xmlns="http://www.w3.org/2000/svg">
<path d="M48.249 25.0757C47.8428 24.5522 38.0771 12.2788 25.7568 12.2788C13.4365 12.2788 3.67871 24.5522 3.26465 25.0757C3.0459 25.3569 3.0459 25.7554 3.26465 26.0366C3.6709 26.5601 13.4365 38.8335 25.7568 38.8335C38.0771 38.8335 47.835 26.5601 48.249 26.0366C48.4678 25.7554 48.4678 25.3569 48.249 25.0757ZM37.4756 25.5601C37.4756 32.021 32.2178 37.2788 25.7568 37.2788C19.2959 37.2788 14.0381 32.021 14.0381 25.5601C14.0381 19.0991 19.2959 13.8413 25.7568 13.8413C32.2178 13.8413 37.4756 19.0991 37.4756 25.5601ZM4.89746 25.5601C6.17871 24.0601 10.4365 19.4038 16.1318 16.4351C13.874 18.8179 12.4756 22.0288 12.4756 25.5601C12.4756 29.0913 13.874 32.3022 16.1318 34.6851C10.4365 31.7163 6.17871 27.0601 4.89746 25.5601ZM35.3818 34.6851C37.6396 32.3022 39.0381 29.0913 39.0381 25.5601C39.0381 22.0288 37.6396 18.8179 35.3818 16.4351C41.0771 19.4038 45.335 24.0601 46.6162 25.5601C45.335 27.0601 41.0771 31.7163 35.3818 34.6851ZM16.4443 25.3647C16.4756 26.9819 17.6396 28.6304 19.4053 29.5601C20.3115 30.0366 21.2725 30.271 22.1865 30.271C22.8506 30.271 23.4756 30.146 24.0303 29.896C24.5146 30.2944 24.8662 30.6929 25.0537 31.0679V33.271C25.0537 33.7007 25.4053 34.0522 25.835 34.0522C26.2646 34.0522 26.6162 33.7007 26.6162 33.271V31.1069C26.9053 30.7241 27.3193 30.2319 27.6631 29.8882C28.1709 30.0913 28.7256 30.1929 29.3115 30.1929C30.2803 30.1929 31.3115 29.9194 32.2568 29.3726C33.9834 28.3804 35.085 26.6929 35.0615 25.0679C35.0615 24.8022 34.9131 24.5522 34.6865 24.4116C33.3037 23.5679 31.2881 23.6694 29.5615 24.6616C27.9756 25.5757 26.9287 27.0679 26.7881 28.5601C26.7334 28.6147 26.6709 28.6694 26.6162 28.7241V26.021C27.7959 25.1382 28.5459 23.5132 28.5459 21.7163C28.5459 19.7241 27.6318 17.9272 26.21 17.146C25.9756 17.0132 25.6943 17.0132 25.46 17.146C24.0381 17.9272 23.124 19.7241 23.124 21.7163C23.124 23.5132 23.874 25.1382 25.0537 26.021V28.7007C24.9912 28.646 24.9209 28.5913 24.8506 28.5366C24.6553 27.0522 23.5537 25.5913 21.9287 24.7397C20.1631 23.8101 18.1475 23.7944 16.7959 24.6851C16.5693 24.8335 16.4365 25.0835 16.4443 25.3491V25.3647ZM30.3428 26.0288C31.3896 25.4272 32.5771 25.2632 33.46 25.5601C33.2803 26.4741 32.5303 27.4194 31.4834 28.021C30.4365 28.6226 29.2412 28.7866 28.3662 28.4897C28.5459 27.5757 29.2959 26.6304 30.3428 26.0288ZM25.835 18.7944C26.5381 19.4038 26.9834 20.521 26.9834 21.7319C26.9834 22.9429 26.5381 24.0601 25.835 24.6694C25.1318 24.0601 24.6865 22.9429 24.6865 21.7319C24.6865 20.521 25.1318 19.4038 25.835 18.7944ZM21.2021 26.1382C22.2725 26.7007 23.0537 27.6147 23.2725 28.521C22.4053 28.8569 21.2021 28.7397 20.1396 28.1772C19.0693 27.6147 18.2881 26.7007 18.0693 25.7944C18.9365 25.4585 20.1318 25.5757 21.2021 26.1382ZM24.9756 9.15381V4.46631C24.9756 4.03662 25.3271 3.68506 25.7568 3.68506C26.1865 3.68506 26.5381 4.03662 26.5381 4.46631V9.15381C26.5381 9.5835 26.1865 9.93506 25.7568 9.93506C25.3271 9.93506 24.9756 9.5835 24.9756 9.15381ZM14.5303 7.68506C14.3115 7.31006 14.4443 6.8335 14.8193 6.61475C15.1943 6.396 15.6709 6.52881 15.8896 6.90381L18.2334 10.9663C18.4521 11.3413 18.3193 11.8179 17.9443 12.0366C17.8193 12.1069 17.6865 12.1382 17.5537 12.1382C17.2803 12.1382 17.0225 11.9976 16.874 11.7476L14.5303 7.68506ZM33.2803 10.9663L35.624 6.90381C35.8428 6.52881 36.3193 6.40381 36.6943 6.61475C37.0693 6.8335 37.1943 7.31006 36.9834 7.68506L34.6396 11.7476C34.4912 11.9976 34.2334 12.1382 33.96 12.1382C33.8271 12.1382 33.6943 12.1069 33.5693 12.0366C33.1943 11.8179 33.0693 11.3413 33.2803 10.9663ZM26.5381 41.9741V46.6616C26.5381 47.0913 26.1865 47.4429 25.7568 47.4429C25.3271 47.4429 24.9756 47.0913 24.9756 46.6616V41.9741C24.9756 41.5444 25.3271 41.1929 25.7568 41.1929C26.1865 41.1929 26.5381 41.5444 26.5381 41.9741ZM18.2334 40.1694L15.8896 44.2319C15.7412 44.4819 15.4834 44.6226 15.21 44.6226C15.0771 44.6226 14.9443 44.5913 14.8193 44.521C14.4443 44.3022 14.3193 43.8257 14.5303 43.4507L16.874 39.3882C17.0928 39.0132 17.5693 38.8882 17.9443 39.0991C18.3193 39.3179 18.4443 39.7944 18.2334 40.1694ZM36.9834 43.4507C37.2021 43.8257 37.0693 44.3022 36.6943 44.521C36.5693 44.5913 36.4365 44.6226 36.3037 44.6226C36.0303 44.6226 35.7725 44.4819 35.624 44.2319L33.2803 40.1694C33.0615 39.7944 33.1943 39.3179 33.5693 39.0991C33.9443 38.8804 34.4209 39.0132 34.6396 39.3882L36.9834 43.4507Z" fill="url(#paint0_linear_449_49)"/>
<defs>
<linearGradient id="paint0_linear_449_49" x1="3.10059" y1="25.564" x2="48.4131" y2="25.564" gradientUnits="userSpaceOnUse">
<stop stop-color="#10733E"/>
<stop offset="1" stop-color="#47A070"/>
</linearGradient>
</defs>
</svg>
